<svg width="485" height="485" viewBox="0 0 485 485" fill="none" xmlns="http://www.w3.org/2000/svg">
<mask id="mask0_20_2" style="mask-type:luminance" maskUnits="userSpaceOnUse" x="0" y="0" width="486" height="486">
<path d="M0 -3.05176e-05L0 485.41L485.41 485.41L485.41 -3.05176e-05L0 -3.05176e-05Z" fill="white"/>
</mask>
<g mask="url(#mask0_20_2)">
<path d="M471.464 97.455C263.843 97.455 94.9025 266.371 94.9025 474.016C94.9025 681.638 263.819 850.578 471.464 850.578C679.085 850.578 848.025 681.662 848.025 474.016C848.025 266.371 679.109 97.455 471.464 97.455ZM471.464 101.718C676.736 101.718 843.739 268.721 843.739 473.992C843.739 679.264 676.736 846.267 471.464 846.267C266.192 846.267 99.1896 679.264 99.1896 473.992C99.1896 268.721 266.192 101.718 471.464 101.718ZM471.464 286.838C368.259 286.838 284.31 370.787 284.31 473.992C284.31 577.197 368.259 661.147 471.464 661.147C574.669 661.147 658.618 577.197 658.618 473.992C658.618 370.811 574.669 286.838 471.464 286.838ZM471.464 290.737C572.513 290.737 654.719 372.943 654.719 473.992C654.719 575.042 572.513 657.247 471.464 657.247C370.415 657.247 288.209 575.042 288.209 473.992C288.209 372.943 370.415 290.737 471.464 290.737ZM305.236 307.765C299.278 313.723 297.195 320.02 297.195 325.954C297.195 333.536 300.61 340.487 303.759 345.307C294.022 342.11 277.455 339.833 267.863 356.449C265.102 361.244 263.964 365.774 263.964 369.94C263.964 380.185 270.697 388.251 276.123 393.095C265.902 392.513 249.31 394.621 244.345 413.149C243.594 415.911 243.279 418.502 243.279 420.9C243.279 434.585 254.058 442.481 261.833 446.405C251.805 448.488 236.328 454.834 236.328 473.992C236.328 493.175 251.805 499.497 261.833 501.58C254.058 505.504 243.279 513.4 243.279 527.084C243.279 529.482 243.619 532.074 244.345 534.835C249.31 553.364 265.902 555.471 276.123 554.89C270.697 559.734 263.964 567.824 263.964 578.045C263.964 582.211 265.078 586.716 267.863 591.536C277.455 608.152 294.022 605.875 303.759 602.678C300.61 607.473 297.195 614.425 297.195 622.03C297.195 627.964 299.278 634.286 305.236 640.22C318.8 653.784 334.204 647.317 342.779 641.698C341.592 645.331 340.526 649.908 340.526 654.728C340.526 662.818 343.53 671.562 353.944 677.593C370.56 687.184 383.76 676.939 390.591 669.309C390.542 670.205 390.518 671.15 390.518 672.119C390.518 682.34 393.763 696.558 410.645 701.087C429.174 706.052 439.299 692.731 443.901 683.6C445.984 693.627 452.305 709.104 471.488 709.104C490.671 709.104 496.993 693.627 499.076 683.6C503.678 692.731 513.802 706.052 532.331 701.087C550.86 696.122 552.967 679.53 552.386 669.309C559.216 676.939 572.417 687.184 589.032 677.593C605.648 668.001 603.371 651.434 600.174 641.722C608.748 647.341 624.152 653.808 637.716 640.244C651.28 626.68 644.813 611.276 639.193 602.702C648.93 605.899 665.497 608.176 675.064 591.56C684.656 574.945 674.41 561.744 666.781 554.914C677.002 555.495 693.593 553.388 698.559 534.859C703.524 516.33 690.203 506.23 681.071 501.604C691.099 499.521 706.576 493.175 706.576 474.016C706.576 454.834 691.099 448.512 681.071 446.429C690.203 441.827 703.524 431.703 698.559 413.174C693.593 394.645 677.002 392.538 666.781 393.119C674.41 386.289 684.656 373.088 675.064 356.473C665.473 339.857 648.906 342.11 639.193 345.331C644.813 336.757 651.28 321.352 637.716 307.789C624.152 294.225 608.748 300.692 600.174 306.311C603.371 296.575 605.623 280.008 589.032 270.44C572.417 260.849 559.216 271.094 552.386 278.724C552.967 268.503 550.86 251.911 532.331 246.946C513.802 241.981 503.702 255.302 499.076 264.434C496.993 254.406 490.647 238.929 471.488 238.929C452.305 238.929 445.984 254.406 443.901 264.434C439.299 255.302 429.174 241.981 410.645 246.946C393.739 251.475 390.518 265.693 390.518 275.914C390.518 276.883 390.542 277.828 390.591 278.724C383.76 271.094 370.56 260.849 353.944 270.44C343.53 276.447 340.526 285.191 340.526 293.305C340.526 298.125 341.592 302.702 342.779 306.336C334.204 300.668 318.8 294.201 305.236 307.765ZM390.639 285.53C389.694 285.942 388.75 286.353 387.805 286.765C379.594 277.125 366.491 273.153 358.256 277.9C352.491 281.219 349.246 288.727 349.246 297.011C349.246 300.62 349.9 304.374 351.183 308.007C350.36 308.612 349.512 309.218 348.688 309.823C345.685 303.429 338.54 284.198 356.052 274.098C373.515 264.022 386.57 279.693 390.639 285.53ZM360.387 281.606C366.563 278.046 376.93 281.267 383.785 288.63C373.636 293.45 363.948 299.069 354.792 305.439C351.813 295.8 354.187 285.191 360.387 281.606ZM442.181 271.022C441.164 271.167 440.146 271.312 439.129 271.482C433.704 260.074 422.078 252.832 412.874 255.302C404.299 257.603 398.123 268.236 398.123 279.862C398.123 280.734 398.196 281.606 398.269 282.454C397.3 282.817 396.331 283.205 395.386 283.592C394.127 276.568 392.286 256.271 411.76 251.064C431.185 245.832 439.759 264.312 442.181 271.022ZM434.721 272.208C423.604 274.219 412.801 277.149 402.386 280.879C402.023 270.828 407.061 261.236 413.964 259.396C420.867 257.555 430.022 263.344 434.721 272.208ZM508.207 272.208C512.93 263.319 522.086 257.555 528.964 259.396C535.867 261.236 540.905 270.804 540.542 280.879C530.127 277.149 519.324 274.243 508.207 272.208ZM495.709 270.343C494.692 270.222 493.675 270.101 492.633 269.98C490.332 257.555 480.983 247.552 471.464 247.552C461.945 247.552 452.596 257.555 450.295 269.98C449.278 270.077 448.236 270.222 447.219 270.343C447.824 263.247 451.312 243.168 471.464 243.168C491.616 243.168 495.103 263.247 495.709 270.343ZM471.464 268.914C465.82 268.914 460.25 269.157 454.727 269.593C456.98 259.783 464.319 251.839 471.464 251.839C478.609 251.839 485.948 259.807 488.201 269.593C482.702 269.157 477.107 268.914 471.464 268.914ZM547.59 283.568C546.646 283.18 545.677 282.817 544.708 282.454C545.725 269.835 539.282 257.773 530.078 255.302C520.874 252.832 509.273 260.074 503.823 271.482C502.806 271.312 501.789 271.167 500.771 271.022C503.193 264.312 511.768 245.832 531.217 251.039C550.69 256.247 548.85 276.544 547.59 283.568ZM594.264 309.823C593.44 309.218 592.617 308.612 591.769 308.007C596.056 296.066 592.956 282.672 584.696 277.9C576.437 273.129 563.334 277.125 555.147 286.765C554.202 286.353 553.258 285.942 552.313 285.53C556.382 279.693 569.437 264.022 586.901 274.098C604.388 284.198 597.267 303.429 594.264 309.823ZM582.565 281.606C588.766 285.191 591.139 295.8 588.16 305.439C579.005 299.094 569.316 293.45 559.168 288.63C565.998 281.243 576.364 278.021 582.565 281.606ZM632.557 347.196C631.927 346.397 631.273 345.598 630.619 344.798C637.861 334.359 638.321 320.626 631.588 313.892C624.83 307.135 611.097 307.619 600.682 314.837C599.883 314.183 599.084 313.553 598.284 312.9C603.661 308.346 620.398 296.454 634.713 310.768C649.003 325.083 637.11 341.819 632.557 347.196ZM628.56 316.896C633.623 321.958 633.162 332.857 627.785 341.383C620.543 332.857 612.599 324.913 604.073 317.671C612.623 312.294 623.498 311.834 628.56 316.896ZM659.951 393.167C659.539 392.223 659.127 391.278 658.715 390.333C668.355 382.123 672.328 369.019 667.58 360.784C662.809 352.525 649.415 349.424 637.474 353.712C636.868 352.888 636.263 352.04 635.657 351.241C642.051 348.238 661.283 341.093 671.383 358.604C681.483 376.092 665.788 389.122 659.951 393.167ZM663.874 362.915C667.459 369.116 664.214 379.458 656.85 386.313C652.03 376.164 646.411 366.476 640.041 357.32C649.681 354.341 660.29 356.715 663.874 362.915ZM674.459 444.709C674.314 443.692 674.168 442.675 673.999 441.657C685.407 436.232 692.649 424.606 690.178 415.402C687.708 406.198 675.622 399.755 663.027 400.773C662.663 399.804 662.276 398.859 661.912 397.89C668.937 396.631 689.234 394.79 694.441 414.264C699.649 433.713 681.168 442.287 674.459 444.709ZM686.061 416.492C687.901 423.371 682.137 432.55 673.248 437.249C671.237 426.132 668.307 415.329 664.577 404.914C674.628 404.551 684.22 409.613 686.061 416.492ZM675.113 498.237C675.234 497.22 675.355 496.203 675.476 495.161C687.926 492.86 697.905 483.511 697.905 473.992C697.905 464.473 687.902 455.124 675.476 452.823C675.379 451.806 675.234 450.765 675.113 449.747C682.21 450.353 702.289 453.841 702.289 473.992C702.313 494.144 682.234 497.632 675.113 498.237ZM693.642 473.992C693.642 481.137 685.673 488.476 675.888 490.729C676.324 485.207 676.566 479.636 676.566 473.992C676.566 468.349 676.324 462.778 675.888 457.256C685.673 459.508 693.642 466.871 693.642 473.992ZM661.912 550.118C662.3 549.174 662.663 548.205 663.027 547.236C675.646 548.253 687.708 541.811 690.178 532.607C692.649 523.403 685.407 511.801 673.999 506.351C674.168 505.334 674.314 504.317 674.459 503.3C681.168 505.722 699.649 514.272 694.441 533.745C689.209 553.267 668.912 551.378 661.912 550.118ZM686.061 531.493C684.22 538.396 674.628 543.433 664.577 543.07C668.307 532.655 671.237 521.853 673.248 510.735C682.137 515.458 687.926 524.614 686.061 531.493ZM635.657 596.768C636.263 595.944 636.868 595.121 637.474 594.297C649.415 598.584 662.809 595.484 667.58 587.225C672.352 578.965 668.355 565.862 658.715 557.675C659.127 556.731 659.539 555.786 659.951 554.841C665.788 558.911 681.459 571.966 671.383 589.429C661.259 606.916 642.027 599.795 635.657 596.768ZM663.874 585.093C660.29 591.294 649.681 593.668 640.041 590.688C646.387 581.533 652.03 571.845 656.85 561.696C664.214 568.55 667.459 578.893 663.874 585.093ZM598.26 635.085C599.059 634.455 599.859 633.801 600.658 633.148C611.097 640.39 624.83 640.85 631.564 634.116C638.321 627.359 637.837 613.626 630.595 603.211C631.249 602.411 631.879 601.612 632.533 600.813C637.086 606.19 648.979 622.926 634.664 637.241C620.349 651.555 603.637 639.639 598.26 635.085ZM628.56 631.089C623.498 636.151 612.599 635.715 604.073 630.314C612.599 623.072 620.519 615.127 627.785 606.601C633.187 615.151 633.647 626.027 628.56 631.089ZM552.313 662.479C553.258 662.067 554.202 661.655 555.147 661.244C563.358 670.884 576.461 674.88 584.696 670.109C592.956 665.337 596.056 651.943 591.769 640.002C592.592 639.396 593.44 638.791 594.239 638.185C597.243 644.58 604.388 663.811 586.876 673.911C569.437 683.987 556.358 668.316 552.313 662.479ZM582.565 666.403C576.389 669.987 566.022 666.742 559.168 659.379C569.316 654.559 579.005 648.94 588.16 642.569C591.139 652.209 588.766 662.818 582.565 666.403ZM500.771 676.987C501.789 676.842 502.806 676.697 503.823 676.527C509.249 687.935 520.874 695.177 530.078 692.707C539.282 690.236 545.725 678.15 544.708 665.555C545.677 665.192 546.621 664.804 547.59 664.441C548.85 671.465 550.69 691.762 531.217 696.969C511.719 702.201 503.169 683.696 500.771 676.987ZM540.542 667.105C540.905 677.157 535.867 686.748 528.964 688.589C522.061 690.43 512.906 684.665 508.207 675.776C519.324 673.766 530.127 670.835 540.542 667.105ZM413.964 688.589C407.061 686.748 402.023 677.157 402.386 667.105C412.801 670.835 423.604 673.766 434.721 675.776C430.022 684.665 420.867 690.43 413.964 688.589ZM447.243 677.641C448.26 677.762 449.278 677.883 450.319 678.005C452.62 690.43 461.969 700.433 471.488 700.433C481.007 700.433 490.356 690.43 492.657 678.005C493.674 677.908 494.716 677.762 495.733 677.641C495.128 684.738 491.64 704.817 471.488 704.817C451.264 704.841 447.824 684.738 447.243 677.641ZM471.464 679.095C477.107 679.095 482.678 678.852 488.201 678.416C485.948 688.226 478.609 696.17 471.464 696.17C464.319 696.17 456.98 688.201 454.727 678.416C460.25 678.852 465.845 679.095 471.464 679.095ZM395.362 664.441C396.331 664.828 397.276 665.192 398.244 665.579C398.172 666.451 398.099 667.323 398.099 668.171C398.099 679.797 404.3 690.43 412.85 692.731C422.054 695.201 433.655 687.959 439.105 676.551C440.122 676.721 441.139 676.866 442.157 677.011C439.735 683.721 431.185 702.201 411.711 696.994C392.262 691.762 394.103 671.441 395.362 664.441ZM348.688 638.185C349.512 638.791 350.336 639.396 351.183 640.002C349.875 643.635 349.246 647.365 349.246 650.974C349.246 659.258 352.515 666.766 358.256 670.084C366.515 674.856 379.619 670.859 387.805 661.22C388.75 661.631 389.694 662.043 390.639 662.455C386.57 668.292 373.515 683.963 356.052 673.887C338.492 663.763 345.661 644.556 348.688 638.185ZM360.387 666.403C354.187 662.818 351.813 652.209 354.792 642.569C363.948 648.915 373.636 654.559 383.785 659.379C376.93 666.742 366.588 669.963 360.387 666.403ZM310.395 600.788C311.025 601.588 311.679 602.387 312.333 603.186C308.53 608.66 306.593 615.03 306.593 620.843C306.593 626.099 308.167 630.895 311.388 634.092C318.146 640.85 331.879 640.365 342.318 633.123C343.118 633.777 343.917 634.407 344.716 635.061C339.339 639.614 322.603 651.507 308.288 637.192C293.925 622.878 305.818 606.166 310.395 600.788ZM314.368 631.089C309.305 626.027 309.766 615.127 315.143 606.601C322.385 615.127 330.329 623.072 338.855 630.314C330.329 635.715 319.454 636.151 314.368 631.089ZM283.002 554.841C283.413 555.786 283.825 556.731 284.237 557.675C277.382 563.513 273.362 571.845 273.362 579.135C273.362 582.066 274.016 584.851 275.372 587.225C280.144 595.484 293.538 598.584 305.479 594.297C306.084 595.121 306.69 595.968 307.295 596.768C300.901 599.771 281.669 606.916 271.569 589.405C269.22 585.336 268.275 581.509 268.275 577.972C268.251 566.346 278.521 557.942 283.002 554.841ZM279.078 585.093C275.517 578.893 278.739 568.55 286.102 561.696C290.922 571.845 296.541 581.533 302.911 590.688C293.271 593.668 282.662 591.294 279.078 585.093ZM268.493 503.3C268.639 504.317 268.784 505.334 268.953 506.351C259.047 511.074 252.289 520.448 252.289 528.853C252.289 530.136 252.435 531.396 252.774 532.607C255.244 541.811 267.331 548.253 279.926 547.236C280.289 548.205 280.676 549.15 281.04 550.118C274.016 551.378 253.719 553.219 248.511 533.745C247.881 531.396 247.591 529.192 247.591 527.157C247.591 512.31 262.583 505.431 268.493 503.3ZM256.867 531.493C255.026 524.59 260.791 515.434 269.68 510.735C271.69 521.853 274.621 532.655 278.351 543.07C268.324 543.433 258.732 538.396 256.867 531.493ZM267.815 449.771C267.694 450.789 267.573 451.806 267.452 452.848C255.026 455.148 245.023 464.498 245.023 474.016C245.023 483.535 255.026 492.885 267.452 495.185C267.549 496.203 267.694 497.244 267.815 498.262C260.718 497.656 240.639 494.168 240.639 474.016C240.639 453.792 260.718 450.353 267.815 449.771ZM249.31 473.992C249.31 466.847 257.279 459.508 267.064 457.256C266.604 462.778 266.386 468.349 266.386 473.992C266.386 479.636 266.628 485.207 267.064 490.729C257.279 488.501 249.31 481.137 249.31 473.992ZM471.464 273.177C582.202 273.177 672.279 363.255 672.279 473.992C672.279 584.73 582.202 674.807 471.464 674.807C360.726 674.807 270.649 584.73 270.649 473.992C270.649 363.279 360.75 273.177 471.464 273.177ZM315.167 341.383C309.766 332.857 309.33 321.958 314.392 316.896C319.454 311.834 330.353 312.294 338.879 317.671C330.329 324.937 322.409 332.857 315.167 341.383ZM302.911 357.32C296.565 366.476 290.922 376.164 286.102 386.313C278.714 379.458 275.493 369.116 279.078 362.915C282.662 356.715 293.271 354.341 302.911 357.32ZM278.375 404.914C274.645 415.329 271.715 426.132 269.704 437.249C260.815 432.526 255.051 423.371 256.892 416.492C258.732 409.613 268.324 404.551 278.375 404.914ZM281.04 397.89C280.652 398.835 280.289 399.804 279.926 400.773C267.307 399.755 255.244 406.198 252.774 415.402C252.459 416.613 252.289 417.873 252.289 419.156C252.289 427.561 259.047 436.934 268.953 441.657C268.784 442.675 268.639 443.692 268.493 444.709C261.784 442.287 243.304 433.713 248.511 414.264C253.743 394.742 274.04 396.607 281.04 397.89ZM307.295 351.217C306.69 352.04 306.084 352.864 305.479 353.687C293.538 349.4 280.144 352.5 275.372 360.76C274.016 363.133 273.362 365.895 273.362 368.85C273.362 376.14 277.382 384.472 284.237 390.309C283.825 391.254 283.413 392.198 283.002 393.143C277.164 389.074 261.493 376.019 271.569 358.556C281.669 341.068 300.925 348.213 307.295 351.217ZM344.668 312.924C343.869 313.553 343.069 314.207 342.27 314.861C331.831 307.619 318.098 307.159 311.34 313.917C308.143 317.114 306.544 321.91 306.544 327.165C306.544 332.978 308.482 339.349 312.285 344.823C311.631 345.622 311.001 346.421 310.347 347.22C305.793 341.843 293.901 325.107 308.216 310.792C322.554 296.478 339.291 308.37 344.668 312.924ZM683.639 468.325C680.514 468.325 677.947 470.868 677.947 474.016C677.947 477.141 680.49 479.708 683.639 479.708C686.763 479.708 689.331 477.165 689.331 474.016C689.331 470.868 686.763 468.325 683.639 468.325ZM683.639 472.588C684.414 472.588 685.044 473.217 685.044 473.992C685.044 474.767 684.414 475.397 683.639 475.397C682.864 475.397 682.234 474.767 682.234 473.992C682.234 473.217 682.864 472.588 683.639 472.588ZM677.874 523.427C674.846 522.628 671.722 524.42 670.923 527.448C670.802 527.932 670.729 528.441 670.729 528.925C670.729 531.444 672.4 533.745 674.943 534.423C675.331 534.52 675.694 534.593 676.082 534.617C678.334 534.762 680.49 533.503 681.507 531.493C681.677 531.154 681.822 530.79 681.919 530.427C682.306 528.949 682.113 527.423 681.362 526.116C680.563 524.759 679.352 523.815 677.874 523.427ZM676.784 527.545C677.147 527.642 677.462 527.884 677.632 528.199C677.753 528.417 677.826 528.659 677.826 528.901C677.826 529.022 677.801 529.143 677.777 529.264C677.583 530.015 676.808 530.475 676.033 530.257C675.476 530.112 675.064 529.628 674.992 529.095C674.968 528.901 674.968 528.731 675.016 528.538C675.113 528.174 675.355 527.86 675.67 527.69C676.033 527.496 676.421 527.448 676.784 527.545ZM660.144 582.913C660.895 581.606 661.113 580.08 660.701 578.602C660.605 578.239 660.459 577.875 660.314 577.561C659.83 576.568 659.055 575.72 658.061 575.163C657.068 574.606 655.978 574.339 654.864 574.412C654.501 574.436 654.113 574.509 653.75 574.606C652.273 574.993 651.062 575.938 650.311 577.246C649.802 578.118 649.536 579.087 649.536 580.08C649.536 580.564 649.608 581.073 649.729 581.557C649.826 581.92 649.972 582.284 650.117 582.599C650.601 583.592 651.376 584.439 652.369 584.996C653.362 585.554 654.452 585.82 655.567 585.747C655.93 585.723 656.318 585.65 656.681 585.553C658.158 585.19 659.369 584.246 660.144 582.913ZM654.501 581.315C654.162 581.121 653.944 580.83 653.847 580.467C653.75 580.104 653.799 579.716 653.992 579.401C654.186 579.062 654.477 578.844 654.84 578.747C655.203 578.651 655.591 578.699 655.906 578.893C656.245 579.086 656.463 579.377 656.56 579.741C656.584 579.862 656.608 579.983 656.608 580.104C656.608 580.346 656.536 580.588 656.414 580.806C656.221 581.145 655.93 581.363 655.542 581.46C655.203 581.557 654.84 581.509 654.501 581.315ZM625.823 620.383C625.727 620.262 625.63 620.117 625.533 620.02C624.734 619.221 623.716 618.688 622.626 618.47C622.263 618.397 621.9 618.349 621.512 618.349C619.986 618.349 618.557 618.93 617.492 620.02C616.377 621.134 615.82 622.587 615.82 624.04C615.82 625.494 616.377 626.947 617.492 628.061C618.557 629.127 619.986 629.732 621.512 629.732C623.038 629.732 624.467 629.151 625.533 628.061C627.156 626.463 627.543 623.944 626.744 621.885C626.695 621.739 626.599 621.618 626.55 621.473C626.453 621.279 626.381 621.086 626.259 620.892C626.114 620.698 625.945 620.553 625.823 620.383ZM621.488 622.612C621.875 622.612 622.215 622.757 622.481 623.023C622.747 623.29 622.893 623.653 622.893 624.016C622.893 624.404 622.747 624.743 622.481 625.009C622.215 625.276 621.851 625.421 621.488 625.421C621.1 625.421 620.761 625.276 620.495 625.009C620.35 624.864 620.253 624.719 620.204 624.549C620.132 624.38 620.107 624.186 620.107 624.016C620.107 623.653 620.253 623.29 620.519 623.023C620.761 622.757 621.125 622.612 621.488 622.612ZM579.029 652.258C577.551 651.87 576.025 652.064 574.717 652.815C573.409 653.566 572.465 654.801 572.077 656.254C571.956 656.739 571.884 657.247 571.884 657.732C571.884 658.725 572.15 659.694 572.659 660.565C573.41 661.873 574.645 662.818 576.098 663.206C577.576 663.593 579.102 663.399 580.409 662.648C581.717 661.898 582.662 660.662 583.049 659.209C583.437 657.732 583.243 656.206 582.492 654.898C581.717 653.59 580.482 652.645 579.029 652.258ZM577.915 656.375C578.278 656.472 578.593 656.714 578.762 657.029C578.883 657.247 578.956 657.49 578.956 657.732C578.956 657.853 578.932 657.974 578.908 658.095C578.811 658.458 578.569 658.773 578.254 658.943C577.915 659.137 577.551 659.185 577.188 659.088C576.825 658.991 576.51 658.749 576.34 658.434C576.147 658.095 576.098 657.732 576.195 657.368C576.292 657.005 576.534 656.69 576.849 656.521C577.164 656.327 577.551 656.278 577.915 656.375ZM528.238 673.572C527.196 673.209 526.058 673.16 524.919 673.451C522.376 674.129 520.705 676.43 520.705 678.949C520.705 679.433 520.778 679.918 520.899 680.427C521.286 681.904 522.231 683.115 523.539 683.866C524.847 684.617 526.373 684.835 527.85 684.423C528.601 684.229 529.279 683.866 529.861 683.43C531.314 682.292 532.161 680.499 532.04 678.61C532.016 678.223 531.968 677.859 531.847 677.472C531.362 675.582 529.957 674.153 528.238 673.572ZM527.753 678.562C527.778 678.683 527.802 678.804 527.802 678.925C527.802 679.555 527.39 680.112 526.76 680.281C526.397 680.378 526.009 680.33 525.694 680.136C525.355 679.942 525.137 679.651 525.04 679.288C524.944 678.925 524.992 678.537 525.186 678.222C525.38 677.883 525.67 677.665 526.034 677.569C526.784 677.375 527.56 677.811 527.753 678.562ZM471.464 680.475C468.339 680.475 465.772 683.018 465.772 686.167C465.772 689.291 468.315 691.859 471.464 691.859C474.613 691.859 477.156 689.316 477.156 686.167C477.156 683.042 474.613 680.475 471.464 680.475ZM471.464 684.762C472.239 684.762 472.869 685.392 472.869 686.167C472.869 686.942 472.239 687.572 471.464 687.572C470.689 687.572 470.059 686.942 470.059 686.167C470.059 685.392 470.689 684.762 471.464 684.762ZM422.053 680.402C422.15 680.015 422.223 679.651 422.247 679.264C422.393 676.624 420.697 674.153 418.033 673.451C416.579 673.063 415.029 673.257 413.721 674.008C413.068 674.396 412.51 674.88 412.05 675.461C411.905 675.655 411.784 675.897 411.639 676.115C411.59 676.212 411.517 676.309 411.469 676.406C411.421 676.503 411.396 676.624 411.348 676.721C411.251 676.963 411.13 677.205 411.081 677.472C410.96 677.956 410.888 678.465 410.888 678.949C410.888 681.468 412.559 683.769 415.102 684.447C418.105 685.247 421.23 683.43 422.053 680.402ZM416.749 680.33C416.555 680.354 416.386 680.354 416.192 680.306C415.441 680.112 415.005 679.312 415.199 678.562C415.296 678.198 415.538 677.883 415.853 677.69C416.192 677.496 416.555 677.447 416.919 677.544C417.088 677.593 417.258 677.665 417.379 677.786C417.427 677.811 417.452 677.859 417.5 677.883C417.597 677.956 417.669 678.053 417.742 678.15C417.766 678.198 417.791 678.247 417.815 678.295C417.863 678.392 417.912 678.513 417.936 678.61C417.936 678.659 417.96 678.731 417.96 678.78C417.984 678.949 417.984 679.094 417.936 679.264C417.766 679.869 417.306 680.257 416.749 680.33ZM362.543 662.673C363.851 663.424 365.401 663.641 366.854 663.23C368.332 662.842 369.543 661.898 370.294 660.59C371.868 657.877 370.923 654.389 368.21 652.839C366.903 652.088 365.352 651.87 363.899 652.282C362.422 652.67 361.211 653.614 360.46 654.922C359.951 655.818 359.709 656.787 359.709 657.756C359.709 659.693 360.726 661.607 362.543 662.673ZM364.674 658.967C363.996 658.579 363.778 657.707 364.166 657.029C364.359 656.69 364.65 656.472 365.013 656.375C365.377 656.278 365.764 656.327 366.079 656.521C366.539 656.787 366.781 657.247 366.781 657.756C366.781 657.998 366.709 658.24 366.588 658.458C366.394 658.797 366.103 659.015 365.74 659.112C365.401 659.209 365.013 659.161 364.674 658.967ZM317.419 628.037C319.624 630.241 323.232 630.241 325.461 628.037C327.616 625.881 327.616 622.151 325.461 619.996C323.257 617.792 319.648 617.792 317.419 619.996C316.354 621.061 315.748 622.49 315.748 624.016C315.772 625.542 316.354 626.971 317.419 628.037ZM320.447 625.034C319.914 624.501 319.914 623.556 320.447 623.023C321.004 622.466 321.9 622.466 322.457 623.023C322.99 623.556 322.99 624.501 322.457 625.034C321.9 625.566 321.004 625.566 320.447 625.034ZM286.271 585.578C287.749 585.965 289.275 585.772 290.583 585.021C291.891 584.27 292.835 583.035 293.223 581.581C293.61 580.104 293.417 578.578 292.666 577.27C291.915 575.962 290.68 575.018 289.226 574.63C287.773 574.242 286.223 574.436 284.915 575.187C283.607 575.938 282.662 577.173 282.275 578.626C282.154 579.111 282.081 579.619 282.081 580.104C282.081 581.097 282.348 582.066 282.856 582.938C283.559 584.246 284.794 585.19 286.271 585.578ZM287.361 581.46C286.998 581.363 286.683 581.121 286.489 580.806C286.296 580.467 286.247 580.104 286.344 579.741C286.441 579.377 286.683 579.062 286.998 578.893C287.676 578.505 288.548 578.723 288.936 579.401C289.057 579.619 289.129 579.862 289.129 580.104C289.129 580.225 289.105 580.346 289.081 580.467C288.984 580.83 288.742 581.145 288.427 581.315C288.112 581.509 287.725 581.557 287.361 581.46ZM263.698 533.842C265.005 534.593 266.531 534.811 268.009 534.399C270.649 533.697 272.369 531.226 272.223 528.586C272.199 528.199 272.151 527.835 272.03 527.448C271.23 524.42 268.106 522.628 265.078 523.427C263.601 523.815 262.39 524.759 261.639 526.067C261.13 526.939 260.864 527.908 260.864 528.901C260.864 529.385 260.936 529.894 261.057 530.378C261.445 531.856 262.39 533.067 263.698 533.842ZM266.362 530.306C266.168 530.281 265.999 530.233 265.829 530.136C265.514 529.943 265.272 529.652 265.175 529.288C265.078 528.925 265.127 528.538 265.32 528.223C265.514 527.884 265.805 527.666 266.168 527.569C266.919 527.375 267.694 527.811 267.912 528.562C267.936 528.683 267.96 528.804 267.96 528.925C267.96 529.555 267.549 530.112 266.919 530.306C266.725 530.33 266.531 530.33 266.362 530.306ZM259.314 479.684C262.438 479.684 265.005 477.141 265.005 473.992C265.005 470.868 262.462 468.3 259.314 468.3C256.189 468.3 253.622 470.844 253.622 473.992C253.622 477.141 256.165 479.684 259.314 479.684ZM259.314 475.421C258.539 475.421 257.909 474.792 257.909 474.016C257.909 473.241 258.539 472.612 259.314 472.612C260.089 472.612 260.718 473.241 260.718 474.016C260.718 474.792 260.089 475.421 259.314 475.421ZM265.054 424.582C268.082 425.381 271.206 423.589 272.005 420.561C272.829 417.533 271.012 414.409 267.985 413.61C267.621 413.513 267.258 413.44 266.87 413.416C266.12 413.368 265.393 413.464 264.691 413.707C264.351 413.828 263.988 413.973 263.673 414.167C262.365 414.918 261.421 416.153 261.033 417.606C260.912 418.091 260.84 418.599 260.84 419.084C260.864 421.603 262.535 423.904 265.054 424.582ZM266.168 420.464C265.417 420.27 264.981 419.471 265.175 418.72C265.369 417.97 266.144 417.509 266.919 417.727C267.549 417.897 267.96 418.478 267.96 419.108C267.96 419.229 267.936 419.35 267.912 419.471C267.694 420.198 266.919 420.658 266.168 420.464ZM284.891 372.846C286.199 373.597 287.749 373.815 289.202 373.403C290.68 373.016 291.891 372.071 292.642 370.763C294.071 368.292 293.417 365.216 291.261 363.497C291.043 363.327 290.825 363.134 290.558 362.988C289.565 362.407 288.476 362.165 287.361 362.237C286.998 362.262 286.61 362.334 286.247 362.431C284.77 362.819 283.559 363.763 282.808 365.071C282.299 365.943 282.033 366.912 282.033 367.905C282.033 368.389 282.105 368.898 282.226 369.382C282.638 370.86 283.583 372.071 284.891 372.846ZM287.022 369.14C286.344 368.753 286.126 367.881 286.514 367.203C286.707 366.888 286.998 366.645 287.385 366.549C287.749 366.452 288.136 366.5 288.451 366.694C288.79 366.888 289.008 367.178 289.105 367.542C289.129 367.663 289.154 367.784 289.154 367.905C289.154 368.147 289.081 368.389 288.96 368.607C288.766 368.922 288.476 369.164 288.112 369.261C287.725 369.382 287.361 369.334 287.022 369.14ZM323.596 329.249C324.274 328.982 324.928 328.546 325.485 328.013C327.641 325.858 327.641 322.128 325.485 319.972C323.814 318.301 321.392 317.889 319.333 318.737C318.655 319.003 318.001 319.439 317.444 319.972C316.378 321.038 315.772 322.467 315.772 323.993C315.772 325.518 316.354 326.948 317.444 328.013C319.091 329.66 321.537 330.072 323.596 329.249ZM320.447 324.986C319.914 324.453 319.914 323.508 320.447 322.975C321.004 322.418 321.9 322.418 322.457 322.975C322.99 323.508 322.99 324.453 322.457 324.986C321.9 325.519 321.004 325.519 320.447 324.986ZM367.193 295.654C367.557 295.533 367.896 295.388 368.235 295.194C370.947 293.62 371.868 290.156 370.318 287.443C369.131 285.409 366.903 284.367 364.699 284.658C363.972 284.755 363.245 284.973 362.567 285.385C360.751 286.426 359.733 288.34 359.733 290.326C359.733 291.294 359.975 292.263 360.484 293.159C361.84 295.485 364.674 296.478 367.193 295.654ZM364.166 290.955C363.778 290.277 363.996 289.405 364.674 289.018C365.352 288.63 366.224 288.848 366.612 289.526C366.733 289.72 366.781 289.938 366.781 290.156C366.781 290.229 366.781 290.277 366.757 290.35C366.733 290.519 366.709 290.665 366.636 290.81C366.612 290.858 366.588 290.931 366.539 290.98C366.418 291.173 366.273 291.343 366.079 291.464C365.425 291.876 364.553 291.634 364.166 290.955ZM413.721 273.977C415.029 274.727 416.555 274.945 418.033 274.534C421.06 273.71 422.853 270.61 422.053 267.582C421.351 264.942 418.856 263.223 416.24 263.392C415.853 263.416 415.49 263.465 415.102 263.586C412.559 264.264 410.888 266.565 410.888 269.084C410.888 269.568 410.96 270.053 411.081 270.561C411.469 271.99 412.414 273.226 413.721 273.977ZM415.853 270.295C415.538 270.101 415.296 269.811 415.199 269.447V269.423C415.029 268.696 415.465 267.921 416.192 267.728C416.386 267.679 416.58 267.679 416.749 267.703C417.064 267.752 417.355 267.921 417.573 268.164C417.597 268.188 417.645 268.212 417.67 268.236C417.694 268.285 417.718 268.333 417.742 268.382C417.815 268.503 417.887 268.599 417.912 268.721C417.936 268.842 417.96 268.963 417.96 269.084C417.96 269.714 417.548 270.271 416.919 270.465C416.555 270.537 416.168 270.489 415.853 270.295ZM471.464 267.51C474.588 267.51 477.156 264.966 477.156 261.818C477.156 258.693 474.613 256.126 471.464 256.126C468.315 256.126 465.772 258.669 465.772 261.818C465.796 264.966 468.339 267.51 471.464 267.51ZM471.464 263.247C470.689 263.247 470.059 262.617 470.059 261.842C470.059 261.067 470.689 260.437 471.464 260.437C472.239 260.437 472.869 261.067 472.869 261.842C472.893 262.617 472.263 263.247 471.464 263.247ZM520.899 267.582C520.778 268.067 520.705 268.575 520.705 269.06C520.705 271.579 522.376 273.88 524.919 274.558C526.397 274.945 527.923 274.752 529.231 274.001C530.539 273.25 531.483 272.015 531.871 270.561C531.919 270.368 531.943 270.174 531.968 270.004C531.992 269.811 532.04 269.617 532.065 269.447C532.234 266.807 530.514 264.337 527.85 263.634C524.823 262.762 521.698 264.579 520.899 267.582ZM526.203 267.655C526.397 267.631 526.566 267.631 526.76 267.679C527.123 267.776 527.438 268.018 527.608 268.333C527.729 268.551 527.802 268.793 527.802 269.035C527.802 269.157 527.778 269.278 527.753 269.399C527.656 269.762 527.414 270.077 527.099 270.246C526.784 270.44 526.397 270.489 526.034 270.392C525.477 270.246 525.065 269.762 524.992 269.229C524.968 269.108 524.992 268.963 525.016 268.818C525.016 268.769 525.016 268.721 525.016 268.648C525.162 268.139 525.646 267.727 526.203 267.655ZM580.385 285.336C577.672 283.762 574.185 284.706 572.634 287.419C572.126 288.291 571.859 289.26 571.859 290.253C571.859 290.737 571.932 291.246 572.053 291.73C572.441 293.208 573.385 294.419 574.693 295.17C577.406 296.744 580.894 295.799 582.444 293.087C583.001 292.094 583.267 291.004 583.195 289.89C583.17 289.526 583.098 289.139 583.001 288.775C582.662 287.322 581.717 286.087 580.385 285.336ZM577.721 288.848C577.915 288.872 578.084 288.921 578.254 289.018C578.593 289.211 578.811 289.502 578.908 289.865C578.956 290.011 578.956 290.156 578.932 290.301C578.932 290.519 578.883 290.737 578.762 290.931C578.375 291.609 577.503 291.827 576.825 291.44C576.486 291.246 576.268 290.955 576.171 290.592C576.074 290.229 576.122 289.841 576.316 289.526C576.631 289.042 577.188 288.775 577.721 288.848ZM625.509 319.948C624.443 318.882 623.014 318.276 621.488 318.276C619.962 318.276 618.533 318.858 617.467 319.948C616.353 321.062 615.796 322.515 615.796 323.968C615.796 325.422 616.353 326.875 617.467 327.989C618.533 329.055 619.962 329.66 621.488 329.66C623.014 329.66 624.443 329.079 625.509 327.989C627.664 325.858 627.664 322.103 625.509 319.948ZM622.505 322.975C622.772 323.242 622.917 323.605 622.917 323.968C622.917 324.356 622.772 324.695 622.505 324.961C622.094 325.373 621.488 325.47 620.979 325.276C620.81 325.204 620.64 325.107 620.519 324.961C619.986 324.429 619.986 323.484 620.519 322.951C621.052 322.418 621.948 322.418 622.505 322.975ZM656.681 362.431C655.203 362.043 653.677 362.237 652.369 362.988C651.062 363.739 650.117 364.974 649.729 366.428C649.608 366.912 649.536 367.421 649.536 367.905C649.536 368.898 649.802 369.867 650.311 370.739C651.062 372.047 652.297 372.991 653.75 373.379C654.113 373.476 654.477 373.548 654.864 373.573C655.978 373.645 657.093 373.379 658.061 372.822C659.055 372.265 659.83 371.417 660.314 370.424C660.484 370.085 660.605 369.746 660.701 369.382C661.089 367.905 660.895 366.379 660.144 365.071C659.369 363.763 658.158 362.819 656.681 362.431ZM655.034 366.524C655.228 366.5 655.397 366.524 655.591 366.573C655.954 366.67 656.269 366.912 656.463 367.227C656.584 367.445 656.657 367.687 656.657 367.929C656.657 368.05 656.632 368.171 656.608 368.293C656.511 368.656 656.269 368.971 655.954 369.14C655.785 369.237 655.615 369.286 655.421 369.31C655.228 369.334 655.058 369.31 654.864 369.261C654.501 369.164 654.186 368.922 654.016 368.607C653.629 367.929 653.871 367.057 654.525 366.67C654.67 366.597 654.84 366.549 655.034 366.524ZM674.943 413.61C672.715 414.215 671.165 416.032 670.802 418.163C670.753 418.478 670.729 418.769 670.729 419.084C670.729 419.568 670.802 420.052 670.923 420.561C671.31 422.039 672.255 423.25 673.563 424.025C674.871 424.775 676.421 424.994 677.874 424.582C680.902 423.758 682.694 420.634 681.895 417.63C681.095 414.603 677.971 412.786 674.943 413.61ZM677.777 418.72C677.801 418.841 677.826 418.963 677.826 419.084C677.826 419.713 677.414 420.295 676.784 420.464C676.421 420.561 676.033 420.513 675.718 420.319C675.379 420.125 675.161 419.835 675.064 419.471C674.871 418.696 675.307 417.945 676.057 417.727C676.808 417.509 677.583 417.97 677.777 418.72ZM856.164 476.124H898.792C899.979 476.124 900.924 475.179 900.924 473.992C900.924 472.805 899.979 471.861 898.792 471.861H856.164C854.977 471.861 854.032 472.805 854.032 473.992C854.032 475.179 854.977 476.124 856.164 476.124ZM854.517 509.645L896.976 513.351C898.138 513.448 899.18 512.576 899.277 511.413C899.374 510.251 898.502 509.209 897.339 509.112L854.88 505.407C853.717 505.31 852.676 506.182 852.579 507.344C852.579 507.417 852.579 507.466 852.579 507.538C852.579 508.628 853.403 509.549 854.517 509.645ZM849.939 542.901L891.914 550.312C893.076 550.506 894.19 549.731 894.384 548.593C894.602 547.43 893.803 546.316 892.665 546.122L850.69 538.71C849.527 538.517 848.413 539.292 848.219 540.43C848.195 540.551 848.195 540.672 848.195 540.793C848.195 541.811 848.922 542.731 849.939 542.901ZM883.679 586.668C884.817 586.983 885.98 586.304 886.294 585.166C886.609 584.028 885.931 582.865 884.793 582.55L843.617 571.53C842.479 571.215 841.316 571.893 841.002 573.031C840.953 573.225 840.929 573.395 840.929 573.588C840.929 574.533 841.559 575.405 842.503 575.647L883.679 586.668ZM872.295 622.151C873.409 622.563 874.62 621.982 875.032 620.867C875.419 619.753 874.862 618.542 873.748 618.131L833.687 603.55C832.573 603.138 831.362 603.719 830.95 604.833C830.853 605.076 830.829 605.318 830.829 605.56C830.829 606.432 831.362 607.255 832.234 607.57L872.295 622.151ZM857.859 656.521C858.925 657.029 860.209 656.545 860.693 655.479C861.202 654.413 860.741 653.13 859.651 652.645L821.019 634.625C819.954 634.116 818.67 634.601 818.185 635.666C818.04 635.957 817.992 636.272 817.992 636.563C817.992 637.362 818.452 638.137 819.227 638.5L857.859 656.521ZM840.469 689.509C841.486 690.091 842.794 689.752 843.375 688.734C843.956 687.717 843.617 686.409 842.6 685.828L805.687 664.514C804.67 663.932 803.362 664.271 802.781 665.289C802.587 665.628 802.49 665.991 802.49 666.354C802.49 667.081 802.878 667.808 803.556 668.195L840.469 689.509ZM820.293 720.851C821.261 721.529 822.594 721.287 823.272 720.318C823.95 719.349 823.708 718.017 822.739 717.339L787.812 692.9C786.844 692.222 785.511 692.464 784.833 693.433C784.567 693.797 784.446 694.232 784.446 694.644C784.446 695.322 784.761 695.976 785.366 696.388L820.293 720.851ZM797.452 750.304C798.348 751.055 799.705 750.933 800.456 750.037C801.207 749.141 801.085 747.785 800.189 747.034L767.54 719.64C766.643 718.889 765.287 719.01 764.536 719.907C764.197 720.294 764.028 720.803 764.028 721.287C764.028 721.893 764.294 722.498 764.778 722.934L797.452 750.304ZM772.117 777.673C772.941 778.497 774.297 778.497 775.145 777.673C775.968 776.85 775.968 775.493 775.145 774.646L745.014 744.515C744.191 743.691 742.834 743.691 741.987 744.515C741.575 744.927 741.357 745.484 741.357 746.017C741.357 746.574 741.575 747.107 741.987 747.518L772.117 777.673ZM744.505 802.718C745.256 803.614 746.613 803.735 747.509 802.984C748.405 802.233 748.526 800.877 747.776 799.981L720.382 767.331C719.631 766.435 718.274 766.314 717.378 767.065C716.87 767.476 716.627 768.082 716.627 768.687C716.627 769.172 716.797 769.656 717.136 770.068L744.505 802.718ZM714.835 825.267C715.513 826.236 716.845 826.478 717.814 825.8C718.783 825.122 719.025 823.79 718.347 822.821L693.908 787.895C693.23 786.926 691.898 786.683 690.929 787.362C690.348 787.773 690.009 788.427 690.009 789.106C690.009 789.517 690.13 789.953 690.396 790.317L714.835 825.267ZM686.206 845.928C687.223 845.346 687.587 844.038 686.981 843.021L665.667 806.109C665.086 805.091 663.778 804.728 662.76 805.334C662.082 805.721 661.695 806.448 661.695 807.174C661.695 807.538 661.791 807.901 661.985 808.24L683.299 845.153C683.881 846.146 685.189 846.509 686.206 845.928ZM652.975 863.221C654.041 862.713 654.501 861.453 654.016 860.388L635.996 821.755C635.488 820.69 634.228 820.229 633.162 820.714C632.387 821.077 631.927 821.852 631.927 822.651C631.927 822.942 632 823.257 632.121 823.548L650.141 862.18C650.626 863.246 651.909 863.706 652.975 863.221ZM618.363 877.56C619.478 877.148 620.035 875.937 619.647 874.823L605.042 834.762C604.63 833.648 603.419 833.091 602.305 833.478C601.433 833.793 600.9 834.616 600.9 835.488C600.9 835.731 600.949 835.973 601.021 836.215L615.602 876.276C616.014 877.391 617.249 877.948 618.363 877.56ZM582.613 888.823C583.752 888.508 584.43 887.345 584.115 886.207L573.095 845.031C572.78 843.893 571.617 843.215 570.479 843.53C569.534 843.796 568.904 844.644 568.904 845.589C568.904 845.782 568.929 845.952 568.977 846.146L579.998 887.321C580.312 888.435 581.475 889.113 582.613 888.823ZM546.04 896.937C547.203 896.743 547.978 895.629 547.76 894.466L540.348 852.492C540.154 851.329 539.04 850.554 537.878 850.772C536.836 850.966 536.109 851.862 536.109 852.879C536.109 853 536.109 853.121 536.134 853.242L543.545 895.217C543.787 896.355 544.877 897.13 546.04 896.937ZM508.909 901.805C510.072 901.708 510.944 900.667 510.847 899.504L507.117 857.045C507.02 855.882 505.979 855.01 504.816 855.107C503.702 855.204 502.878 856.125 502.878 857.239C502.878 857.311 502.878 857.36 502.878 857.432L506.584 899.892C506.705 901.054 507.723 901.926 508.909 901.805ZM469.332 901.321C469.332 902.508 470.277 903.452 471.464 903.452C472.651 903.452 473.595 902.508 473.595 901.321V858.692C473.595 857.505 472.651 856.561 471.464 856.561C470.277 856.561 469.332 857.505 469.332 858.692V901.321ZM435.811 857.045L432.105 899.504C432.105 899.577 432.105 899.625 432.105 899.698C432.105 900.788 432.953 901.732 434.043 901.829C435.205 901.926 436.247 901.054 436.344 899.892L440.05 857.432C440.146 856.27 439.275 855.229 438.112 855.132C436.949 855.01 435.932 855.858 435.811 857.045ZM402.58 852.467L395.168 894.442C395.144 894.563 395.144 894.684 395.144 894.805C395.144 895.823 395.871 896.719 396.912 896.913C398.075 897.106 399.189 896.331 399.383 895.193L406.794 853.218C406.988 852.055 406.213 850.941 405.05 850.748C403.888 850.554 402.774 851.329 402.58 852.467ZM369.858 845.031L358.837 886.207C358.789 886.401 358.764 886.57 358.764 886.764C358.764 887.709 359.394 888.581 360.339 888.823C361.477 889.138 362.64 888.459 362.955 887.321L373.975 846.146C374.29 845.007 373.612 843.845 372.473 843.53C371.335 843.215 370.148 843.893 369.858 845.031ZM337.886 834.762L323.305 874.823C323.208 875.065 323.184 875.308 323.184 875.55C323.184 876.422 323.717 877.245 324.589 877.56C325.703 877.972 326.914 877.391 327.326 876.276L341.907 836.215C342.318 835.101 341.737 833.89 340.623 833.478C339.533 833.091 338.298 833.648 337.886 834.762ZM306.956 821.755L288.936 860.388C288.79 860.678 288.742 860.993 288.742 861.284C288.742 862.083 289.202 862.858 289.977 863.221C291.043 863.73 292.302 863.246 292.811 862.18L310.831 823.548C311.34 822.482 310.88 821.222 309.79 820.714C308.724 820.229 307.465 820.69 306.956 821.755ZM277.285 806.084L255.971 842.997C255.777 843.336 255.68 843.699 255.68 844.063C255.68 844.789 256.068 845.516 256.746 845.904C257.763 846.485 259.071 846.146 259.653 845.128L280.967 808.216C281.548 807.199 281.209 805.891 280.192 805.309C279.175 804.728 277.867 805.067 277.285 806.084ZM249.068 787.895L224.629 822.821C224.363 823.184 224.242 823.62 224.242 824.032C224.242 824.71 224.557 825.364 225.162 825.776C226.131 826.454 227.463 826.212 228.141 825.243L252.58 790.317C253.258 789.348 253.016 788.016 252.047 787.337C251.079 786.708 249.746 786.926 249.068 787.895ZM222.571 767.331L195.177 799.981C194.838 800.368 194.668 800.877 194.668 801.361C194.668 801.967 194.935 802.572 195.419 803.008C196.315 803.759 197.672 803.638 198.422 802.742L225.816 770.092C226.567 769.196 226.446 767.84 225.55 767.089C224.678 766.289 223.321 766.411 222.571 767.331ZM197.938 744.515L167.807 774.646C167.395 775.057 167.177 775.614 167.177 776.147C167.177 776.704 167.395 777.237 167.807 777.649C168.631 778.473 169.987 778.473 170.811 777.649L200.941 747.518C201.789 746.695 201.789 745.339 200.941 744.491C200.118 743.667 198.786 743.667 197.938 744.515ZM175.413 719.64L142.763 747.034C142.254 747.446 142.012 748.051 142.012 748.657C142.012 749.141 142.182 749.626 142.521 750.037C143.271 750.933 144.628 751.055 145.524 750.304L178.174 722.91C179.07 722.159 179.191 720.803 178.44 719.907C177.665 719.01 176.309 718.889 175.413 719.64ZM158.095 693.433C157.416 692.464 156.084 692.222 155.115 692.9L120.189 717.339C119.608 717.751 119.269 718.405 119.269 719.083C119.269 719.495 119.39 719.931 119.656 720.294C120.334 721.263 121.667 721.505 122.635 720.827L157.562 696.388C158.531 695.734 158.773 694.402 158.095 693.433ZM137.265 664.489L100.352 685.804C99.674 686.191 99.2864 686.918 99.2864 687.644C99.2864 688.008 99.3833 688.371 99.5771 688.71C100.158 689.727 101.466 690.091 102.484 689.485L139.396 668.171C140.413 667.59 140.777 666.282 140.171 665.264C139.566 664.271 138.282 663.908 137.265 664.489ZM121.933 634.649L83.3007 652.669C82.5257 653.033 82.0655 653.808 82.0655 654.607C82.0655 654.898 82.138 655.213 82.2591 655.503C82.7677 656.569 84.0273 657.029 85.0931 656.545L123.725 638.525C124.791 638.016 125.251 636.756 124.767 635.691C124.258 634.601 122.999 634.141 121.933 634.649ZM109.241 603.574L69.1799 618.155C68.308 618.47 67.7751 619.293 67.7751 620.165C67.7751 620.407 67.8235 620.65 67.8962 620.892C68.3079 622.006 69.519 622.563 70.6331 622.176L110.695 607.595C111.809 607.183 112.366 605.972 111.978 604.858C111.591 603.743 110.355 603.162 109.241 603.574ZM99.3349 571.505L58.1595 582.526C57.2149 582.792 56.5851 583.64 56.5851 584.585C56.5851 584.779 56.6094 584.948 56.6578 585.142C56.9727 586.28 58.1352 586.958 59.2736 586.643L100.449 575.623C101.587 575.308 102.266 574.145 101.951 573.007C101.636 571.869 100.473 571.191 99.3349 571.505ZM92.2623 538.71L50.2877 546.122C49.2462 546.316 48.5195 547.212 48.5195 548.229C48.5195 548.35 48.5195 548.471 48.5437 548.593C48.7375 549.755 49.8517 550.53 51.0143 550.312L92.9891 542.901C94.1517 542.707 94.9267 541.593 94.7329 540.43C94.5149 539.268 93.4249 538.492 92.2623 538.71ZM88.0479 505.407L45.5889 509.112C44.4747 509.209 43.6511 510.13 43.6511 511.244C43.6511 511.317 43.6511 511.365 43.6511 511.438C43.748 512.6 44.7895 513.472 45.9521 513.375L88.4113 509.67C89.5739 509.573 90.4458 508.507 90.3489 507.369C90.2763 506.182 89.2348 505.31 88.0479 505.407ZM86.7885 471.861H44.1598C42.9729 471.861 42.0283 472.805 42.0283 473.992C42.0283 475.179 42.9729 476.124 44.1598 476.124H86.7885C87.9754 476.124 88.9198 475.179 88.9198 473.992C88.9198 472.805 87.9511 471.861 86.7885 471.861ZM88.4355 438.339L45.9763 434.633C44.8137 434.536 43.7722 435.409 43.6753 436.571C43.6753 436.644 43.6753 436.692 43.6753 436.765C43.6753 437.855 44.5232 438.799 45.6131 438.896L88.0722 442.602C89.2348 442.699 90.2763 441.827 90.3732 440.664C90.4701 439.429 89.5981 438.46 88.4355 438.339ZM92.9891 405.108L51.0143 397.697C49.8517 397.503 48.7375 398.278 48.5437 399.441C48.5195 399.562 48.5195 399.683 48.5195 399.804C48.5195 400.821 49.2462 401.717 50.2877 401.911L92.2623 409.323C93.4249 409.516 94.5391 408.741 94.7329 407.579C94.9267 406.416 94.1517 405.302 92.9891 405.108ZM59.2736 361.341C58.1352 361.026 56.9727 361.704 56.6578 362.843C56.6094 363.037 56.5851 363.206 56.5851 363.4C56.5851 364.345 57.2149 365.192 58.1595 365.459L99.3349 376.479C100.473 376.794 101.636 376.116 101.951 374.977C102.266 373.839 101.587 372.677 100.449 372.362L59.2736 361.341ZM70.6574 325.833C69.5432 325.422 68.3322 326.003 67.9204 327.117C67.8235 327.359 67.7993 327.602 67.7993 327.844C67.7993 328.716 68.3322 329.539 69.2042 329.854L109.265 344.435C110.38 344.847 111.591 344.265 112.002 343.151C112.414 342.037 111.833 340.826 110.719 340.414L70.6574 325.833ZM85.0931 291.464C84.0273 290.955 82.7677 291.44 82.2591 292.505C82.1138 292.796 82.0655 293.111 82.0655 293.402C82.0655 294.201 82.5257 294.976 83.3007 295.339L121.933 313.36C122.999 313.868 124.258 313.384 124.767 312.318C125.275 311.252 124.815 309.969 123.725 309.484L85.0931 291.464ZM102.484 258.499C101.466 257.918 100.158 258.257 99.5771 259.275C99.3833 259.614 99.2864 259.977 99.2864 260.34C99.2864 261.067 99.674 261.794 100.352 262.181L137.265 283.495C138.282 284.077 139.59 283.738 140.171 282.72C140.753 281.703 140.413 280.395 139.396 279.814L102.484 258.499ZM122.66 227.158C121.691 226.479 120.359 226.722 119.68 227.69C119.414 228.054 119.293 228.49 119.293 228.901C119.293 229.58 119.608 230.234 120.213 230.645L155.14 255.084C156.109 255.762 157.441 255.52 158.119 254.551C158.797 253.583 158.555 252.25 157.586 251.572L122.66 227.158ZM145.5 197.681C144.604 196.93 143.247 197.051 142.496 197.947C142.157 198.359 141.988 198.844 141.988 199.328C141.988 199.933 142.254 200.539 142.739 200.975L175.388 228.369C176.284 229.12 177.641 228.998 178.392 228.102C179.143 227.206 179.021 225.85 178.125 225.099L145.5 197.681ZM170.811 170.335C169.987 169.512 168.631 169.512 167.807 170.335C167.395 170.747 167.177 171.304 167.177 171.837C167.177 172.394 167.395 172.927 167.807 173.339L197.938 203.47C198.761 204.293 200.118 204.293 200.941 203.47C201.789 202.646 201.789 201.29 200.941 200.466L170.811 170.335ZM198.422 145.291C197.672 144.395 196.315 144.274 195.419 145.025C194.91 145.437 194.668 146.042 194.668 146.672C194.668 147.156 194.838 147.641 195.177 148.052L222.571 180.702C223.321 181.598 224.678 181.719 225.574 180.968C226.47 180.218 226.591 178.861 225.84 177.965L198.422 145.291ZM228.117 122.742C227.439 121.773 226.107 121.555 225.138 122.209C224.557 122.62 224.218 123.274 224.218 123.953C224.218 124.364 224.339 124.8 224.605 125.164L249.044 160.09C249.722 161.059 251.054 161.301 252.023 160.623C252.992 159.945 253.234 158.613 252.556 157.644L228.117 122.742ZM256.746 102.081C256.068 102.469 255.68 103.195 255.68 103.922C255.68 104.285 255.777 104.649 255.971 104.988L277.285 141.9C277.867 142.918 279.175 143.281 280.192 142.675C281.209 142.094 281.573 140.786 280.967 139.769L259.653 102.856C259.071 101.839 257.763 101.5 256.746 102.081ZM289.977 84.7875C289.202 85.1508 288.742 85.9259 288.742 86.7251C288.742 87.0158 288.815 87.3307 288.936 87.6213L306.956 126.254C307.465 127.319 308.724 127.78 309.79 127.295C310.855 126.786 311.316 125.527 310.831 124.461L292.811 85.829C292.327 84.739 291.043 84.2789 289.977 84.7875ZM324.589 70.4487C323.717 70.7636 323.184 71.5872 323.184 72.4591C323.184 72.7013 323.232 72.9435 323.305 73.1857L337.886 113.247C338.298 114.361 339.509 114.918 340.623 114.531C341.737 114.119 342.318 112.908 341.907 111.794L327.326 71.7324C326.914 70.6183 325.703 70.037 324.589 70.4487ZM360.315 59.1861C359.37 59.4525 358.74 60.3002 358.74 61.2448C358.74 61.4386 358.764 61.6082 358.813 61.8019L369.833 102.977C370.148 104.116 371.311 104.794 372.449 104.479C373.587 104.164 374.266 103.002 373.951 101.863L362.93 60.6877C362.64 59.5494 361.453 58.8712 360.315 59.1861ZM396.912 51.0721C395.871 51.2658 395.144 52.162 395.144 53.1793C395.144 53.3004 395.144 53.4215 395.168 53.5426L402.58 95.5173C402.774 96.6799 403.888 97.455 405.05 97.2612C406.213 97.0675 406.988 95.9291 406.794 94.7907L399.383 52.816C399.165 51.6534 398.051 50.8783 396.912 51.0721ZM434.043 46.1795C432.929 46.2764 432.105 47.1968 432.105 48.3109C432.105 48.3836 432.105 48.432 432.105 48.5047L435.811 90.9638C435.908 92.1264 436.949 92.9984 438.112 92.9015C439.275 92.8046 440.146 91.7873 440.05 90.6005L436.344 48.1414C436.247 46.9545 435.205 46.0826 434.043 46.1795ZM471.464 44.5566C470.277 44.5566 469.332 45.5013 469.332 46.6881V89.3168C469.332 90.5036 470.277 91.4482 471.464 91.4482C472.651 91.4482 473.595 90.5036 473.595 89.3168V46.6881C473.595 45.5013 472.651 44.5566 471.464 44.5566ZM507.117 90.9638L510.823 48.5047C510.92 47.2694 510.048 46.3006 508.885 46.2037C507.723 46.1068 506.681 46.9788 506.584 48.1414L502.878 90.6005C502.878 90.6732 502.878 90.7216 502.878 90.7943C502.878 91.8842 503.726 92.8288 504.816 92.9257C505.979 92.9983 507.02 92.1264 507.117 90.9638ZM540.372 95.5173L547.784 53.5426C548.002 52.4042 547.203 51.2658 546.064 51.0721C544.902 50.8783 543.787 51.6534 543.594 52.816L536.182 94.7907C536.158 94.9118 536.158 95.0329 536.158 95.154C536.158 96.1713 536.884 97.0675 537.926 97.2612C539.064 97.455 540.178 96.6799 540.372 95.5173ZM573.095 102.977L584.115 61.8019C584.43 60.6636 583.752 59.5009 582.613 59.1861C581.475 58.8712 580.312 59.5494 579.998 60.6877L568.977 101.863C568.929 102.057 568.904 102.227 568.904 102.42C568.904 103.365 569.534 104.213 570.479 104.479C571.617 104.794 572.804 104.116 573.095 102.977ZM605.042 113.247L619.623 73.1857C620.035 72.0715 619.453 70.8605 618.339 70.4487C617.225 70.037 616.014 70.6183 615.602 71.7324L601.021 111.794C600.924 112.036 600.9 112.278 600.9 112.52C600.9 113.392 601.433 114.216 602.305 114.531C603.419 114.918 604.654 114.337 605.042 113.247ZM635.972 126.254L653.992 87.6213C654.501 86.5556 654.041 85.2719 652.951 84.7875C651.885 84.2789 650.601 84.7633 650.117 85.829L632.097 124.461C631.951 124.752 631.903 125.067 631.903 125.357C631.903 126.157 632.363 126.932 633.138 127.295C634.228 127.78 635.488 127.319 635.972 126.254ZM665.667 141.924L686.981 105.012C687.562 103.995 687.223 102.687 686.206 102.105C685.189 101.524 683.881 101.863 683.299 102.88L661.985 139.793C661.791 140.132 661.695 140.495 661.695 140.859C661.695 141.585 662.082 142.312 662.76 142.7C663.778 143.281 665.086 142.942 665.667 141.924ZM693.86 160.114L718.299 125.188C718.977 124.219 718.735 122.887 717.766 122.209C716.797 121.53 715.465 121.773 714.787 122.742L690.348 157.668C690.081 158.031 689.96 158.467 689.96 158.879C689.96 159.557 690.275 160.211 690.881 160.623C691.874 161.301 693.206 161.059 693.86 160.114ZM720.382 180.678L747.776 148.028C748.526 147.132 748.405 145.776 747.509 145.025C746.613 144.274 745.256 144.395 744.505 145.291L717.112 177.941C716.773 178.353 716.603 178.837 716.603 179.321C716.603 179.927 716.87 180.533 717.354 180.968C718.274 181.695 719.631 181.574 720.382 180.678ZM744.99 203.494L775.121 173.363C775.944 172.54 775.944 171.183 775.121 170.36C774.297 169.536 772.941 169.536 772.093 170.36L741.962 200.49C741.551 200.902 741.333 201.459 741.333 201.992C741.333 202.549 741.551 203.082 741.962 203.494C742.81 204.317 744.167 204.317 744.99 203.494ZM767.54 228.369L800.189 200.975C801.085 200.224 801.207 198.868 800.456 197.972C799.705 197.075 798.348 196.954 797.452 197.705L764.803 225.099C764.294 225.511 764.052 226.116 764.052 226.746C764.052 227.23 764.221 227.715 764.56 228.127C765.287 228.998 766.643 229.12 767.54 228.369ZM784.858 254.576C785.536 255.544 786.868 255.762 787.837 255.108L822.763 230.67C823.732 229.992 823.974 228.659 823.296 227.69C822.618 226.722 821.286 226.504 820.317 227.158L785.39 251.597C784.809 252.008 784.47 252.662 784.47 253.34C784.47 253.776 784.591 254.212 784.858 254.576ZM805.687 283.495L842.6 262.181C843.617 261.6 843.981 260.292 843.375 259.275C842.794 258.257 841.486 257.894 840.469 258.499L803.556 279.814C802.878 280.201 802.49 280.928 802.49 281.655C802.49 282.018 802.587 282.381 802.781 282.72C803.362 283.738 804.67 284.101 805.687 283.495ZM821.019 313.36L859.651 295.339C860.717 294.831 861.178 293.571 860.693 292.505C860.185 291.44 858.925 290.98 857.859 291.464L819.227 309.484C818.452 309.848 817.992 310.623 817.992 311.422C817.992 311.713 818.064 312.027 818.185 312.318C818.694 313.384 819.954 313.844 821.019 313.36ZM833.687 344.435L873.748 329.854C874.862 329.442 875.419 328.231 875.032 327.117C874.62 326.003 873.409 325.446 872.295 325.833L832.234 340.414C831.362 340.729 830.829 341.553 830.829 342.425C830.829 342.667 830.877 342.909 830.95 343.151C831.362 344.265 832.597 344.847 833.687 344.435ZM843.617 376.503L884.793 365.483C885.931 365.168 886.609 364.005 886.294 362.867C885.98 361.729 884.817 361.05 883.679 361.365L842.503 372.386C841.559 372.652 840.929 373.5 840.929 374.445C840.929 374.638 840.953 374.808 841.002 375.002C841.292 376.116 842.479 376.794 843.617 376.503ZM850.69 409.298L892.665 401.887C893.827 401.693 894.602 400.579 894.384 399.416C894.19 398.254 893.076 397.479 891.914 397.672L849.939 405.084C848.897 405.278 848.171 406.174 848.171 407.191C848.171 407.312 848.171 407.433 848.195 407.554C848.413 408.741 849.527 409.492 850.69 409.298ZM854.88 442.602L897.339 438.896C898.502 438.799 899.374 437.806 899.277 436.595C899.18 435.433 898.138 434.561 896.976 434.658L854.517 438.363C853.403 438.46 852.579 439.381 852.579 440.495C852.579 440.568 852.579 440.616 852.579 440.689C852.676 441.827 853.717 442.699 854.88 442.602ZM758.99 632.59C758.99 625.494 753.225 619.753 746.153 619.753C739.08 619.753 733.315 625.518 733.315 632.59C733.315 639.663 739.08 645.427 746.153 645.427C753.225 645.427 758.99 639.663 758.99 632.59ZM746.153 641.165C741.43 641.165 737.578 637.314 737.578 632.59C737.578 627.867 741.43 624.016 746.153 624.016C750.876 624.016 754.727 627.867 754.727 632.59C754.727 637.314 750.876 641.165 746.153 641.165ZM772.602 655.164C776.744 655.164 780.086 651.798 780.086 647.68C780.086 643.538 776.719 640.196 772.602 640.196C768.484 640.196 765.117 643.562 765.117 647.68C765.117 651.822 768.46 655.164 772.602 655.164ZM772.602 650.901C770.834 650.901 769.38 649.448 769.38 647.68C769.38 645.912 770.834 644.459 772.602 644.459C774.37 644.459 775.823 645.912 775.823 647.68C775.823 649.472 774.37 650.901 772.602 650.901ZM727.672 484.601C726.97 484.238 726.146 484.31 725.492 484.746C724.911 485.158 724.572 485.812 724.572 486.515C724.572 486.587 724.572 486.66 724.572 486.732C724.862 489.663 727.721 515.458 738.354 520.424C740.606 521.465 744.239 522.071 748.817 518.946C753.395 515.822 754.17 512.213 754.024 509.742C753.274 497.995 730.288 485.933 727.672 484.601ZM729.343 490.366C737.046 494.822 749.326 503.3 749.762 509.96C749.762 510.057 749.762 510.178 749.762 510.275C749.762 512.164 748.672 513.836 746.395 515.362C744.021 516.984 741.962 517.348 740.146 516.5C734.115 513.69 730.7 499.182 729.343 490.366ZM722.61 472.127C721.932 472.491 721.496 473.217 721.496 473.992C721.496 474.767 721.932 475.494 722.61 475.857C725.856 477.625 754.703 492.957 767.225 485.521C770.955 483.293 772.868 479.418 772.868 473.992C772.868 468.567 770.979 464.692 767.225 462.463C754.678 455.027 725.856 470.359 722.61 472.127ZM765.021 466.145C767.419 467.574 768.581 470.141 768.581 474.016C768.581 477.892 767.419 480.459 765.021 481.888C757.246 486.514 738.329 478.982 728.253 474.016C738.354 469.051 757.27 461.519 765.021 466.145ZM748.817 429.087C744.239 425.962 740.606 426.544 738.354 427.609C727.721 432.575 724.862 458.37 724.572 461.301C724.572 461.373 724.572 461.446 724.572 461.519C724.572 462.221 724.911 462.875 725.492 463.287C726.146 463.723 726.97 463.771 727.672 463.432C730.288 462.1 753.274 450.014 754.024 438.315C754.194 435.82 753.395 432.211 748.817 429.087ZM746.419 432.623C748.672 434.173 749.786 435.82 749.786 437.709C749.786 437.806 749.786 437.927 749.786 438.024C749.374 444.709 737.094 453.162 729.368 457.619C730.7 448.827 734.115 434.294 740.194 431.46C741.987 430.613 744.045 431 746.419 432.623ZM458.627 791.189C458.627 793.368 459.184 795.573 460.347 797.583C463.883 803.711 471.755 805.818 477.907 802.282C480.886 800.562 482.993 797.801 483.889 794.483C484.785 791.164 484.325 787.701 482.606 784.722C479.069 778.594 471.198 776.487 465.046 780.023C460.928 782.421 458.627 786.756 458.627 791.189ZM478.9 786.877C479.675 788.209 480.062 789.663 480.062 791.164C480.062 791.915 479.966 792.666 479.772 793.393C479.191 795.597 477.761 797.462 475.775 798.6C471.682 800.974 466.426 799.569 464.052 795.451C461.679 791.358 463.084 786.102 467.201 783.728C471.27 781.379 476.55 782.784 478.9 786.877ZM467.879 815.143C466.135 816.136 464.9 817.759 464.391 819.697C464.222 820.35 464.125 821.004 464.125 821.634C464.125 822.942 464.464 824.226 465.142 825.364C466.135 827.108 467.758 828.343 469.696 828.852C471.634 829.361 473.644 829.094 475.388 828.101C477.132 827.108 478.367 825.485 478.875 823.548C479.384 821.61 479.118 819.6 478.125 817.856C476.042 814.295 471.464 813.06 467.879 815.143ZM472.457 818.51C473.281 818.728 473.983 819.261 474.419 820.011C474.71 820.496 474.855 821.053 474.855 821.61C474.855 821.901 474.806 822.167 474.734 822.458C474.516 823.281 473.983 823.984 473.232 824.42C472.481 824.856 471.609 824.952 470.786 824.734C469.962 824.516 469.26 823.984 468.824 823.233C468.388 822.482 468.267 821.61 468.509 820.786C468.727 819.963 469.26 819.26 470.011 818.824C470.762 818.388 471.634 818.292 472.457 818.51ZM589.202 699.367C588.499 699.028 587.676 699.101 587.022 699.561C584.696 701.232 564.69 715.934 564.69 727.512C564.69 727.803 564.714 728.069 564.738 728.36C564.956 730.83 566.264 734.27 571.254 736.667C576.243 739.065 579.755 737.951 581.814 736.571C591.575 730.079 590.558 704.139 590.388 701.208C590.364 700.385 589.904 699.706 589.202 699.367ZM586.222 705.519C586.222 714.408 585.011 729.28 579.44 732.986C577.769 734.1 575.686 734.027 573.095 732.792C570.503 731.557 569.147 729.958 568.977 727.948C568.396 721.287 579.295 711.09 586.222 705.519ZM598.648 690.551C597.969 690.139 597.146 690.139 596.468 690.527C595.814 690.914 595.402 691.617 595.402 692.367C595.402 692.392 595.402 692.392 595.402 692.416C595.499 696.122 596.637 728.747 609.353 735.868C613.156 737.999 617.467 737.709 622.166 734.996C626.865 732.283 629.287 728.699 629.336 724.339V724.194C629.336 709.661 601.796 692.464 598.648 690.551ZM599.883 696.388C609.159 702.613 625.073 715.159 625.073 724.194V724.291C625.048 727.076 623.401 729.353 620.035 731.29C616.692 733.228 613.883 733.519 611.461 732.138C603.565 727.73 600.634 707.602 599.883 696.388ZM645.103 681.953C635.487 675.219 611.727 685.658 609.038 686.869C608.336 687.184 607.852 687.887 607.779 688.662C607.779 688.71 607.779 688.759 607.779 688.831C607.779 689.558 608.142 690.236 608.748 690.624C611.218 692.222 633.162 706.101 643.674 700.869C645.903 699.779 648.615 697.309 649.027 691.762C649.439 686.191 647.114 683.357 645.103 681.953ZM642.657 685.44C644.304 686.603 645.006 688.565 644.788 691.423C644.57 694.281 643.602 696.122 641.785 697.018C635.802 699.997 622.311 693.603 614.609 689.146C622.893 685.901 637.159 681.589 642.657 685.44ZM203.218 621.449C200.239 619.729 196.775 619.269 193.457 620.165C190.139 621.061 187.378 623.168 185.658 626.148C184.52 628.134 183.938 630.314 183.938 632.542C183.938 633.656 184.084 634.77 184.374 635.884C185.27 639.203 187.378 641.964 190.357 643.684C196.485 647.22 204.356 645.113 207.917 638.985C211.477 632.881 209.37 625.009 203.218 621.449ZM201.087 625.155C205.18 627.528 206.585 632.784 204.235 636.877C201.862 640.971 196.606 642.376 192.512 640.026C190.526 638.888 189.097 637.023 188.516 634.819C187.935 632.615 188.225 630.289 189.364 628.303C190.502 626.317 192.367 624.888 194.571 624.307C196.8 623.701 199.1 624.016 201.087 625.155ZM174.25 641.455C172.506 640.462 170.496 640.196 168.558 640.704C166.62 641.213 165.022 642.473 164.004 644.192C163.326 645.355 162.987 646.638 162.987 647.922C162.987 648.576 163.084 649.23 163.254 649.884C163.762 651.822 165.022 653.42 166.741 654.438C168.485 655.431 170.496 655.697 172.433 655.188C174.371 654.68 175.97 653.42 176.987 651.701C179.046 648.116 177.81 643.514 174.25 641.455ZM172.119 645.137C173.669 646.033 174.177 647.995 173.305 649.545C172.869 650.296 172.167 650.829 171.343 651.047C170.52 651.265 169.648 651.144 168.897 650.732C168.146 650.296 167.613 649.618 167.395 648.77C167.177 647.946 167.274 647.074 167.71 646.324C168.146 645.573 168.849 645.04 169.672 644.822C170.496 644.604 171.368 644.725 172.119 645.137ZM334.204 690.575C334.858 690.163 335.222 689.413 335.173 688.613C335.125 687.838 334.64 687.16 333.914 686.821C331.225 685.61 307.465 675.195 297.849 681.904C295.984 683.212 293.853 685.731 293.853 690.43C293.853 690.842 293.877 691.253 293.901 691.689C294.313 697.212 297.05 699.682 299.254 700.796C309.79 706.052 331.734 692.174 334.204 690.575ZM301.167 697.018C299.351 696.122 298.382 694.281 298.164 691.423C297.946 688.565 298.648 686.603 300.295 685.44C305.769 681.589 320.059 685.901 328.343 689.146C320.641 693.578 307.174 699.997 301.167 697.018ZM347.526 692.416C347.526 691.641 347.138 690.914 346.46 690.527C345.782 690.139 344.959 690.139 344.28 690.551C341.132 692.464 313.617 709.685 313.617 724.218V724.363C313.665 728.723 316.087 732.308 320.786 735.02C325.485 737.733 329.796 738.024 333.599 735.892C346.291 728.747 347.453 696.122 347.526 692.416ZM322.918 731.315C319.575 729.377 317.928 727.076 317.88 724.315V724.218C317.88 715.183 333.793 702.637 343.069 696.412C342.318 707.602 339.388 727.754 331.492 732.187C329.07 733.519 326.26 733.252 322.918 731.315ZM361.114 736.546C363.173 737.927 366.685 739.041 371.674 736.643C376.664 734.245 377.972 730.806 378.19 728.335C379.158 716.612 358.28 701.256 355.906 699.561C355.277 699.101 354.453 699.028 353.726 699.367C353.024 699.706 352.564 700.409 352.515 701.184C352.491 701.814 352.419 703.461 352.419 705.762C352.443 714.239 353.436 731.436 361.114 736.546ZM363.487 732.986C357.917 729.28 356.73 714.408 356.706 705.519C363.463 710.945 373.975 720.779 373.975 727.439C373.975 727.609 373.975 727.803 373.951 727.972C373.781 729.982 372.425 731.557 369.833 732.816C367.242 734.052 365.159 734.1 363.487 732.986ZM183.938 315.418C183.938 322.515 189.703 328.28 196.775 328.28C203.848 328.28 209.612 322.515 209.612 315.418C209.612 308.346 203.848 302.581 196.775 302.581C189.703 302.557 183.938 308.346 183.938 315.418ZM196.8 306.844C201.523 306.844 205.374 310.695 205.374 315.418C205.374 320.141 201.523 323.993 196.8 323.993C192.077 323.993 188.225 320.141 188.225 315.418C188.225 310.695 192.077 306.844 196.8 306.844ZM170.35 292.82C166.209 292.82 162.866 296.187 162.866 300.305C162.866 304.446 166.233 307.789 170.35 307.789C174.492 307.789 177.835 304.422 177.835 300.305C177.835 296.187 174.468 292.82 170.35 292.82ZM170.35 297.083C172.119 297.083 173.572 298.537 173.572 300.305C173.572 302.073 172.119 303.526 170.35 303.526C168.582 303.526 167.129 302.073 167.129 300.305C167.129 298.537 168.582 297.083 170.35 297.083ZM215.28 463.408C215.983 463.771 216.806 463.723 217.46 463.262C218.114 462.826 218.477 462.076 218.38 461.276C218.09 458.346 215.232 432.55 204.599 427.585C202.346 426.544 198.713 425.938 194.135 429.063C189.897 431.945 188.928 435.239 188.928 437.685C188.928 437.879 188.928 438.073 188.952 438.267C189.654 449.989 212.64 462.076 215.28 463.408ZM213.585 457.619C205.882 453.162 193.602 444.685 193.166 438C193.045 436.014 194.135 434.222 196.509 432.599C198.883 430.976 200.917 430.613 202.758 431.46C208.837 434.319 212.252 448.827 213.585 457.619ZM220.342 475.882C221.02 475.518 221.456 474.792 221.456 474.016C221.456 473.241 221.02 472.515 220.342 472.152C217.097 470.383 188.274 455.052 175.727 462.487C171.997 464.716 170.084 468.591 170.084 474.016C170.084 479.442 171.973 483.317 175.727 485.546C188.274 492.957 217.097 477.65 220.342 475.882ZM177.907 481.864C175.51 480.435 174.347 477.868 174.347 473.992C174.347 470.117 175.51 467.549 177.907 466.12C185.682 461.494 204.599 469.027 214.675 473.992C204.599 478.958 185.682 486.466 177.907 481.864ZM194.111 518.898C198.689 522.022 202.322 521.441 204.574 520.375C215.207 515.41 218.065 489.615 218.356 486.684C218.429 485.909 218.09 485.158 217.436 484.698C216.782 484.262 215.958 484.214 215.256 484.553C212.64 485.885 189.654 497.971 188.904 509.67C188.879 509.863 188.879 510.057 188.879 510.251C188.904 512.721 189.897 516.016 194.111 518.898ZM196.533 515.386C194.16 513.763 193.07 511.995 193.191 509.985C193.602 503.3 205.907 494.822 213.609 490.366C212.277 499.158 208.862 513.69 202.782 516.524C200.941 517.372 198.907 517.009 196.533 515.386ZM482.606 150.402C480.886 147.423 478.125 145.291 474.806 144.419C471.488 143.523 468.025 143.983 465.046 145.703C462.066 147.423 459.935 150.184 459.063 153.502C458.772 154.616 458.627 155.73 458.627 156.844C458.627 159.073 459.208 161.277 460.347 163.239C463.883 169.367 471.755 171.474 477.907 167.938C484.035 164.426 486.142 156.53 482.606 150.402ZM464.028 161.132C462.89 159.145 462.575 156.844 463.18 154.616C463.762 152.412 465.191 150.547 467.177 149.409C469.163 148.27 471.464 147.955 473.692 148.561C475.896 149.166 477.761 150.571 478.9 152.557C481.273 156.651 479.844 161.907 475.751 164.28C471.658 166.63 466.402 165.225 464.028 161.132ZM469.381 133.617C471.319 134.125 473.329 133.859 475.073 132.866C476.793 131.873 478.052 130.25 478.561 128.312C479.069 126.375 478.803 124.364 477.81 122.621C476.817 120.877 475.194 119.641 473.256 119.133C471.319 118.624 469.308 118.891 467.564 119.884C465.167 121.264 463.81 123.783 463.81 126.375C463.81 127.634 464.125 128.942 464.803 130.105C465.845 131.849 467.443 133.108 469.381 133.617ZM470.495 129.499C469.672 129.281 468.969 128.748 468.533 127.997C467.637 126.447 468.17 124.485 469.72 123.589C470.471 123.153 471.343 123.032 472.166 123.274C472.99 123.492 473.692 124.025 474.128 124.776C474.564 125.527 474.685 126.399 474.443 127.222C474.225 128.046 473.692 128.748 472.941 129.184C472.191 129.596 471.319 129.717 470.495 129.499ZM371.674 211.366C366.685 208.968 363.173 210.082 361.114 211.463C353.412 216.573 352.419 233.77 352.419 242.271C352.419 244.572 352.491 246.219 352.515 246.849C352.564 247.624 353.024 248.327 353.726 248.666C354.429 249.005 355.252 248.932 355.906 248.472C358.304 246.752 379.183 231.396 378.19 219.698C377.996 217.203 376.688 213.763 371.674 211.366ZM369.833 215.193C372.425 216.452 373.781 218.026 373.951 220.037C373.975 220.206 373.975 220.376 373.975 220.57C373.975 227.23 363.487 237.064 356.706 242.489C356.706 233.6 357.917 218.729 363.487 215.023C365.159 213.885 367.242 213.957 369.833 215.193ZM333.599 212.116C329.796 209.985 325.485 210.276 320.786 212.989C316.087 215.701 313.665 219.286 313.617 223.646V223.791C313.617 238.323 341.132 255.545 344.28 257.458C344.934 257.87 345.782 257.87 346.46 257.482C347.138 257.095 347.526 256.441 347.526 255.593C347.453 251.887 346.291 219.262 333.599 212.116ZM331.492 215.847C339.388 220.279 342.318 240.406 343.069 251.621C333.793 245.396 317.88 232.85 317.88 223.815V223.718C317.904 220.933 319.551 218.656 322.918 216.718C326.26 214.757 329.07 214.49 331.492 215.847ZM334.204 257.409C331.734 255.811 309.79 241.932 299.278 247.164C297.05 248.254 294.337 250.725 293.925 256.271C293.901 256.707 293.877 257.119 293.877 257.531C293.877 262.229 296.008 264.748 297.873 266.056C307.489 272.79 331.25 262.35 333.938 261.139C334.64 260.825 335.125 260.146 335.198 259.347C335.222 258.572 334.858 257.845 334.204 257.409ZM328.343 258.863C320.059 262.108 305.769 266.42 300.295 262.569C298.648 261.406 297.946 259.468 298.164 256.586C298.382 253.728 299.351 251.887 301.167 250.991C307.174 248.012 320.641 254.406 328.343 258.863ZM739.734 326.536C745.862 330.072 753.734 327.965 757.294 321.837C759.014 318.858 759.474 315.394 758.578 312.076C757.682 308.758 755.575 305.997 752.595 304.277C749.616 302.557 746.153 302.097 742.834 302.993C739.516 303.889 736.755 305.996 735.035 308.976C733.873 310.986 733.315 313.19 733.315 315.37C733.291 319.851 735.617 324.162 739.734 326.536ZM741.866 322.854C737.772 320.481 736.367 315.225 738.717 311.131C739.855 309.145 741.72 307.716 743.924 307.135C746.128 306.554 748.454 306.844 750.44 307.983C752.426 309.121 753.855 310.986 754.436 313.19C754.63 313.917 754.727 314.692 754.727 315.418C754.727 316.896 754.339 318.373 753.564 319.706C751.215 323.799 745.959 325.228 741.866 322.854ZM768.702 306.554C772.287 308.612 776.865 307.377 778.924 303.817C779.917 302.073 780.183 300.062 779.674 298.125C779.166 296.187 777.906 294.588 776.187 293.571C772.602 291.512 768.024 292.748 765.965 296.308C765.287 297.495 764.972 298.779 764.972 300.038C764.948 302.63 766.304 305.149 768.702 306.554ZM770.834 302.848C769.283 301.952 768.751 299.99 769.647 298.44C770.543 296.889 772.505 296.381 774.055 297.253C774.806 297.689 775.339 298.391 775.557 299.215C775.629 299.481 775.678 299.772 775.678 300.062C775.678 300.619 775.533 301.177 775.242 301.661C774.346 303.211 772.384 303.744 770.834 302.848ZM607.779 259.202C607.779 259.25 607.779 259.299 607.779 259.371C607.827 260.146 608.312 260.825 609.038 261.164C611.727 262.375 635.487 272.79 645.103 266.081C647.138 264.652 649.463 261.794 649.051 256.271C648.639 250.749 645.903 248.278 643.698 247.164C633.187 241.957 611.242 255.811 608.772 257.409C608.142 257.821 607.779 258.499 607.779 259.202ZM614.585 258.863C622.287 254.43 635.778 248.012 641.761 250.991C643.577 251.887 644.546 253.728 644.764 256.586C644.788 256.925 644.813 257.24 644.813 257.555C644.813 259.904 644.11 261.527 642.633 262.569C637.159 266.395 622.893 262.084 614.585 258.863ZM694.393 251.572C659.757 203.349 649.1 183.56 654.283 161.446C654.501 160.526 654.089 159.581 653.266 159.121C652.442 158.661 651.425 158.758 650.747 159.412C634.18 174.937 611.727 175.616 552.628 169.754C503.508 164.862 478.343 209.089 471.464 223.621C464.561 209.065 439.42 164.862 390.3 169.754C331.225 175.616 308.748 174.962 292.181 159.412C291.503 158.758 290.462 158.661 289.662 159.121C288.839 159.581 288.451 160.526 288.645 161.446C293.804 183.56 283.171 203.349 248.535 251.572C238.774 265.16 235.262 279.208 235.262 292.336C235.262 317.913 248.535 340.051 254.59 348.819C238.532 347.511 187.692 347.196 167.347 392.174C142.884 446.284 131.088 465.394 109.338 471.982C108.442 472.248 107.812 473.072 107.812 474.016C107.812 474.961 108.418 475.785 109.338 476.051C131.088 482.639 142.884 501.749 167.347 555.859C187.692 600.837 238.532 600.522 254.59 599.214C248.535 607.982 235.262 630.096 235.262 655.697C235.262 668.825 238.75 682.849 248.511 696.461C283.147 744.685 293.78 764.473 288.621 786.586C288.403 787.507 288.815 788.452 289.638 788.912C290.462 789.372 291.479 789.275 292.157 788.621C308.724 773.096 331.177 772.417 390.276 778.279C439.42 783.171 464.561 738.968 471.44 724.412C478.343 738.968 503.484 783.171 552.604 778.279C611.678 772.417 634.155 773.071 650.722 788.621C651.401 789.275 652.442 789.372 653.242 788.912C654.065 788.452 654.477 787.483 654.259 786.586C649.1 764.473 659.733 744.685 694.368 696.461C723.167 656.351 697.469 612.487 688.289 599.214C704.347 600.522 755.187 600.837 775.533 555.859C799.996 501.749 811.791 482.639 833.541 476.051C834.438 475.785 835.067 474.961 835.067 474.016C835.067 473.072 834.462 472.248 833.541 471.982C811.791 465.394 799.996 446.284 775.533 392.174C755.187 347.196 704.347 347.511 688.289 348.819C697.493 335.546 723.191 291.658 694.393 251.572ZM687.078 594.806C690.711 588.363 694.054 581.727 697.105 574.945C704.808 574.582 743.488 571.215 755.768 541.617C766.159 516.524 782.024 482.445 799.56 476.003C800.407 475.688 800.964 474.888 800.964 473.992C800.964 473.096 800.407 472.297 799.56 471.982C782.024 465.539 766.183 431.46 755.768 406.368C743.513 376.77 704.808 373.403 697.105 373.04C694.054 366.258 690.687 359.621 687.078 353.179C700.036 351.895 751.724 349.691 771.706 393.918C793.117 441.27 805.615 464.764 826.808 473.992C805.639 483.22 793.117 506.715 771.706 554.066C751.675 598.342 700.036 596.114 687.078 594.806ZM751.82 408.015C762.55 433.907 776.816 464.11 793.843 473.992C776.816 483.874 762.55 514.078 751.82 539.97C741.551 564.772 709.458 569.592 699.043 570.512C711.662 540.842 718.662 508.216 718.662 473.992C718.662 439.768 711.662 407.143 699.043 377.472C709.458 378.393 741.551 383.213 751.82 408.015ZM474.661 721.166C482.145 721.069 489.557 720.657 496.872 719.907C501.086 726.446 523.321 758.2 555.05 754.01C581.984 750.473 619.429 747.155 633.768 759.12C634.446 759.701 635.415 759.774 636.214 759.338C636.989 758.902 637.401 758.006 637.256 757.134C634.059 738.726 655.663 707.966 672.182 686.409C691.777 660.88 675.089 625.494 671.674 618.857C676.009 612.875 680.102 606.674 683.905 600.304C691.51 610.864 719.243 654.534 690.953 693.966C660.653 736.183 646.557 758.781 649.148 781.718C630.571 768.009 603.976 768.905 552.241 774.04C503.944 778.836 480.038 733.107 474.661 721.166ZM310.274 753.186C310.226 733.494 291.212 706.028 274.137 683.793C257.739 662.406 269.753 632.082 274.137 622.708C313.568 674.88 373.176 710.993 441.261 719.325C435.254 727.899 415.054 753.259 388.435 749.747C360.654 746.138 327.35 743.401 310.274 753.186ZM501.692 719.35C569.776 711.018 629.384 674.904 668.815 622.733C673.199 632.106 685.213 662.43 668.815 683.817C651.764 706.052 632.751 733.519 632.678 753.21C615.602 743.401 582.323 746.138 554.517 749.795C527.874 753.283 507.698 727.924 501.692 719.35ZM259.047 600.304C262.85 606.674 266.919 612.85 271.279 618.857C269.075 623.12 261.397 639.251 261.397 657.029C261.397 666.911 263.77 677.278 270.77 686.409C287.289 707.966 308.918 738.75 305.696 757.134C305.551 758.006 305.963 758.902 306.738 759.338C307.513 759.774 308.482 759.701 309.16 759.12C323.499 747.155 360.944 750.473 387.878 754.01C419.607 758.176 441.842 726.446 446.056 719.907C453.371 720.657 460.783 721.069 468.267 721.166C462.866 733.107 438.911 778.836 390.712 774.04C339 768.905 312.381 767.985 293.804 781.718C296.396 758.757 282.299 736.183 251.999 693.966C223.685 654.486 251.442 610.864 259.047 600.304ZM255.874 353.179C252.241 359.621 248.899 366.258 245.847 373.04C238.145 373.403 199.464 376.77 187.184 406.368C176.793 431.46 160.929 465.539 143.393 471.982C142.545 472.297 141.988 473.096 141.988 473.992C141.988 474.888 142.545 475.688 143.393 476.003C160.929 482.445 176.793 516.524 187.184 541.617C199.44 571.215 238.145 574.557 245.847 574.945C248.899 581.727 252.265 588.363 255.874 594.806C242.916 596.114 191.229 598.294 171.271 554.091C149.859 506.739 137.362 483.245 116.168 474.016C137.337 464.788 149.859 441.294 171.271 393.942C191.229 349.715 242.916 351.895 255.874 353.179ZM191.132 539.994C180.402 514.102 166.136 483.899 149.109 474.016C166.136 464.134 180.402 433.931 191.132 408.039C201.426 383.188 233.494 378.417 243.909 377.496C231.266 407.167 224.29 439.792 224.29 474.016C224.29 508.241 231.29 540.866 243.909 570.537C233.47 569.616 201.401 564.796 191.132 539.994ZM471.464 231.057C605.429 231.057 714.399 340.027 714.399 473.992C714.399 607.958 605.429 716.927 471.464 716.927C337.498 716.927 228.529 607.958 228.529 473.992C228.529 340.051 337.523 231.057 471.464 231.057ZM632.654 194.799C632.702 214.49 651.716 241.957 668.791 264.191C685.189 285.578 673.175 315.903 668.791 325.276C629.36 273.105 569.752 236.991 501.667 228.659C507.674 220.085 527.874 194.726 554.493 198.238C582.299 201.871 615.578 204.608 632.654 194.799ZM388.435 198.214C415.054 194.726 435.254 220.061 441.261 228.659C373.176 236.991 313.568 273.105 274.137 325.276C269.753 315.903 257.739 285.578 274.137 264.191C291.188 241.957 310.202 214.49 310.274 194.799C327.35 204.608 360.654 201.871 388.435 198.214ZM468.291 226.843C460.807 226.94 453.395 227.351 446.081 228.102C441.866 221.563 419.631 189.809 387.902 193.999C360.968 197.536 323.523 200.854 309.184 188.889C308.506 188.307 307.537 188.235 306.762 188.671C305.987 189.107 305.575 189.979 305.721 190.875C308.918 209.283 287.313 240.043 270.794 261.6C263.794 270.707 261.421 281.097 261.421 290.98C261.421 308.758 269.099 324.889 271.303 329.176C266.967 335.158 262.874 341.359 259.071 347.729C251.466 337.169 223.733 293.499 252.023 254.067C282.323 211.85 296.42 189.276 293.828 166.315C312.406 180.024 339 179.128 390.736 173.993C438.935 169.173 462.89 214.902 468.291 226.843ZM690.929 254.043C719.219 293.45 691.486 337.12 683.881 347.705C680.078 341.335 675.985 335.158 671.649 329.152C675.064 322.515 691.753 287.128 672.158 261.6C655.639 240.043 634.034 209.258 637.231 190.875C637.377 189.979 636.965 189.107 636.19 188.671C635.415 188.21 634.446 188.307 633.744 188.889C619.405 200.854 581.959 197.536 555.026 193.999C523.297 189.833 501.062 221.563 496.847 228.102C489.533 227.351 482.121 226.94 474.637 226.843C480.038 214.902 503.968 169.173 552.192 173.969C603.904 179.103 630.522 180.024 649.1 166.291C646.532 189.252 660.629 211.826 690.929 254.043ZM595.426 255.593C595.426 255.617 595.426 255.617 595.426 255.641C595.426 256.392 595.838 257.119 596.492 257.482C597.17 257.87 597.994 257.87 598.672 257.458C601.821 255.545 629.336 238.323 629.336 223.791V223.646C629.287 219.286 626.865 215.701 622.166 212.989C617.467 210.276 613.156 209.985 609.353 212.116C596.662 219.262 595.499 251.887 595.426 255.593ZM620.035 216.694C623.377 218.632 625.024 220.933 625.073 223.694V223.791C625.073 232.825 609.159 245.372 599.883 251.597C600.634 240.407 603.565 220.255 611.461 215.822C613.858 214.49 616.668 214.757 620.035 216.694ZM581.814 211.463C579.755 210.082 576.243 208.968 571.254 211.366C566.264 213.763 564.956 217.203 564.738 219.673C564.714 219.94 564.69 220.231 564.69 220.521C564.69 232.099 584.672 246.777 587.022 248.472C587.651 248.932 588.499 249.005 589.202 248.666C589.904 248.327 590.364 247.624 590.413 246.849C590.558 243.894 591.599 217.954 581.814 211.463ZM579.465 214.999C585.036 218.705 586.222 233.576 586.247 242.465C579.295 236.894 568.444 226.722 569.001 220.012C569.171 218.002 570.527 216.428 573.119 215.168C575.711 213.957 577.769 213.885 579.465 214.999Z" fill="#144C80"/>
</g>
<mask id="mask1_20_2" style="mask-type:luminance" maskUnits="userSpaceOnUse" x="341" y="309" width="155" height="176">
<path d="M341 484.626H496V309.152H341V484.626Z" fill="white"/>
</mask>
<g mask="url(#mask1_20_2)">
<path d="M558.964 428.334C558.964 428.334 597.376 406.219 577.977 373.597C558.578 340.976 511.521 372.136 511.521 372.136C511.521 372.136 512.817 339.845 491.515 336.798C470.213 333.751 458.039 362.484 458.039 362.484C458.039 362.484 434.766 341.693 416.8 353.55C398.835 365.394 413.795 394.044 413.795 394.044C413.795 394.044 357.941 385.937 354.315 423.715C350.689 461.493 394.878 465.105 394.878 465.105C394.878 465.105 356.549 484.367 372.777 515.568C389.005 546.769 426.521 526.984 426.521 526.984C426.521 526.984 411.258 568.802 445.01 574.027C478.762 579.253 495.941 531.575 495.941 531.575C495.941 531.575 531.816 567.368 560.109 548.231C588.401 529.094 556.744 497.796 556.744 497.796C556.744 497.796 599.114 499.671 600.479 464.526C601.844 429.382 558.964 428.334 558.964 428.334Z" fill="#F29F05"/>
<path d="M522.289 439.833C522.289 439.833 543.205 427.796 532.644 410.024C522.082 392.266 496.465 409.224 496.465 409.224C496.465 409.224 497.168 391.645 485.573 389.991C473.977 388.336 467.346 403.971 467.346 403.971C467.346 403.971 454.675 392.652 444.899 399.104C435.124 405.557 443.259 421.151 443.259 421.151C443.259 421.151 412.843 416.739 410.885 437.31C408.914 457.881 432.973 459.839 432.973 459.839C432.973 459.839 412.099 470.317 420.937 487.304C429.774 504.29 450.194 493.522 450.194 493.522C450.194 493.522 441.88 516.285 460.259 519.139C478.638 521.993 487.986 496.031 487.986 496.031C487.986 496.031 507.523 515.513 522.923 505.09C538.324 494.666 521.09 477.625 521.09 477.625C521.09 477.625 544.156 478.645 544.901 459.508C545.631 440.398 522.289 439.833 522.289 439.833Z" fill="#FFB948"/>
</g>
<path d="M199.515 118.851C199.515 118.851 177.636 111.997 183.729 93.2349C189.822 74.4728 217.09 84.9456 217.09 84.9456C217.09 84.9456 212.787 68.7108 223.183 64.7481C233.579 60.7854 242.99 73.9674 242.99 73.9674C242.99 73.9674 252.381 60.7854 262.797 64.7481C273.193 68.7108 268.89 84.9456 268.89 84.9456C268.89 84.9456 296.158 74.493 302.251 93.2349C308.344 111.997 286.465 118.851 286.465 118.851C286.465 118.851 307.982 124.269 303.316 141.939C298.651 159.61 277.497 153.848 277.497 153.848C277.497 153.848 289.924 173.338 273.495 179.827C257.046 186.317 242.99 164.078 242.99 164.078C242.99 164.078 228.934 186.317 212.485 179.827C196.036 173.338 208.483 153.848 208.483 153.848C208.483 153.848 187.329 159.61 182.664 141.939C177.998 124.269 199.515 118.851 199.515 118.851Z" fill="#F15067"/>
<path opacity="0.5" d="M219.322 120.509C219.322 120.509 207.398 116.768 210.736 106.558C214.054 96.3484 228.894 102.05 228.894 102.05C228.894 102.05 226.541 93.2146 232.212 91.0513C237.882 88.888 242.99 96.0653 242.99 96.0653C242.99 96.0653 248.098 88.888 253.768 91.0513C259.439 93.2146 257.086 102.05 257.086 102.05C257.086 102.05 271.927 96.3484 275.245 106.558C278.563 116.768 266.658 120.509 266.658 120.509C266.658 120.509 278.382 123.46 275.828 133.084C273.294 142.708 261.772 139.574 261.772 139.574C261.772 139.574 268.548 150.188 259.58 153.706C250.631 157.244 242.97 145.134 242.97 145.134C242.97 145.134 235.309 157.244 226.36 153.706C217.412 150.168 224.168 139.574 224.168 139.574C224.168 139.574 212.646 142.708 210.112 133.084C207.619 123.46 219.322 120.509 219.322 120.509Z" fill="white"/>
</svg>
