<svg width="181" height="577" viewBox="0 0 181 577" fill="none" xmlns="http://www.w3.org/2000/svg">
<mask id="mask0_13_1625" style="mask-type:luminance" maskUnits="userSpaceOnUse" x="0" y="-7" width="182" height="584">
<path d="M0.00537109 576.995H181.005L181.005 -6.58319H0.00537109L0.00537109 576.995Z" fill="white"/>
</mask>
<g mask="url(#mask0_13_1625)">
<path d="M92.6224 438.208C92.6224 438.208 39.175 473.286 62.4995 519.068C62.4995 519.068 113.261 515.238 92.6224 438.208Z" fill="#87B351"/>
<path d="M92.6224 438.208C92.5097 445.513 91.5331 452.799 90.1622 459.991C88.7913 467.183 86.7818 474.263 84.3592 481.192C81.9366 488.121 78.8755 494.825 75.251 501.229C71.7204 507.67 67.3071 513.585 62.4995 519.087C63.4948 517.547 64.4902 516.026 65.5231 514.524L67.0442 512.271L68.3964 509.904L71.1758 505.229L73.6735 500.403C76.8661 493.905 79.8145 487.295 82.162 480.441C84.6034 473.624 86.6504 466.676 88.4157 459.634C89.2796 456.104 90.0871 452.574 90.7444 448.987C91.5144 445.419 92.0965 441.814 92.6224 438.208Z" fill="#669223"/>
<path d="M114.257 552.438C114.257 552.438 64.0583 511.613 94.5755 437.082C94.5943 437.082 163.479 489.248 114.257 552.438Z" fill="#669223"/>
<path d="M114.257 552.438C114.426 547.518 114.407 542.598 114.257 537.697C114.107 532.795 113.881 527.894 113.487 522.993C112.698 513.209 111.59 503.463 109.881 493.83C108.266 484.178 106.182 474.582 103.59 465.137C102.933 462.77 102.369 460.386 101.618 458.038L99.3833 451.034C98.0124 446.321 96.0968 441.776 94.5757 437.082C95.6086 439.316 96.6227 441.57 97.5992 443.823C98.5946 446.076 99.6275 448.33 100.454 450.64L103.008 457.588C103.872 459.897 104.529 462.282 105.299 464.63C106.895 469.305 107.984 474.131 109.243 478.92C109.825 481.324 110.276 483.746 110.783 486.168L111.534 489.793L112.154 493.454C113.825 503.201 114.877 513.04 115.233 522.899C115.421 527.838 115.459 532.777 115.365 537.697C115.177 542.616 114.952 547.555 114.257 552.438Z" fill="#87B351"/>
<path d="M113.168 1.13947C113.168 1.13947 123.647 -2.12799 120.736 -11.0665C117.806 -20.0051 104.754 -15.0288 104.754 -15.0288C104.754 -15.0288 106.82 -22.7655 101.825 -24.6621C96.8292 -26.5588 92.3408 -20.268 92.3408 -20.268C92.3408 -20.268 87.8337 -26.5588 82.857 -24.6621C77.8616 -22.7655 79.9274 -15.0288 79.9274 -15.0288C79.9274 -15.0288 66.8566 -20.0239 63.9457 -11.0665C61.0161 -2.12799 71.514 1.13947 71.514 1.13947C71.514 1.13947 61.2039 3.71212 63.4387 12.1436C65.6735 20.5752 75.8146 17.8147 75.8146 17.8147C75.8146 17.8147 69.8614 27.0913 77.7301 30.1897C85.6177 33.2882 92.3408 22.6784 92.3408 22.6784C92.3408 22.6784 99.0828 33.2694 106.952 30.1897C114.839 27.0913 108.867 17.8147 108.867 17.8147C108.867 17.8147 119.008 20.5564 121.243 12.1436C123.478 3.73089 113.168 1.13947 113.168 1.13947Z" fill="#FCC02C"/>
<path opacity="0.5" d="M103.684 1.92825C103.684 1.92825 109.393 0.144299 107.797 -4.71932C106.2 -9.58295 99.0827 -6.87885 99.0827 -6.87885C99.0827 -6.87885 100.21 -11.0852 97.4865 -12.118C94.7634 -13.1509 92.322 -9.73317 92.322 -9.73317C92.322 -9.73317 89.8619 -13.1509 87.1576 -12.118C84.4345 -11.0852 85.5613 -6.87885 85.5613 -6.87885C85.5613 -6.87885 78.4437 -9.60172 76.8474 -4.71932C75.2511 0.144299 80.9602 1.92825 80.9602 1.92825C80.9602 1.92825 75.345 3.33664 76.5657 7.91858C77.7864 12.5005 83.3077 10.9983 83.3077 10.9983C83.3077 10.9983 80.0588 16.0497 84.3594 17.7397C88.6412 19.4298 92.322 13.646 92.322 13.646C92.322 13.646 95.9841 19.411 100.285 17.7397C104.566 16.0497 101.336 10.9983 101.336 10.9983C101.336 10.9983 106.858 12.5005 108.078 7.91858C109.299 3.33664 103.684 1.92825 103.684 1.92825Z" fill="white"/>
<path d="M113.168 33.8892C113.168 33.8892 123.647 30.6218 120.736 21.6832C117.806 12.7447 104.754 17.721 104.754 17.721C104.754 17.721 106.82 9.98424 101.825 8.08761C96.8292 6.19099 92.3408 12.4818 92.3408 12.4818C92.3408 12.4818 87.8337 6.19099 82.857 8.08761C77.8616 9.98424 79.9274 17.721 79.9274 17.721C79.9274 17.721 66.8566 12.7259 63.9457 21.6832C61.0161 30.6218 71.514 33.8892 71.514 33.8892C71.514 33.8892 61.2039 36.4619 63.4387 44.8934C65.6735 53.3249 75.8146 50.5645 75.8146 50.5645C75.8146 50.5645 69.8614 59.8411 77.7301 62.9395C85.6177 66.038 92.3408 55.4281 92.3408 55.4281C92.3408 55.4281 99.0828 66.0192 106.952 62.9395C114.839 59.8411 108.867 50.5645 108.867 50.5645C108.867 50.5645 119.008 53.3062 121.243 44.8934C123.478 36.4619 113.168 33.8892 113.168 33.8892Z" fill="#F15067"/>
<path opacity="0.5" d="M103.684 34.678C103.684 34.678 109.393 32.8941 107.797 28.0304C106.2 23.1668 99.0827 25.8709 99.0827 25.8709C99.0827 25.8709 100.21 21.6645 97.4865 20.6317C94.7634 19.5989 92.322 23.0166 92.322 23.0166C92.322 23.0166 89.8619 19.5989 87.1576 20.6317C84.4345 21.6645 85.5613 25.8709 85.5613 25.8709C85.5613 25.8709 78.4437 23.148 76.8474 28.0304C75.2511 32.8941 80.9602 34.678 80.9602 34.678C80.9602 34.678 75.345 36.0864 76.5657 40.6683C77.7864 45.2503 83.3077 43.748 83.3077 43.748C83.3077 43.748 80.0588 48.7994 84.3594 50.4895C88.6412 52.1795 92.322 46.3958 92.322 46.3958C92.322 46.3958 95.9841 52.1608 100.285 50.4895C104.566 48.7994 101.336 43.748 101.336 43.748C101.336 43.748 106.858 45.2503 108.078 40.6683C109.299 36.0864 103.684 34.678 103.684 34.678Z" fill="white"/>
<path d="M113.168 65.8314C113.168 65.8314 123.647 62.5639 120.736 53.6254C117.806 44.6868 104.754 49.6631 104.754 49.6631C104.754 49.6631 106.82 41.9264 101.825 40.0297C96.8292 38.1331 92.3408 44.4239 92.3408 44.4239C92.3408 44.4239 87.8337 38.1331 82.857 40.0297C77.8616 41.9264 79.9274 49.6631 79.9274 49.6631C79.9274 49.6631 66.8566 44.6868 63.9457 53.6254C61.0161 62.5639 71.514 65.8314 71.514 65.8314C71.514 65.8314 61.2039 68.404 63.4387 76.8355C65.6735 85.2671 75.8146 82.5066 75.8146 82.5066C75.8146 82.5066 69.8614 91.7832 77.7301 94.8816C85.6177 97.9801 92.3408 87.3703 92.3408 87.3703C92.3408 87.3703 99.0828 97.9613 106.952 94.8816C114.839 91.7832 108.867 82.5066 108.867 82.5066C108.867 82.5066 119.008 85.2483 121.243 76.8355C123.478 68.404 113.168 65.8314 113.168 65.8314Z" fill="#FCC02C"/>
<path opacity="0.5" d="M103.684 66.6201C103.684 66.6201 109.393 64.8362 107.797 59.9726C106.2 55.1089 99.0827 57.813 99.0827 57.813C99.0827 57.813 100.21 53.6067 97.4865 52.5739C94.7634 51.541 92.322 54.9587 92.322 54.9587C92.322 54.9587 89.8619 51.541 87.1576 52.5739C84.4345 53.6067 85.5613 57.813 85.5613 57.813C85.5613 57.813 78.4437 55.0902 76.8474 59.9726C75.2511 64.8362 80.9602 66.6201 80.9602 66.6201C80.9602 66.6201 75.345 68.0285 76.5657 72.6105C77.7864 77.1924 83.3077 75.6901 83.3077 75.6901C83.3077 75.6901 80.0588 80.7416 84.3594 82.4316C88.6412 84.1217 92.322 78.3379 92.322 78.3379C92.322 78.3379 95.9841 84.1029 100.285 82.4316C104.566 80.7416 101.336 75.6901 101.336 75.6901C101.336 75.6901 106.858 77.1924 108.078 72.6105C109.299 68.0285 103.684 66.6201 103.684 66.6201Z" fill="white"/>
<path d="M113.168 98.5809C113.168 98.5809 123.647 95.3134 120.736 86.3749C117.806 77.4363 104.754 82.4126 104.754 82.4126C104.754 82.4126 106.82 74.6759 101.825 72.7793C96.8292 70.8826 92.3408 77.1734 92.3408 77.1734C92.3408 77.1734 87.8337 70.8826 82.857 72.7793C77.8616 74.6759 79.9274 82.4126 79.9274 82.4126C79.9274 82.4126 66.8566 77.4175 63.9457 86.3749C61.0161 95.3134 71.514 98.5809 71.514 98.5809C71.514 98.5809 61.2039 101.154 63.4387 109.585C65.6735 118.017 75.8146 115.256 75.8146 115.256C75.8146 115.256 69.8614 124.533 77.7301 127.631C85.6177 130.73 92.3408 120.12 92.3408 120.12C92.3408 120.12 99.0828 130.711 106.952 127.631C114.839 124.533 108.867 115.256 108.867 115.256C108.867 115.256 119.008 117.998 121.243 109.585C123.478 101.154 113.168 98.5809 113.168 98.5809Z" fill="#F15067"/>
<path opacity="0.5" d="M103.684 99.3697C103.684 99.3697 109.393 97.5857 107.797 92.7221C106.2 87.8585 99.0827 90.5626 99.0827 90.5626C99.0827 90.5626 100.21 86.3562 97.4865 85.3234C94.7634 84.2906 92.322 87.7082 92.322 87.7082C92.322 87.7082 89.8619 84.2906 87.1576 85.3234C84.4345 86.3562 85.5613 90.5626 85.5613 90.5626C85.5613 90.5626 78.4437 87.8397 76.8474 92.7221C75.2511 97.5857 80.9602 99.3697 80.9602 99.3697C80.9602 99.3697 75.345 100.778 76.5657 105.36C77.7864 109.942 83.3077 108.44 83.3077 108.44C83.3077 108.44 80.0588 113.491 84.3594 115.181C88.6412 116.871 92.322 111.087 92.322 111.087C92.322 111.087 95.9841 116.852 100.285 115.181C104.566 113.491 101.336 108.44 101.336 108.44C101.336 108.44 106.858 109.942 108.078 105.36C109.299 100.759 103.684 99.3697 103.684 99.3697Z" fill="white"/>
<path d="M113.168 130.504C113.168 130.504 123.647 127.237 120.736 118.298C117.806 109.36 104.754 114.336 104.754 114.336C104.754 114.336 106.82 106.599 101.825 104.703C96.8292 102.806 92.3408 109.097 92.3408 109.097C92.3408 109.097 87.8337 102.806 82.857 104.703C77.8616 106.599 79.9274 114.336 79.9274 114.336C79.9274 114.336 66.8566 109.341 63.9457 118.298C61.0161 127.237 71.514 130.504 71.514 130.504C71.514 130.504 61.2039 133.077 63.4387 141.508C65.6735 149.94 75.8146 147.179 75.8146 147.179C75.8146 147.179 69.8614 156.456 77.7301 159.554C85.6177 162.653 92.3408 152.043 92.3408 152.043C92.3408 152.043 99.0828 162.634 106.952 159.554C114.839 156.456 108.867 147.179 108.867 147.179C108.867 147.179 119.008 149.921 121.243 141.508C123.478 133.096 113.168 130.504 113.168 130.504Z" fill="#FCC02C"/>
<path opacity="0.5" d="M103.684 131.312C103.684 131.312 109.393 129.528 107.797 124.664C106.2 119.801 99.0827 122.505 99.0827 122.505C99.0827 122.505 100.21 118.298 97.4865 117.266C94.7634 116.233 92.322 119.65 92.322 119.65C92.322 119.65 89.8619 116.233 87.1576 117.266C84.4345 118.298 85.5613 122.505 85.5613 122.505C85.5613 122.505 78.4437 119.782 76.8474 124.664C75.2511 129.528 80.9602 131.312 80.9602 131.312C80.9602 131.312 75.345 132.72 76.5657 137.302C77.7864 141.884 83.3077 140.382 83.3077 140.382C83.3077 140.382 80.0588 145.433 84.3594 147.123C88.6412 148.813 92.322 143.03 92.322 143.03C92.322 143.03 95.9841 148.795 100.285 147.123C104.566 145.433 101.336 140.382 101.336 140.382C101.336 140.382 106.858 141.884 108.078 137.302C109.299 132.701 103.684 131.312 103.684 131.312Z" fill="white"/>
<path d="M113.168 163.254C113.168 163.254 123.647 159.987 120.736 151.048C117.806 142.109 104.754 147.086 104.754 147.086C104.754 147.086 106.82 139.349 101.825 137.452C96.8292 135.556 92.3408 141.847 92.3408 141.847C92.3408 141.847 87.8337 135.556 82.857 137.452C77.8616 139.349 79.9274 147.086 79.9274 147.086C79.9274 147.086 66.8566 142.091 63.9457 151.048C61.0161 159.987 71.514 163.254 71.514 163.254C71.514 163.254 61.2039 165.827 63.4387 174.258C65.6735 182.69 75.8146 179.929 75.8146 179.929C75.8146 179.929 69.8614 189.206 77.7301 192.304C85.6177 195.403 92.3408 184.793 92.3408 184.793C92.3408 184.793 99.0828 195.384 106.952 192.304C114.839 189.206 108.867 179.929 108.867 179.929C108.867 179.929 119.008 182.671 121.243 174.258C123.478 165.827 113.168 163.254 113.168 163.254Z" fill="#F15067"/>
<path opacity="0.5" d="M103.684 164.043C103.684 164.043 109.393 162.259 107.797 157.395C106.2 152.532 99.0827 155.236 99.0827 155.236C99.0827 155.236 100.21 151.029 97.4865 149.996C94.7634 148.964 92.322 152.381 92.322 152.381C92.322 152.381 89.8619 148.964 87.1576 149.996C84.4345 151.029 85.5613 155.236 85.5613 155.236C85.5613 155.236 78.4437 152.513 76.8474 157.395C75.2511 162.259 80.9602 164.043 80.9602 164.043C80.9602 164.043 75.345 165.451 76.5657 170.033C77.7864 174.615 83.3077 173.132 83.3077 173.132C83.3077 173.132 80.0588 178.183 84.3594 179.873C88.6412 181.563 92.322 175.779 92.322 175.779C92.322 175.779 95.9841 181.544 100.285 179.873C104.566 178.183 101.336 173.132 101.336 173.132C101.336 173.132 106.858 174.634 108.078 170.033C109.299 165.451 103.684 164.043 103.684 164.043Z" fill="white"/>
<path d="M113.168 195.196C113.168 195.196 123.647 191.929 120.736 182.99C117.806 174.052 104.754 179.028 104.754 179.028C104.754 179.028 106.82 171.291 101.825 169.394C96.8292 167.498 92.3408 173.789 92.3408 173.789C92.3408 173.789 87.8337 167.498 82.857 169.394C77.8616 171.291 79.9274 179.028 79.9274 179.028C79.9274 179.028 66.8566 174.033 63.9457 182.99C61.0161 191.929 71.514 195.196 71.514 195.196C71.514 195.196 61.2039 197.769 63.4387 206.2C65.6735 214.632 75.8146 211.871 75.8146 211.871C75.8146 211.871 69.8614 221.148 77.7301 224.246C85.6177 227.345 92.3408 216.735 92.3408 216.735C92.3408 216.735 99.0828 227.326 106.952 224.246C114.839 221.148 108.867 211.871 108.867 211.871C108.867 211.871 119.008 214.613 121.243 206.2C123.478 197.769 113.168 195.196 113.168 195.196Z" fill="#FCC02C"/>
<path opacity="0.5" d="M103.684 195.985C103.684 195.985 109.393 194.201 107.797 189.337C106.2 184.474 99.0827 187.178 99.0827 187.178C99.0827 187.178 100.21 182.971 97.4865 181.939C94.7634 180.906 92.322 184.323 92.322 184.323C92.322 184.323 89.8619 180.906 87.1576 181.939C84.4345 182.971 85.5613 187.178 85.5613 187.178C85.5613 187.178 78.4437 184.455 76.8474 189.337C75.2511 194.201 80.9602 195.985 80.9602 195.985C80.9602 195.985 75.345 197.393 76.5657 201.975C77.7864 206.557 83.3077 205.055 83.3077 205.055C83.3077 205.055 80.0588 210.106 84.3594 211.796C88.6412 213.486 92.322 207.703 92.322 207.703C92.322 207.703 95.9841 213.468 100.285 211.796C104.566 210.106 101.336 205.055 101.336 205.055C101.336 205.055 106.858 206.557 108.078 201.975C109.299 197.393 103.684 195.985 103.684 195.985Z" fill="white"/>
<path d="M113.168 227.946C113.168 227.946 123.647 224.678 120.736 215.74C117.806 206.801 104.754 211.778 104.754 211.778C104.754 211.778 106.82 204.041 101.825 202.144C96.8292 200.248 92.3408 206.538 92.3408 206.538C92.3408 206.538 87.8337 200.248 82.857 202.144C77.8616 204.041 79.9274 211.778 79.9274 211.778C79.9274 211.778 66.8566 206.783 63.9457 215.74C61.0161 224.678 71.514 227.946 71.514 227.946C71.514 227.946 61.2039 230.519 63.4387 238.95C65.6735 247.382 75.8146 244.621 75.8146 244.621C75.8146 244.621 69.8614 253.898 77.7301 256.996C85.6177 260.095 92.3408 249.485 92.3408 249.485C92.3408 249.485 99.0828 260.076 106.952 256.996C114.839 253.898 108.867 244.621 108.867 244.621C108.867 244.621 119.008 247.363 121.243 238.95C123.478 230.519 113.168 227.946 113.168 227.946Z" fill="#F15067"/>
<path opacity="0.5" d="M103.684 228.735C103.684 228.735 109.393 226.951 107.797 222.087C106.2 217.223 99.0827 219.928 99.0827 219.928C99.0827 219.928 100.21 215.721 97.4865 214.688C94.7634 213.656 92.322 217.073 92.322 217.073C92.322 217.073 89.8619 213.656 87.1576 214.688C84.4345 215.721 85.5613 219.928 85.5613 219.928C85.5613 219.928 78.4437 217.205 76.8474 222.087C75.2511 226.951 80.9602 228.735 80.9602 228.735C80.9602 228.735 75.345 230.143 76.5657 234.725C77.7864 239.307 83.3077 237.805 83.3077 237.805C83.3077 237.805 80.0588 242.856 84.3594 244.546C88.6412 246.236 92.322 240.452 92.322 240.452C92.322 240.452 95.9841 246.217 100.285 244.546C104.566 242.856 101.336 237.805 101.336 237.805C101.336 237.805 106.858 239.307 108.078 234.725C109.299 230.143 103.684 228.735 103.684 228.735Z" fill="white"/>
<path d="M113.168 259.869C113.168 259.869 123.647 256.602 120.736 247.663C117.806 238.725 104.754 243.701 104.754 243.701C104.754 243.701 106.82 235.964 101.825 234.068C96.8292 232.171 92.3408 238.462 92.3408 238.462C92.3408 238.462 87.8337 232.171 82.857 234.068C77.8616 235.964 79.9274 243.701 79.9274 243.701C79.9274 243.701 66.8566 238.706 63.9457 247.663C61.0161 256.602 71.514 259.869 71.514 259.869C71.514 259.869 61.2039 262.442 63.4387 270.873C65.6735 279.305 75.8146 276.544 75.8146 276.544C75.8146 276.544 69.8614 285.821 77.7301 288.919C85.6177 292.018 92.3408 281.408 92.3408 281.408C92.3408 281.408 99.0828 291.999 106.952 288.919C114.839 285.821 108.867 276.544 108.867 276.544C108.867 276.544 119.008 279.286 121.243 270.873C123.478 262.461 113.168 259.869 113.168 259.869Z" fill="#FCC02C"/>
<path opacity="0.5" d="M103.684 260.677C103.684 260.677 109.393 258.893 107.797 254.029C106.2 249.165 99.0827 251.869 99.0827 251.869C99.0827 251.869 100.21 247.663 97.4865 246.63C94.7634 245.597 92.322 249.015 92.322 249.015C92.322 249.015 89.8619 245.597 87.1576 246.63C84.4345 247.663 85.5613 251.869 85.5613 251.869C85.5613 251.869 78.4437 249.147 76.8474 254.029C75.2511 258.893 80.9602 260.677 80.9602 260.677C80.9602 260.677 75.345 262.085 76.5657 266.667C77.7864 271.249 83.3077 269.747 83.3077 269.747C83.3077 269.747 80.0588 274.798 84.3594 276.488C88.6412 278.178 92.322 272.394 92.322 272.394C92.322 272.394 95.9841 278.159 100.285 276.488C104.566 274.798 101.336 269.747 101.336 269.747C101.336 269.747 106.858 271.249 108.078 266.667C109.299 262.066 103.684 260.677 103.684 260.677Z" fill="white"/>
<path d="M113.168 292.619C113.168 292.619 123.647 289.351 120.736 280.413C117.806 271.474 104.754 276.45 104.754 276.45C104.754 276.45 106.82 268.714 101.825 266.817C96.8292 264.92 92.3408 271.211 92.3408 271.211C92.3408 271.211 87.8337 264.92 82.857 266.817C77.8616 268.714 79.9274 276.45 79.9274 276.45C79.9274 276.45 66.8566 271.455 63.9457 280.413C61.0161 289.351 71.514 292.619 71.514 292.619C71.514 292.619 61.2039 295.191 63.4387 303.623C65.6735 312.054 75.8146 309.294 75.8146 309.294C75.8146 309.294 69.8614 318.571 77.7301 321.669C85.6177 324.767 92.3408 314.158 92.3408 314.158C92.3408 314.158 99.0828 324.749 106.952 321.669C114.839 318.571 108.867 309.294 108.867 309.294C108.867 309.294 119.008 312.036 121.243 303.623C123.478 295.191 113.168 292.619 113.168 292.619Z" fill="#F15067"/>
<path opacity="0.5" d="M103.684 293.407C103.684 293.407 109.393 291.624 107.797 286.76C106.2 281.896 99.0827 284.6 99.0827 284.6C99.0827 284.6 100.21 280.394 97.4865 279.361C94.7634 278.328 92.322 281.746 92.322 281.746C92.322 281.746 89.8619 278.328 87.1576 279.361C84.4345 280.394 85.5613 284.6 85.5613 284.6C85.5613 284.6 78.4437 281.878 76.8474 286.76C75.2511 291.624 80.9602 293.407 80.9602 293.407C80.9602 293.407 75.345 294.816 76.5657 299.398C77.7864 303.98 83.3077 302.496 83.3077 302.496C83.3077 302.496 80.0588 307.548 84.3594 309.238C88.6412 310.928 92.322 305.144 92.322 305.144C92.322 305.144 95.9841 310.909 100.285 309.238C104.566 307.548 101.336 302.496 101.336 302.496C101.336 302.496 106.858 303.999 108.078 299.398C109.299 294.816 103.684 293.407 103.684 293.407Z" fill="white"/>
<path d="M113.168 324.561C113.168 324.561 123.647 321.293 120.736 312.355C117.806 303.416 104.754 308.393 104.754 308.393C104.754 308.393 106.82 300.656 101.825 298.759C96.8292 296.863 92.3408 303.153 92.3408 303.153C92.3408 303.153 87.8337 296.863 82.857 298.759C77.8616 300.656 79.9274 308.393 79.9274 308.393C79.9274 308.393 66.8566 303.398 63.9457 312.355C61.0161 321.293 71.514 324.561 71.514 324.561C71.514 324.561 61.2039 327.133 63.4387 335.565C65.6735 343.997 75.8146 341.236 75.8146 341.236C75.8146 341.236 69.8614 350.513 77.7301 353.611C85.6177 356.71 92.3408 346.1 92.3408 346.1C92.3408 346.1 99.0828 356.691 106.952 353.611C114.839 350.513 108.867 341.236 108.867 341.236C108.867 341.236 119.008 343.978 121.243 335.565C123.478 327.133 113.168 324.561 113.168 324.561Z" fill="#FCC02C"/>
<path opacity="0.5" d="M103.684 325.35C103.684 325.35 109.393 323.566 107.797 318.702C106.2 313.838 99.0827 316.543 99.0827 316.543C99.0827 316.543 100.21 312.336 97.4865 311.303C94.7634 310.271 92.322 313.688 92.322 313.688C92.322 313.688 89.8619 310.271 87.1576 311.303C84.4345 312.336 85.5613 316.543 85.5613 316.543C85.5613 316.543 78.4437 313.82 76.8474 318.702C75.2511 323.566 80.9602 325.35 80.9602 325.35C80.9602 325.35 75.345 326.758 76.5657 331.34C77.7864 335.922 83.3077 334.42 83.3077 334.42C83.3077 334.42 80.0588 339.471 84.3594 341.161C88.6412 342.851 92.322 337.067 92.322 337.067C92.322 337.067 95.9841 342.832 100.285 341.161C104.566 339.471 101.336 334.42 101.336 334.42C101.336 334.42 106.858 335.922 108.078 331.34C109.299 326.758 103.684 325.35 103.684 325.35Z" fill="white"/>
<path d="M113.168 357.311C113.168 357.311 123.647 354.043 120.736 345.105C117.806 336.166 104.754 341.142 104.754 341.142C104.754 341.142 106.82 333.406 101.825 331.509C96.8292 329.612 92.3408 335.903 92.3408 335.903C92.3408 335.903 87.8337 329.612 82.857 331.509C77.8616 333.406 79.9274 341.142 79.9274 341.142C79.9274 341.142 66.8566 336.147 63.9457 345.105C61.0161 354.043 71.514 357.311 71.514 357.311C71.514 357.311 61.2039 359.883 63.4387 368.315C65.6735 376.746 75.8146 373.986 75.8146 373.986C75.8146 373.986 69.8614 383.262 77.7301 386.361C85.6177 389.459 92.3408 378.849 92.3408 378.849C92.3408 378.849 99.0828 389.441 106.952 386.361C114.839 383.262 108.867 373.986 108.867 373.986C108.867 373.986 119.008 376.728 121.243 368.315C123.478 359.883 113.168 357.311 113.168 357.311Z" fill="#F15067"/>
<path opacity="0.5" d="M103.684 358.099C103.684 358.099 109.393 356.315 107.797 351.452C106.2 346.588 99.0827 349.292 99.0827 349.292C99.0827 349.292 100.21 345.086 97.4865 344.053C94.7634 343.02 92.322 346.438 92.322 346.438C92.322 346.438 89.8619 343.02 87.1576 344.053C84.4345 345.086 85.5613 349.292 85.5613 349.292C85.5613 349.292 78.4437 346.569 76.8474 351.452C75.2511 356.315 80.9602 358.099 80.9602 358.099C80.9602 358.099 75.345 359.508 76.5657 364.09C77.7864 368.672 83.3077 367.169 83.3077 367.169C83.3077 367.169 80.0588 372.221 84.3594 373.911C88.6412 375.601 92.322 369.817 92.322 369.817C92.322 369.817 95.9841 375.582 100.285 373.911C104.566 372.221 101.336 367.169 101.336 367.169C101.336 367.169 106.858 368.672 108.078 364.09C109.299 359.508 103.684 358.099 103.684 358.099Z" fill="white"/>
<path d="M113.168 389.234C113.168 389.234 123.647 385.966 120.736 377.028C117.806 368.089 104.754 373.066 104.754 373.066C104.754 373.066 106.82 365.329 101.825 363.432C96.8292 361.536 92.3408 367.826 92.3408 367.826C92.3408 367.826 87.8337 361.536 82.857 363.432C77.8616 365.329 79.9274 373.066 79.9274 373.066C79.9274 373.066 66.8566 368.089 63.9457 377.028C61.0161 385.966 71.514 389.234 71.514 389.234C71.514 389.234 61.2039 391.807 63.4387 400.238C65.6735 408.67 75.8146 405.909 75.8146 405.909C75.8146 405.909 69.8614 415.186 77.7301 418.284C85.6177 421.383 92.3408 410.773 92.3408 410.773C92.3408 410.773 99.0828 421.364 106.952 418.284C114.839 415.186 108.867 405.909 108.867 405.909C108.867 405.909 119.008 408.651 121.243 400.238C123.478 391.825 113.168 389.234 113.168 389.234Z" fill="#FCC02C"/>
<path opacity="0.5" d="M103.684 390.042C103.684 390.042 109.393 388.258 107.797 383.394C106.2 378.53 99.0827 381.234 99.0827 381.234C99.0827 381.234 100.21 377.028 97.4865 375.995C94.7634 374.962 92.322 378.38 92.322 378.38C92.322 378.38 89.8619 374.962 87.1576 375.995C84.4345 377.028 85.5613 381.234 85.5613 381.234C85.5613 381.234 78.4437 378.512 76.8474 383.394C75.2511 388.258 80.9602 390.042 80.9602 390.042C80.9602 390.042 75.345 391.45 76.5657 396.032C77.7864 400.614 83.3077 399.112 83.3077 399.112C83.3077 399.112 80.0588 404.163 84.3594 405.853C88.6412 407.543 92.322 401.759 92.322 401.759C92.322 401.759 95.9841 407.524 100.285 405.853C104.566 404.163 101.336 399.112 101.336 399.112C101.336 399.112 106.858 400.614 108.078 396.032C109.299 391.431 103.684 390.042 103.684 390.042Z" fill="white"/>
<path d="M113.168 421.984C113.168 421.984 123.647 418.716 120.736 409.778C117.806 400.839 104.754 405.815 104.754 405.815C104.754 405.815 106.82 398.079 101.825 396.182C96.8292 394.285 92.3408 400.576 92.3408 400.576C92.3408 400.576 87.8337 394.285 82.857 396.182C77.8616 398.079 79.9274 405.815 79.9274 405.815C79.9274 405.815 66.8566 400.82 63.9457 409.778C61.0161 418.716 71.514 421.984 71.514 421.984C71.514 421.984 61.2039 424.556 63.4387 432.988C65.6735 441.419 75.8146 438.659 75.8146 438.659C75.8146 438.659 69.8614 447.936 77.7301 451.034C85.6177 454.132 92.3408 443.523 92.3408 443.523C92.3408 443.523 99.0828 454.114 106.952 451.034C114.839 447.936 108.867 438.659 108.867 438.659C108.867 438.659 119.008 441.401 121.243 432.988C123.478 424.575 113.168 421.984 113.168 421.984Z" fill="#F15067"/>
<path opacity="0.5" d="M103.684 422.772C103.684 422.772 109.393 420.989 107.797 416.125C106.2 411.261 99.0827 413.965 99.0827 413.965C99.0827 413.965 100.21 409.759 97.4865 408.726C94.7634 407.693 92.322 411.111 92.322 411.111C92.322 411.111 89.8619 407.693 87.1576 408.726C84.4345 409.759 85.5613 413.965 85.5613 413.965C85.5613 413.965 78.4437 411.243 76.8474 416.125C75.2511 420.989 80.9602 422.772 80.9602 422.772C80.9602 422.772 75.345 424.181 76.5657 428.763C77.7864 433.345 83.3077 431.842 83.3077 431.842C83.3077 431.842 80.0588 436.894 84.3594 438.584C88.6412 440.274 92.322 434.49 92.322 434.49C92.322 434.49 95.9841 440.255 100.285 438.584C104.566 436.894 101.336 431.842 101.336 431.842C101.336 431.842 106.858 433.345 108.078 428.763C109.299 424.181 103.684 422.772 103.684 422.772Z" fill="white"/>
</g>
</svg>
