<svg width="856" height="138" viewBox="0 0 856 138" fill="none" xmlns="http://www.w3.org/2000/svg">
<mask id="mask0_13_1541" style="mask-type:luminance" maskUnits="userSpaceOnUse" x="0" y="0" width="856" height="138">
<path d="M855.243 0H0V137.572H855.243V0Z" fill="white"/>
</mask>
<g mask="url(#mask0_13_1541)">
<path d="M-31.4603 -34.4925C-31.4603 -34.4925 -43.6659 -38.293 -40.2648 -48.7067C-36.8637 -59.1203 -21.6546 -53.3167 -21.6546 -53.3167C-21.6546 -53.3167 -24.0546 -62.3308 -18.2535 -64.5261C-12.4524 -66.735 -7.21363 -59.4084 -7.21363 -59.4084C-7.21363 -59.4084 -1.97482 -66.735 3.82628 -64.5261C9.62737 -62.3171 7.22739 -53.3167 7.22739 -53.3167C7.22739 -53.3167 22.4364 -59.1203 25.8375 -48.7067C29.2386 -38.293 17.033 -34.4925 17.033 -34.4925C17.033 -34.4925 29.0329 -31.4878 26.4409 -21.6779C23.8352 -11.8679 12.0273 -15.0648 12.0273 -15.0648C12.0273 -15.0648 18.9667 -4.25323 9.79194 -0.644821C0.617161 2.96359 -7.22735 -9.38458 -7.22735 -9.38458C-7.22735 -9.38458 -15.0718 2.96359 -24.2466 -0.644821C-33.4214 -4.25323 -26.482 -15.0648 -26.482 -15.0648C-26.482 -15.0648 -38.2899 -11.8679 -40.8956 -21.6779C-43.4739 -31.4878 -31.4603 -34.4925 -31.4603 -34.4925Z" fill="#FCC02C"/>
<path d="M42.9527 -2.01696C42.9527 -2.01696 30.7471 -5.81745 34.1482 -16.2311C37.5493 -26.6447 52.7584 -20.8411 52.7584 -20.8411C52.7584 -20.8411 50.3584 -29.8552 56.1595 -32.0505C61.9606 -34.2594 67.1994 -26.9328 67.1994 -26.9328C67.1994 -26.9328 72.4382 -34.2594 78.2393 -32.0505C84.0404 -29.8415 81.6404 -20.8411 81.6404 -20.8411C81.6404 -20.8411 96.8494 -26.6447 100.251 -16.2311C103.652 -5.81745 91.446 -2.01696 91.446 -2.01696C91.446 -2.01696 103.446 0.98777 100.854 10.7977C98.2483 20.6077 86.4404 17.4108 86.4404 17.4108C86.4404 17.4108 93.3797 28.2224 84.2049 31.8308C75.0302 35.4392 67.1857 23.091 67.1857 23.091C67.1857 23.091 59.3412 35.4392 50.1664 31.8308C40.9916 28.2224 47.931 17.4108 47.931 17.4108C47.931 17.4108 36.1231 20.6077 33.5174 10.7977C30.9528 0.98777 42.9527 -2.01696 42.9527 -2.01696Z" fill="#FCC02C"/>
<path opacity="0.5" d="M54.0064 -1.09776C54.0064 -1.09776 47.3551 -3.1695 49.2065 -8.83595C51.0579 -14.5024 59.3413 -11.3467 59.3413 -11.3467C59.3413 -11.3467 58.0384 -16.2586 61.1927 -17.4522C64.3469 -18.6459 67.1995 -14.667 67.1995 -14.667C67.1995 -14.667 70.052 -18.6596 73.2063 -17.4522C76.3605 -16.2586 75.0577 -11.3467 75.0577 -11.3467C75.0577 -11.3467 83.341 -14.5024 85.1925 -8.83595C87.0439 -3.1695 80.3925 -1.09776 80.3925 -1.09776C80.3925 -1.09776 86.9341 0.53495 85.5079 5.87211C84.0953 11.2093 77.6634 9.4668 77.6634 9.4668C77.6634 9.4668 81.4348 15.3528 76.4428 17.3148C71.4509 19.2767 67.1857 12.5538 67.1857 12.5538C67.1857 12.5538 62.9207 19.2767 57.9287 17.3148C52.9367 15.3528 56.7081 9.4668 56.7081 9.4668C56.7081 9.4668 50.2762 11.2093 48.8636 5.87211C47.4648 0.53495 54.0064 -1.09776 54.0064 -1.09776Z" fill="white"/>
<path d="M122.495 30.4589C122.495 30.4589 110.289 26.6584 113.69 16.2448C117.092 5.83113 132.301 11.6348 132.301 11.6348C132.301 11.6348 129.901 2.62059 135.702 0.425361C141.503 -1.78359 146.742 5.543 146.742 5.543C146.742 5.543 151.98 -1.78359 157.782 0.425361C163.583 2.63431 161.183 11.6348 161.183 11.6348C161.183 11.6348 176.392 5.83113 179.793 16.2448C183.194 26.6584 170.988 30.4589 170.988 30.4589C170.988 30.4589 182.988 33.4636 180.396 43.2735C177.79 53.0835 165.983 49.8867 165.983 49.8867C165.983 49.8867 172.922 60.6982 163.747 64.3066C154.572 67.915 146.728 55.5668 146.728 55.5668C146.728 55.5668 138.883 67.915 129.709 64.3066C120.534 60.6982 127.473 49.8867 127.473 49.8867C127.473 49.8867 115.665 53.0835 113.06 43.2735C110.495 33.4499 122.495 30.4589 122.495 30.4589Z" fill="#FCC02C"/>
<path opacity="0.5" d="M133.549 31.3781C133.549 31.3781 126.897 29.3063 128.749 23.6399C130.6 17.9735 138.883 21.1291 138.883 21.1291C138.883 21.1291 137.581 16.2173 140.735 15.0236C143.889 13.8299 146.742 17.8088 146.742 17.8088C146.742 17.8088 149.594 13.8162 152.749 15.0236C155.903 16.2173 154.6 21.1291 154.6 21.1291C154.6 21.1291 162.883 17.9735 164.735 23.6399C166.586 29.3063 159.935 31.3781 159.935 31.3781C159.935 31.3781 166.476 33.0108 165.05 38.3479C163.638 43.6851 157.206 41.9426 157.206 41.9426C157.206 41.9426 160.977 47.8286 155.985 49.7906C150.993 51.7526 146.728 45.0297 146.728 45.0297C146.728 45.0297 142.463 51.7526 137.471 49.7906C132.479 47.8286 136.25 41.9426 136.25 41.9426C136.25 41.9426 129.818 43.6851 128.406 38.3479C127.007 33.0108 133.549 31.3781 133.549 31.3781Z" fill="white"/>
<path d="M214.86 49.475C214.86 49.475 202.654 45.6745 206.055 35.2609C209.456 24.8472 224.665 30.6509 224.665 30.6509C224.665 30.6509 222.265 21.6367 228.067 19.4415C233.868 17.2325 239.106 24.5591 239.106 24.5591C239.106 24.5591 244.345 17.2325 250.146 19.4415C255.947 21.6504 253.547 30.6509 253.547 30.6509C253.547 30.6509 268.756 24.8472 272.158 35.2609C275.559 45.6745 263.353 49.475 263.353 49.475C263.353 49.475 275.353 52.4797 272.761 62.2897C270.155 72.0996 258.347 68.9028 258.347 68.9028C258.347 68.9028 265.287 79.7143 256.112 83.3227C246.937 86.9311 239.093 74.5829 239.093 74.5829C239.093 74.5829 231.248 86.9311 222.073 83.3227C212.899 79.7143 219.838 68.9028 219.838 68.9028C219.838 68.9028 208.03 72.0996 205.424 62.2897C202.846 52.466 214.86 49.475 214.86 49.475Z" fill="#FCC02C"/>
<path opacity="0.5" d="M225.9 50.3942C225.9 50.3942 219.248 48.3224 221.1 42.656C222.951 36.9896 231.235 40.1452 231.235 40.1452C231.235 40.1452 229.932 35.2334 233.086 34.0397C236.24 32.8461 239.093 36.8249 239.093 36.8249C239.093 36.8249 241.945 32.8323 245.1 34.0397C248.254 35.2334 246.951 40.1452 246.951 40.1452C246.951 40.1452 255.234 36.9896 257.086 42.656C258.937 48.3224 252.286 50.3942 252.286 50.3942C252.286 50.3942 258.827 52.0269 257.401 57.3641C255.989 62.7012 249.557 60.9587 249.557 60.9587C249.557 60.9587 253.328 66.8447 248.336 68.8067C243.344 70.7687 239.079 64.0458 239.079 64.0458C239.079 64.0458 234.814 70.7687 229.822 68.8067C224.83 66.8447 228.601 60.9587 228.601 60.9587C228.601 60.9587 222.169 62.7012 220.757 57.3641C219.372 52.0269 225.9 50.3942 225.9 50.3942Z" fill="white"/>
<path d="M293.881 61.4801C293.881 61.4801 281.675 57.6796 285.076 47.266C288.477 36.8524 303.686 42.656 303.686 42.656C303.686 42.656 301.286 33.6418 307.087 31.4466C312.889 29.2376 318.127 36.5642 318.127 36.5642C318.127 36.5642 323.366 29.2376 329.167 31.4466C334.968 33.6556 332.568 42.656 332.568 42.656C332.568 42.656 347.777 36.8524 351.179 47.266C354.58 57.6796 342.374 61.4801 342.374 61.4801C342.374 61.4801 354.374 64.4848 351.782 74.2948C349.176 84.1047 337.368 80.9079 337.368 80.9079C337.368 80.9079 344.308 91.7194 335.133 95.3279C325.958 98.9363 318.114 86.5881 318.114 86.5881C318.114 86.5881 310.269 98.9363 301.094 95.3279C291.92 91.7194 298.859 80.9079 298.859 80.9079C298.859 80.9079 287.051 84.1047 284.445 74.2948C281.881 64.4711 293.881 61.4801 293.881 61.4801Z" fill="#FCC02C"/>
<path opacity="0.5" d="M304.921 62.3993C304.921 62.3993 298.269 60.3276 300.121 54.6611C301.972 48.9947 310.256 52.1503 310.256 52.1503C310.256 52.1503 308.953 47.2385 312.107 46.0448C315.261 44.8512 318.114 48.83 318.114 48.83C318.114 48.83 320.966 44.8375 324.121 46.0448C327.275 47.2385 325.972 52.1503 325.972 52.1503C325.972 52.1503 334.255 48.9947 336.107 54.6611C337.958 60.3276 331.307 62.3993 331.307 62.3993C331.307 62.3993 337.848 64.032 336.422 69.3692C335.01 74.7063 328.578 72.9639 328.578 72.9639C328.578 72.9639 332.349 78.8498 327.357 80.8118C322.365 82.7738 318.1 76.0509 318.1 76.0509C318.1 76.0509 313.835 82.7738 308.843 80.8118C303.851 78.8498 307.622 72.9639 307.622 72.9639C307.622 72.9639 301.19 74.7063 299.778 69.3692C298.393 64.032 304.921 62.3993 304.921 62.3993Z" fill="white"/>
<path d="M372.326 71.9486C372.326 71.9486 360.12 68.1481 363.521 57.7345C366.922 47.3209 382.131 53.1245 382.131 53.1245C382.131 53.1245 379.731 44.1103 385.533 41.9151C391.334 39.7062 396.572 47.0327 396.572 47.0327C396.572 47.0327 401.811 39.7062 407.612 41.9151C413.413 44.1241 411.013 53.1245 411.013 53.1245C411.013 53.1245 426.222 47.3209 429.624 57.7345C433.025 68.1481 420.819 71.9486 420.819 71.9486C420.819 71.9486 432.819 74.9534 430.227 84.7633C427.621 94.5732 415.813 91.3764 415.813 91.3764C415.813 91.3764 422.753 102.188 413.578 105.796C404.403 109.405 396.559 97.0566 396.559 97.0566C396.559 97.0566 388.714 109.405 379.539 105.796C370.365 102.188 377.304 91.3764 377.304 91.3764C377.304 91.3764 365.496 94.5732 362.89 84.7633C360.326 74.9534 372.326 71.9486 372.326 71.9486Z" fill="#FCC02C"/>
<path opacity="0.5" d="M383.379 72.8678C383.379 72.8678 376.728 70.7961 378.58 65.1296C380.431 59.4632 388.714 62.6188 388.714 62.6188C388.714 62.6188 387.411 57.707 390.566 56.5133C393.72 55.3197 396.573 59.2985 396.573 59.2985C396.573 59.2985 399.425 55.306 402.579 56.5133C405.734 57.707 404.431 62.6188 404.431 62.6188C404.431 62.6188 412.714 59.4632 414.566 65.1296C416.417 70.7961 409.766 72.8678 409.766 72.8678C409.766 72.8678 416.307 74.5005 414.881 79.8377C413.468 85.1748 407.036 83.4324 407.036 83.4324C407.036 83.4324 410.808 89.3183 405.816 91.2803C400.824 93.2423 396.559 86.5194 396.559 86.5194C396.559 86.5194 392.294 93.2423 387.302 91.2803C382.31 89.3183 386.081 83.4324 386.081 83.4324C386.081 83.4324 379.649 85.1748 378.237 79.8377C376.838 74.5005 383.379 72.8678 383.379 72.8678Z" fill="white"/>
<path d="M450.812 71.9486C450.812 71.9486 438.606 68.1481 442.008 57.7345C445.409 47.3209 460.618 53.1245 460.618 53.1245C460.618 53.1245 458.218 44.1103 464.019 41.9151C469.82 39.7062 475.059 47.0327 475.059 47.0327C475.059 47.0327 480.298 39.7062 486.099 41.9151C491.9 44.1241 489.5 53.1245 489.5 53.1245C489.5 53.1245 504.709 47.3209 508.11 57.7345C511.511 68.1481 499.305 71.9486 499.305 71.9486C499.305 71.9486 511.305 74.9534 508.713 84.7633C506.108 94.5732 494.3 91.3764 494.3 91.3764C494.3 91.3764 501.239 102.188 492.064 105.796C482.89 109.405 475.045 97.0566 475.045 97.0566C475.045 97.0566 467.201 109.405 458.026 105.796C448.851 102.188 455.79 91.3764 455.79 91.3764C455.79 91.3764 443.982 94.5732 441.377 84.7633C438.812 74.9534 450.812 71.9486 450.812 71.9486Z" fill="#FCC02C"/>
<path opacity="0.5" d="M461.866 72.8678C461.866 72.8678 455.214 70.7961 457.066 65.1296C458.917 59.4632 467.201 62.6188 467.201 62.6188C467.201 62.6188 465.898 57.707 469.052 56.5133C472.206 55.3197 475.059 59.2985 475.059 59.2985C475.059 59.2985 477.911 55.306 481.066 56.5133C484.22 57.707 482.917 62.6188 482.917 62.6188C482.917 62.6188 491.2 59.4632 493.052 65.1296C494.903 70.7961 488.252 72.8678 488.252 72.8678C488.252 72.8678 494.794 74.5005 493.367 79.8377C491.955 85.1748 485.523 83.4324 485.523 83.4324C485.523 83.4324 489.294 89.3183 484.302 91.2803C479.31 93.2423 475.045 86.5194 475.045 86.5194C475.045 86.5194 470.78 93.2423 465.788 91.2803C460.796 89.3183 464.568 83.4324 464.568 83.4324C464.568 83.4324 458.136 85.1748 456.723 79.8377C455.324 74.5005 461.866 72.8678 461.866 72.8678Z" fill="white"/>
<path d="M532.521 67.1466C532.521 67.1466 520.316 63.3461 523.717 52.9325C527.118 42.5189 542.327 48.3225 542.327 48.3225C542.327 48.3225 539.927 39.3083 545.728 37.1131C551.529 34.9042 556.768 42.2307 556.768 42.2307C556.768 42.2307 562.007 34.9042 567.808 37.1131C573.609 39.3221 571.209 48.3225 571.209 48.3225C571.209 48.3225 586.418 42.5189 589.819 52.9325C593.22 63.3461 581.014 67.1466 581.014 67.1466C581.014 67.1466 593.014 70.1513 590.422 79.9613C587.817 89.7712 576.009 86.5744 576.009 86.5744C576.009 86.5744 582.948 97.3859 573.773 100.994C564.599 104.603 556.754 92.2546 556.754 92.2546C556.754 92.2546 548.91 104.603 539.735 100.994C530.56 97.3859 537.499 86.5744 537.499 86.5744C537.499 86.5744 525.691 89.7712 523.086 79.9613C520.521 70.1513 532.521 67.1466 532.521 67.1466Z" fill="#FCC02C"/>
<path opacity="0.5" d="M543.575 68.0658C543.575 68.0658 536.923 65.9941 538.775 60.3276C540.626 54.6612 548.91 57.8168 548.91 57.8168C548.91 57.8168 547.607 52.905 550.761 51.7113C553.915 50.5177 556.768 54.4965 556.768 54.4965C556.768 54.4965 559.62 50.504 562.775 51.7113C565.929 52.905 564.626 57.8168 564.626 57.8168C564.626 57.8168 572.909 54.6612 574.761 60.3276C576.612 65.9941 569.961 68.0658 569.961 68.0658C569.961 68.0658 576.503 69.6985 575.076 75.0357C573.664 80.3728 567.232 78.6304 567.232 78.6304C567.232 78.6304 571.003 84.5163 566.011 86.4783C561.019 88.4403 556.754 81.7174 556.754 81.7174C556.754 81.7174 552.489 88.4403 547.497 86.4783C542.505 84.5163 546.276 78.6304 546.276 78.6304C546.276 78.6304 539.845 80.3728 538.432 75.0357C537.033 69.6985 543.575 68.0658 543.575 68.0658Z" fill="white"/>
<path d="M621.828 49.475C621.828 49.475 609.622 45.6745 613.023 35.2609C616.424 24.8472 631.633 30.6509 631.633 30.6509C631.633 30.6509 629.233 21.6367 635.034 19.4415C640.836 17.2325 646.074 24.5591 646.074 24.5591C646.074 24.5591 651.313 17.2325 657.114 19.4415C662.915 21.6504 660.515 30.6509 660.515 30.6509C660.515 30.6509 675.724 24.8472 679.126 35.2609C682.527 45.6745 670.321 49.475 670.321 49.475C670.321 49.475 682.321 52.4797 679.729 62.2897C677.123 72.0996 665.315 68.9028 665.315 68.9028C665.315 68.9028 672.255 79.7143 663.08 83.3227C653.905 86.9311 646.061 74.5829 646.061 74.5829C646.061 74.5829 638.216 86.9311 629.041 83.3227C619.867 79.7143 626.806 68.9028 626.806 68.9028C626.806 68.9028 614.998 72.0996 612.392 62.2897C609.828 52.466 621.828 49.475 621.828 49.475Z" fill="#FCC02C"/>
<path opacity="0.5" d="M632.881 50.3942C632.881 50.3942 626.23 48.3224 628.081 42.656C629.933 36.9896 638.216 40.1452 638.216 40.1452C638.216 40.1452 636.913 35.2334 640.068 34.0397C643.222 32.8461 646.074 36.8249 646.074 36.8249C646.074 36.8249 648.927 32.8323 652.081 34.0397C655.236 35.2334 653.933 40.1452 653.933 40.1452C653.933 40.1452 662.216 36.9896 664.067 42.656C665.919 48.3224 659.267 50.3942 659.267 50.3942C659.267 50.3942 665.809 52.0269 664.383 57.3641C662.97 62.7012 656.538 60.9587 656.538 60.9587C656.538 60.9587 660.31 66.8447 655.318 68.8067C650.326 70.7687 646.061 64.0458 646.061 64.0458C646.061 64.0458 641.796 70.7687 636.804 68.8067C631.812 66.8447 635.583 60.9587 635.583 60.9587C635.583 60.9587 629.151 62.7012 627.739 57.3641C626.34 52.0269 632.881 50.3942 632.881 50.3942Z" fill="white"/>
<path d="M706.17 29.0045C706.17 29.0045 693.964 25.204 697.365 14.7904C700.766 4.37677 715.975 10.1804 715.975 10.1804C715.975 10.1804 713.575 1.16625 719.377 -1.02898C725.178 -3.22422 730.416 4.08865 730.416 4.08865C730.416 4.08865 735.655 -3.23794 741.456 -1.02898C747.257 1.17997 744.857 10.1804 744.857 10.1804C744.857 10.1804 760.066 4.37677 763.468 14.7904C766.869 25.204 754.663 29.0045 754.663 29.0045C754.663 29.0045 766.663 32.0093 764.071 41.8192C761.465 51.6291 749.657 48.4323 749.657 48.4323C749.657 48.4323 756.597 59.2438 747.422 62.8522C738.247 66.4607 730.403 54.1125 730.403 54.1125C730.403 54.1125 722.558 66.4607 713.383 62.8522C704.209 59.2438 711.148 48.4323 711.148 48.4323C711.148 48.4323 699.34 51.6291 696.734 41.8192C694.17 32.0093 706.17 29.0045 706.17 29.0045Z" fill="#FCC02C"/>
<path opacity="0.5" d="M717.223 29.9237C717.223 29.9237 710.572 27.852 712.424 22.1855C714.275 16.5191 722.558 19.6747 722.558 19.6747C722.558 19.6747 721.255 14.7629 724.41 13.5693C727.564 12.3756 730.417 16.3545 730.417 16.3545C730.417 16.3545 733.269 12.3619 736.423 13.5693C739.578 14.7629 738.275 19.6747 738.275 19.6747C738.275 19.6747 746.558 16.5191 748.409 22.1855C750.261 27.852 743.61 29.9237 743.61 29.9237C743.61 29.9237 750.151 31.5564 748.725 36.8936C747.312 42.2307 740.88 40.4883 740.88 40.4883C740.88 40.4883 744.652 46.3743 739.66 48.3362C734.668 50.2982 730.403 43.5753 730.403 43.5753C730.403 43.5753 726.138 50.2982 721.146 48.3362C716.154 46.3743 719.925 40.4883 719.925 40.4883C719.925 40.4883 713.493 42.2307 712.081 36.8936C710.682 31.5564 717.223 29.9237 717.223 29.9237Z" fill="white"/>
<path d="M786.302 2.20887C786.302 2.20887 774.096 -1.59162 777.497 -12.0053C780.898 -22.4189 796.107 -16.6152 796.107 -16.6152C796.107 -16.6152 793.707 -25.6294 799.508 -27.8246C805.309 -30.0336 810.548 -22.707 810.548 -22.707C810.548 -22.707 815.787 -30.0336 821.588 -27.8246C827.389 -25.6157 824.989 -16.6152 824.989 -16.6152C824.989 -16.6152 840.198 -22.4189 843.599 -12.0053C847.001 -1.59162 834.795 2.20887 834.795 2.20887C834.795 2.20887 846.795 5.21359 844.203 15.0235C841.597 24.8335 829.789 21.6367 829.789 21.6367C829.789 21.6367 836.729 32.4482 827.554 36.0566C818.379 39.665 810.535 27.3168 810.535 27.3168C810.535 27.3168 802.69 39.665 793.515 36.0566C784.341 32.4482 791.28 21.6367 791.28 21.6367C791.28 21.6367 779.472 24.8335 776.866 15.0235C774.302 5.21359 786.302 2.20887 786.302 2.20887Z" fill="#FCC02C"/>
<path opacity="0.5" d="M797.355 3.12807C797.355 3.12807 790.704 1.05632 792.555 -4.61012C794.407 -10.2766 802.69 -7.12092 802.69 -7.12092C802.69 -7.12092 801.387 -12.0327 804.542 -13.2264C807.696 -14.4201 810.548 -10.4412 810.548 -10.4412C810.548 -10.4412 813.401 -14.4338 816.555 -13.2264C819.709 -12.0327 818.407 -7.12092 818.407 -7.12092C818.407 -7.12092 826.69 -10.2766 828.541 -4.61012C830.393 1.05632 823.741 3.12807 823.741 3.12807C823.741 3.12807 830.283 4.76078 828.857 10.0979C827.444 15.4351 821.012 13.6926 821.012 13.6926C821.012 13.6926 824.784 19.5786 819.792 21.5406C814.8 23.5026 810.535 16.7797 810.535 16.7797C810.535 16.7797 806.27 23.5026 801.278 21.5406C796.286 19.5786 800.057 13.6926 800.057 13.6926C800.057 13.6926 793.625 15.4351 792.213 10.0979C790.814 4.76078 797.355 3.12807 797.355 3.12807Z" fill="white"/>
<path d="M859.453 -33.1481C859.453 -33.1481 847.247 -36.9486 850.649 -47.3622C854.05 -57.7758 869.259 -51.9722 869.259 -51.9722C869.259 -51.9722 866.859 -60.9863 872.66 -63.1816C878.461 -65.3905 883.7 -58.0639 883.7 -58.0639C883.7 -58.0639 888.938 -65.3905 894.74 -63.1816C900.541 -60.9726 898.141 -51.9722 898.141 -51.9722C898.141 -51.9722 913.35 -57.7758 916.751 -47.3622C920.152 -36.9486 907.946 -33.1481 907.946 -33.1481C907.946 -33.1481 919.946 -30.1433 917.354 -20.3334C914.749 -10.5235 902.941 -13.7203 902.941 -13.7203C902.941 -13.7203 909.88 -2.90874 900.705 0.699669C891.531 4.30808 883.686 -8.0401 883.686 -8.0401C883.686 -8.0401 875.841 4.30808 866.667 0.699669C857.492 -2.90874 864.431 -13.7203 864.431 -13.7203C864.431 -13.7203 852.623 -10.5235 850.018 -20.3334C847.439 -30.1433 859.453 -33.1481 859.453 -33.1481Z" fill="#FCC02C"/>
<path d="M8.92782 -16.8072C8.92782 -16.8072 -3.27778 -20.6077 0.123333 -31.0214C3.52445 -41.435 18.7335 -35.6314 18.7335 -35.6314C18.7335 -35.6314 16.3335 -44.6455 22.1346 -46.8408C27.9357 -49.0497 33.1745 -41.7231 33.1745 -41.7231C33.1745 -41.7231 38.4133 -49.0497 44.2144 -46.8408C50.0155 -44.6318 47.6155 -35.6314 47.6155 -35.6314C47.6155 -35.6314 62.8245 -41.435 66.2256 -31.0214C69.6267 -20.6077 57.4211 -16.8072 57.4211 -16.8072C57.4211 -16.8072 69.421 -13.8025 66.829 -3.99257C64.2234 5.81737 52.4155 2.62056 52.4155 2.62056C52.4155 2.62056 59.3548 13.4321 50.18 17.0405C41.0053 20.6489 33.1608 8.30072 33.1608 8.30072C33.1608 8.30072 25.3163 20.6489 16.1415 17.0405C6.9667 13.4321 13.9061 2.62056 13.9061 2.62056C13.9061 2.62056 2.09817 5.81737 -0.507518 -3.99257C-3.07207 -13.8025 8.92782 -16.8072 8.92782 -16.8072Z" fill="#F15067"/>
<path opacity="0.5" d="M19.9815 -15.888C19.9815 -15.888 13.3302 -17.9598 15.1816 -23.6262C17.033 -29.2927 25.3163 -26.137 25.3163 -26.137C25.3163 -26.137 24.0135 -31.0489 27.1678 -32.2425C30.322 -33.4362 33.1746 -29.4573 33.1746 -29.4573C33.1746 -29.4573 36.0271 -33.4499 39.1814 -32.2425C42.3356 -31.0489 41.0328 -26.137 41.0328 -26.137C41.0328 -26.137 49.3161 -29.2927 51.1676 -23.6262C53.019 -17.9598 46.3676 -15.888 46.3676 -15.888C46.3676 -15.888 52.9093 -14.2553 51.483 -8.91817C50.0704 -3.58102 43.6385 -5.32348 43.6385 -5.32348C43.6385 -5.32348 47.4099 0.562489 42.4179 2.52448C37.426 4.48647 33.1609 -2.23643 33.1609 -2.23643C33.1609 -2.23643 28.8957 4.48647 23.9038 2.52448C18.9118 0.562489 22.6832 -5.32348 22.6832 -5.32348C22.6832 -5.32348 16.2513 -3.58102 14.8387 -8.91817C13.4399 -14.2553 19.9815 -15.888 19.9815 -15.888Z" fill="white"/>
<path d="M85.0413 15.6547C85.0413 15.6547 72.8357 11.8542 76.2368 1.44056C79.638 -8.97307 94.847 -3.16943 94.847 -3.16943C94.847 -3.16943 92.447 -12.1836 98.2481 -14.3788C104.049 -16.5741 109.288 -9.2612 109.288 -9.2612C109.288 -9.2612 114.527 -16.5878 120.328 -14.3788C126.129 -12.1699 123.729 -3.16943 123.729 -3.16943C123.729 -3.16943 138.938 -8.97307 142.339 1.44056C145.74 11.8542 133.535 15.6547 133.535 15.6547C133.535 15.6547 145.535 18.6594 142.943 28.4693C140.337 38.2793 128.529 35.0825 128.529 35.0825C128.529 35.0825 135.468 45.894 126.294 49.5024C117.119 53.1108 109.274 40.7626 109.274 40.7626C109.274 40.7626 101.43 53.1108 92.255 49.5024C83.0802 45.894 90.0196 35.0825 90.0196 35.0825C90.0196 35.0825 78.2117 38.2793 75.606 28.4693C73.0415 18.6594 85.0413 15.6547 85.0413 15.6547Z" fill="#F15067"/>
<path opacity="0.5" d="M96.0951 16.5876C96.0951 16.5876 89.4437 14.5158 91.2951 8.84936C93.1465 3.18291 101.43 6.33857 101.43 6.33857C101.43 6.33857 100.127 1.42673 103.281 0.233072C106.436 -0.960585 109.288 3.01827 109.288 3.01827C109.288 3.01827 112.141 -0.974305 115.295 0.233072C118.449 1.42673 117.146 6.33857 117.146 6.33857C117.146 6.33857 125.43 3.18291 127.281 8.84936C129.132 14.5158 122.481 16.5876 122.481 16.5876C122.481 16.5876 129.023 18.2203 127.597 23.5574C126.184 28.8946 119.752 27.1521 119.752 27.1521C119.752 27.1521 123.523 33.0381 118.531 35.0001C113.539 36.9621 109.274 30.2392 109.274 30.2392C109.274 30.2392 105.009 36.9621 100.017 35.0001C95.0254 33.0381 98.7968 27.1521 98.7968 27.1521C98.7968 27.1521 92.3648 28.8946 90.9523 23.5574C89.5534 18.2203 96.0951 16.5876 96.0951 16.5876Z" fill="white"/>
<path d="M168.616 41.8602C168.616 41.8602 156.41 38.0597 159.811 27.6461C163.212 17.2325 178.421 23.0361 178.421 23.0361C178.421 23.0361 176.021 14.022 181.822 11.8267C187.623 9.61778 192.862 16.9444 192.862 16.9444C192.862 16.9444 198.101 9.61778 203.902 11.8267C209.703 14.0357 207.303 23.0361 207.303 23.0361C207.303 23.0361 222.512 17.2325 225.913 27.6461C229.314 38.0597 217.109 41.8602 217.109 41.8602C217.109 41.8602 229.109 44.865 226.517 54.6749C223.911 64.4848 212.103 61.288 212.103 61.288C212.103 61.288 219.043 72.0996 209.868 75.708C200.693 79.3164 192.849 66.9682 192.849 66.9682C192.849 66.9682 185.004 79.3164 175.829 75.708C166.654 72.0996 173.594 61.288 173.594 61.288C173.594 61.288 161.786 64.4848 159.18 54.6749C156.616 44.8512 168.616 41.8602 168.616 41.8602Z" fill="#F15067"/>
<path opacity="0.5" d="M179.669 42.7794C179.669 42.7794 173.018 40.7077 174.869 35.0412C176.721 29.3748 185.004 32.5305 185.004 32.5305C185.004 32.5305 183.701 27.6186 186.856 26.425C190.01 25.2313 192.862 29.2102 192.862 29.2102C192.862 29.2102 195.715 25.2176 198.869 26.425C202.023 27.6186 200.721 32.5305 200.721 32.5305C200.721 32.5305 209.004 29.3748 210.855 35.0412C212.707 40.7077 206.055 42.7794 206.055 42.7794C206.055 42.7794 212.597 44.4121 211.171 49.7493C209.758 55.0865 203.326 53.344 203.326 53.344C203.326 53.344 207.098 59.23 202.106 61.1919C197.114 63.1539 192.849 56.431 192.849 56.431C192.849 56.431 188.583 63.1539 183.592 61.1919C178.6 59.23 182.371 53.344 182.371 53.344C182.371 53.344 175.939 55.0865 174.526 49.7493C173.128 44.4121 179.669 42.7794 179.669 42.7794Z" fill="white"/>
<path d="M255.262 56.6505C255.262 56.6505 243.056 52.85 246.457 42.4364C249.858 32.0228 265.067 37.8264 265.067 37.8264C265.067 37.8264 262.667 28.8122 268.468 26.617C274.269 24.4081 279.508 31.7346 279.508 31.7346C279.508 31.7346 284.747 24.4081 290.548 26.617C296.349 28.826 293.949 37.8264 293.949 37.8264C293.949 37.8264 309.158 32.0228 312.559 42.4364C315.961 52.85 303.755 56.6505 303.755 56.6505C303.755 56.6505 315.755 59.6552 313.163 69.4652C310.557 79.2751 298.749 76.0783 298.749 76.0783C298.749 76.0783 305.689 86.8898 296.514 90.4982C287.339 94.1067 279.495 81.7585 279.495 81.7585C279.495 81.7585 271.65 94.1067 262.475 90.4982C253.3 86.8898 260.24 76.0783 260.24 76.0783C260.24 76.0783 248.432 79.2751 245.826 69.4652C243.248 59.6552 255.262 56.6505 255.262 56.6505Z" fill="#F15067"/>
<path opacity="0.5" d="M266.302 57.5697C266.302 57.5697 259.65 55.498 261.502 49.8315C263.353 44.1651 271.636 47.3207 271.636 47.3207C271.636 47.3207 270.333 42.4089 273.488 41.2153C276.642 40.0216 279.495 44.0004 279.495 44.0004C279.495 44.0004 282.347 40.0079 285.501 41.2153C288.656 42.4089 287.353 47.3207 287.353 47.3207C287.353 47.3207 295.636 44.1651 297.488 49.8315C299.339 55.498 292.688 57.5697 292.688 57.5697C292.688 57.5697 299.229 59.2024 297.803 64.5396C296.39 69.8767 289.958 68.1343 289.958 68.1343C289.958 68.1343 293.73 74.0202 288.738 75.9822C283.746 77.9442 279.481 71.2213 279.481 71.2213C279.481 71.2213 275.216 77.9442 270.224 75.9822C265.232 74.0202 269.003 68.1343 269.003 68.1343C269.003 68.1343 262.571 69.8767 261.159 64.5396C259.774 59.2024 266.302 57.5697 266.302 57.5697Z" fill="white"/>
<path d="M334.461 67.1466C334.461 67.1466 322.255 63.3461 325.657 52.9325C329.058 42.5189 344.267 48.3225 344.267 48.3225C344.267 48.3225 341.867 39.3083 347.668 37.1131C353.469 34.9179 358.708 42.2307 358.708 42.2307C358.708 42.2307 363.947 34.9042 369.748 37.1131C375.549 39.3221 373.149 48.3225 373.149 48.3225C373.149 48.3225 388.358 42.5189 391.759 52.9325C395.16 63.3461 382.954 67.1466 382.954 67.1466C382.954 67.1466 394.954 70.1513 392.362 79.9613C389.757 89.7712 377.949 86.5744 377.949 86.5744C377.949 86.5744 384.888 97.3859 375.713 100.994C366.539 104.603 358.694 92.2546 358.694 92.2546C358.694 92.2546 350.85 104.603 341.675 100.994C332.5 97.3859 339.439 86.5744 339.439 86.5744C339.439 86.5744 327.631 89.7712 325.026 79.9613C322.447 70.1513 334.461 67.1466 334.461 67.1466Z" fill="#F15067"/>
<path opacity="0.5" d="M345.501 68.0658C345.501 68.0658 338.85 65.9941 340.701 60.3276C342.552 54.6612 350.836 57.8168 350.836 57.8168C350.836 57.8168 349.533 52.905 352.687 51.7113C355.841 50.5177 358.694 54.4965 358.694 54.4965C358.694 54.4965 361.547 50.504 364.701 51.7113C367.855 52.905 366.552 57.8168 366.552 57.8168C366.552 57.8168 374.836 54.6612 376.687 60.3276C378.538 65.9941 371.887 68.0658 371.887 68.0658C371.887 68.0658 378.429 69.6985 377.002 75.0357C375.59 80.3728 369.158 78.6304 369.158 78.6304C369.158 78.6304 372.929 84.5163 367.937 86.4783C362.945 88.4403 358.68 81.7174 358.68 81.7174C358.68 81.7174 354.415 88.4403 349.423 86.4783C344.431 84.5163 348.203 78.6304 348.203 78.6304C348.203 78.6304 341.771 80.3728 340.358 75.0357C338.973 69.6985 345.501 68.0658 345.501 68.0658Z" fill="white"/>
<path d="M411.836 71.9486C411.836 71.9486 399.631 68.1481 403.032 57.7345C406.433 47.3209 421.642 53.1245 421.642 53.1245C421.642 53.1245 419.242 44.1103 425.043 41.9151C430.844 39.7062 436.083 47.0327 436.083 47.0327C436.083 47.0327 441.322 39.7062 447.123 41.9151C452.924 44.1241 450.524 53.1245 450.524 53.1245C450.524 53.1245 465.733 47.3209 469.134 57.7345C472.535 68.1481 460.33 71.9486 460.33 71.9486C460.33 71.9486 472.329 74.9534 469.738 84.7633C467.132 94.5732 455.324 91.3764 455.324 91.3764C455.324 91.3764 462.263 102.188 453.089 105.796C443.914 109.405 436.069 97.0566 436.069 97.0566C436.069 97.0566 428.225 109.405 419.05 105.796C409.875 102.188 416.815 91.3764 416.815 91.3764C416.815 91.3764 405.007 94.5732 402.401 84.7633C399.836 74.9534 411.836 71.9486 411.836 71.9486Z" fill="#F15067"/>
<path opacity="0.5" d="M422.89 72.8678C422.89 72.8678 416.239 70.7961 418.09 65.1296C419.941 59.4632 428.225 62.6188 428.225 62.6188C428.225 62.6188 426.922 57.707 430.076 56.5133C433.23 55.3197 436.083 59.2985 436.083 59.2985C436.083 59.2985 438.936 55.306 442.09 56.5133C445.244 57.707 443.941 62.6188 443.941 62.6188C443.941 62.6188 452.225 59.4632 454.076 65.1296C455.927 70.7961 449.276 72.8678 449.276 72.8678C449.276 72.8678 455.818 74.5005 454.391 79.8377C452.979 85.1748 446.547 83.4324 446.547 83.4324C446.547 83.4324 450.318 89.3183 445.326 91.2803C440.334 93.2423 436.069 86.5194 436.069 86.5194C436.069 86.5194 431.804 93.2423 426.812 91.2803C421.82 89.3183 425.592 83.4324 425.592 83.4324C425.592 83.4324 419.16 85.1748 417.747 79.8377C416.348 74.5005 422.89 72.8678 422.89 72.8678Z" fill="white"/>
<path d="M491.379 71.9486C491.379 71.9486 479.173 68.1481 482.574 57.7345C485.975 47.3209 501.184 53.1245 501.184 53.1245C501.184 53.1245 498.784 44.1103 504.585 41.9151C510.386 39.7062 515.625 47.0327 515.625 47.0327C515.625 47.0327 520.864 39.7062 526.665 41.9151C532.466 44.1241 530.066 53.1245 530.066 53.1245C530.066 53.1245 545.275 47.3209 548.676 57.7345C552.077 68.1481 539.872 71.9486 539.872 71.9486C539.872 71.9486 551.872 74.9534 549.28 84.7633C546.674 94.5732 534.866 91.3764 534.866 91.3764C534.866 91.3764 541.806 102.188 532.631 105.796C523.456 109.405 515.611 97.0566 515.611 97.0566C515.611 97.0566 507.767 109.405 498.592 105.796C489.417 102.188 496.357 91.3764 496.357 91.3764C496.357 91.3764 484.549 94.5732 481.943 84.7633C479.379 74.9534 491.379 71.9486 491.379 71.9486Z" fill="#F15067"/>
<path opacity="0.5" d="M502.432 72.8678C502.432 72.8678 495.781 70.7961 497.632 65.1296C499.484 59.4632 507.767 62.6188 507.767 62.6188C507.767 62.6188 506.464 57.707 509.618 56.5133C512.773 55.3197 515.625 59.2985 515.625 59.2985C515.625 59.2985 518.478 55.306 521.632 56.5133C524.786 57.707 523.483 62.6188 523.483 62.6188C523.483 62.6188 531.767 59.4632 533.618 65.1296C535.47 70.7961 528.818 72.8678 528.818 72.8678C528.818 72.8678 535.36 74.5005 533.934 79.8377C532.521 85.1748 526.089 83.4324 526.089 83.4324C526.089 83.4324 529.861 89.3183 524.869 91.2803C519.877 93.2423 515.612 86.5194 515.612 86.5194C515.612 86.5194 511.346 93.2423 506.354 91.2803C501.363 89.3183 505.134 83.4324 505.134 83.4324C505.134 83.4324 498.702 85.1748 497.289 79.8377C495.891 74.5005 502.432 72.8678 502.432 72.8678Z" fill="white"/>
<path d="M578.724 59.0516C578.724 59.0516 566.518 55.2512 569.92 44.8375C573.321 34.4239 588.53 40.2275 588.53 40.2275C588.53 40.2275 586.13 31.2134 591.931 29.0181C597.732 26.8092 602.971 34.1358 602.971 34.1358C602.971 34.1358 608.209 26.8092 614.011 29.0181C619.812 31.2271 617.412 40.2275 617.412 40.2275C617.412 40.2275 632.621 34.4239 636.022 44.8375C639.423 55.2512 627.217 59.0516 627.217 59.0516C627.217 59.0516 639.217 62.0564 636.625 71.8663C634.02 81.6763 622.212 78.4795 622.212 78.4795C622.212 78.4795 629.151 89.291 619.976 92.8994C610.802 96.5078 602.957 84.1596 602.957 84.1596C602.957 84.1596 595.112 96.5078 585.938 92.8994C576.763 89.291 583.702 78.4795 583.702 78.4795C583.702 78.4795 571.894 81.6763 569.289 71.8663C566.71 62.0564 578.724 59.0516 578.724 59.0516Z" fill="#F15067"/>
<path opacity="0.5" d="M589.764 59.9845C589.764 59.9845 583.113 57.9128 584.964 52.2463C586.815 46.5799 595.099 49.7355 595.099 49.7355C595.099 49.7355 593.796 44.8237 596.95 43.63C600.104 42.4364 602.957 46.4152 602.957 46.4152C602.957 46.4152 605.809 42.4227 608.964 43.63C612.118 44.8237 610.815 49.7355 610.815 49.7355C610.815 49.7355 619.098 46.5799 620.95 52.2463C622.801 57.9128 616.15 59.9845 616.15 59.9845C616.15 59.9845 622.692 61.6172 621.265 66.9544C619.853 72.2915 613.421 70.5491 613.421 70.5491C613.421 70.5491 617.192 76.435 612.2 78.397C607.208 80.359 602.943 73.6361 602.943 73.6361C602.943 73.6361 598.678 80.359 593.686 78.397C588.694 76.435 592.466 70.5491 592.466 70.5491C592.466 70.5491 586.034 72.2915 584.621 66.9544C583.236 61.6172 589.764 59.9845 589.764 59.9845Z" fill="white"/>
<path d="M661.695 41.38C661.695 41.38 649.489 37.5795 652.89 27.1659C656.291 16.7523 671.5 22.5559 671.5 22.5559C671.5 22.5559 669.1 13.5417 674.902 11.3465C680.703 9.13755 685.941 16.4641 685.941 16.4641C685.941 16.4641 691.18 9.13755 696.981 11.3465C702.782 13.5555 700.382 22.5559 700.382 22.5559C700.382 22.5559 715.591 16.7523 718.993 27.1659C722.394 37.5795 710.188 41.38 710.188 41.38C710.188 41.38 722.188 44.3847 719.596 54.1947C716.99 64.0046 705.182 60.8078 705.182 60.8078C705.182 60.8078 712.122 71.6193 702.947 75.2277C693.772 78.8362 685.928 66.488 685.928 66.488C685.928 66.488 678.083 78.8362 668.908 75.2277C659.734 71.6193 666.673 60.8078 666.673 60.8078C666.673 60.8078 654.865 64.0046 652.259 54.1947C649.681 44.3847 661.695 41.38 661.695 41.38Z" fill="#F15067"/>
<path opacity="0.5" d="M672.735 42.2992C672.735 42.2992 666.083 40.2275 667.935 34.561C669.786 28.8946 678.069 32.0502 678.069 32.0502C678.069 32.0502 676.767 27.1384 679.921 25.9447C683.075 24.7511 685.928 28.7299 685.928 28.7299C685.928 28.7299 688.78 24.7374 691.934 25.9447C695.089 27.1384 693.786 32.0502 693.786 32.0502C693.786 32.0502 702.069 28.8946 703.921 34.561C705.772 40.2275 699.121 42.2992 699.121 42.2992C699.121 42.2992 705.662 43.9319 704.236 49.2691C702.824 54.6062 696.392 52.8638 696.392 52.8638C696.392 52.8638 700.163 58.7497 695.171 60.7117C690.179 62.6737 685.914 55.9508 685.914 55.9508C685.914 55.9508 681.649 62.6737 676.657 60.7117C671.665 58.7497 675.436 52.8638 675.436 52.8638C675.436 52.8638 669.004 54.6062 667.592 49.2691C666.207 43.9319 672.735 42.2992 672.735 42.2992Z" fill="white"/>
<path d="M746.037 13.1576C746.037 13.1576 733.831 9.35712 737.232 -1.05651C740.633 -11.4701 755.842 -5.6665 755.842 -5.6665C755.842 -5.6665 753.442 -14.6807 759.244 -16.8759C765.045 -19.0849 770.283 -11.7583 770.283 -11.7583C770.283 -11.7583 775.522 -19.0849 781.323 -16.8759C787.124 -14.667 784.724 -5.6665 784.724 -5.6665C784.724 -5.6665 799.934 -11.4701 803.335 -1.05651C806.736 9.35712 794.53 13.1576 794.53 13.1576C794.53 13.1576 806.53 16.1623 803.938 25.9723C801.332 35.7822 789.524 32.5854 789.524 32.5854C789.524 32.5854 796.464 43.3969 787.289 47.0053C778.114 50.6138 770.27 38.2656 770.27 38.2656C770.27 38.2656 762.425 50.6138 753.25 47.0053C744.076 43.3969 751.015 32.5854 751.015 32.5854C751.015 32.5854 739.207 35.7822 736.601 25.9723C734.023 16.1623 746.037 13.1576 746.037 13.1576Z" fill="#F15067"/>
<path opacity="0.5" d="M757.077 14.0768C757.077 14.0768 750.425 12.0051 752.277 6.33861C754.128 0.672171 762.412 3.82781 762.412 3.82781C762.412 3.82781 761.109 -1.08401 764.263 -2.27767C767.417 -3.47133 770.27 0.507529 770.27 0.507529C770.27 0.507529 773.122 -3.48505 776.277 -2.27767C779.431 -1.08401 778.128 3.82781 778.128 3.82781C778.128 3.82781 786.411 0.672171 788.263 6.33861C790.114 12.0051 783.463 14.0768 783.463 14.0768C783.463 14.0768 790.004 15.7095 788.578 21.0467C787.166 26.3838 780.734 24.6414 780.734 24.6414C780.734 24.6414 784.505 30.5273 779.513 32.4893C774.521 34.4513 770.256 27.7284 770.256 27.7284C770.256 27.7284 765.991 34.4513 760.999 32.4893C756.007 30.5273 759.778 24.6414 759.778 24.6414C759.778 24.6414 753.346 26.3838 751.934 21.0467C750.549 15.7095 757.077 14.0768 757.077 14.0768Z" fill="white"/>
<path d="M821.917 -15.4764C821.917 -15.4764 809.712 -19.2769 813.113 -29.6906C816.514 -40.1042 831.723 -34.3005 831.723 -34.3005C831.723 -34.3005 829.323 -43.3147 835.124 -45.5099C840.925 -47.7189 846.164 -40.3923 846.164 -40.3923C846.164 -40.3923 851.403 -47.7189 857.204 -45.5099C863.005 -43.301 860.605 -34.3005 860.605 -34.3005C860.605 -34.3005 875.814 -40.1042 879.215 -29.6906C882.616 -19.2769 870.411 -15.4764 870.411 -15.4764C870.411 -15.4764 882.41 -12.4717 879.819 -2.66177C877.213 7.14817 865.405 3.95136 865.405 3.95136C865.405 3.95136 872.344 14.7629 863.17 18.3713C853.995 21.9797 846.15 9.63152 846.15 9.63152C846.15 9.63152 838.306 21.9797 829.131 18.3713C819.956 14.7629 826.896 3.95136 826.896 3.95136C826.896 3.95136 815.088 7.14817 812.482 -2.66177C809.917 -12.4717 821.917 -15.4764 821.917 -15.4764Z" fill="#F15067"/>
<path opacity="0.5" d="M832.971 -14.5572C832.971 -14.5572 826.32 -16.629 828.171 -22.2954C830.022 -27.9619 838.306 -24.8062 838.306 -24.8062C838.306 -24.8062 837.003 -29.718 840.157 -30.9117C843.312 -32.1054 846.164 -28.1265 846.164 -28.1265C846.164 -28.1265 849.017 -32.1191 852.171 -30.9117C855.325 -29.718 854.022 -24.8062 854.022 -24.8062C854.022 -24.8062 862.306 -27.9619 864.157 -22.2954C866.008 -16.629 859.357 -14.5572 859.357 -14.5572C859.357 -14.5572 865.899 -12.9245 864.472 -7.58737C863.06 -2.25021 856.628 -3.99267 856.628 -3.99267C856.628 -3.99267 860.399 1.89328 855.407 3.85527C850.415 5.81726 846.15 -0.905626 846.15 -0.905626C846.15 -0.905626 841.885 5.81726 836.893 3.85527C831.901 1.89328 835.673 -3.99267 835.673 -3.99267C835.673 -3.99267 829.241 -2.25021 827.828 -7.58737C826.429 -12.9108 832.971 -14.5572 832.971 -14.5572Z" fill="white"/>
</g>
</svg>
