<svg width="378" height="378" viewBox="0 0 378 378" fill="none" xmlns="http://www.w3.org/2000/svg">
<mask id="mask0_19_1739" style="mask-type:luminance" maskUnits="userSpaceOnUse" x="0" y="0" width="378" height="378">
<path d="M378 0H0V378H378V0Z" fill="white"/>
</mask>
<g mask="url(#mask0_19_1739)">
<path d="M8.88344 -282.392C-152.796 -282.392 -284.354 -150.853 -284.354 10.8451C-284.354 172.524 -152.815 304.082 8.88344 304.082C170.563 304.082 302.121 172.543 302.121 10.8451C302.102 -150.853 170.563 -282.392 8.88344 -282.392ZM8.88344 300.744C-150.966 300.744 -281.015 170.695 -281.015 10.8451C-281.015 -149.005 -150.966 -279.054 8.88344 -279.054C168.733 -279.054 298.782 -149.005 298.782 10.8451C298.782 170.695 168.733 300.744 8.88344 300.744ZM8.88344 -134.896C-71.4847 -134.896 -136.858 -69.523 -136.858 10.8451C-136.858 91.2133 -71.4847 156.587 8.88344 156.587C89.2516 156.587 154.625 91.2133 154.625 10.8451C154.606 -69.523 89.2327 -134.896 8.88344 -134.896ZM8.88344 153.55C-69.806 153.55 -133.821 89.5346 -133.821 10.8451C-133.821 -67.8444 -69.806 -131.86 8.88344 -131.86C87.5729 -131.86 151.588 -67.8444 151.588 10.8451C151.588 89.5346 87.5729 153.55 8.88344 153.55ZM139.479 111.055C142.309 111.98 145.873 112.809 149.627 112.809C155.926 112.809 162.735 110.471 167.432 102.36C174.901 89.4214 166.923 79.142 160.981 73.8231C161.679 73.8608 162.415 73.8797 163.169 73.8797C171.129 73.8797 182.2 71.3523 185.727 58.2059C189.594 43.777 179.22 35.893 172.109 32.3093C179.918 30.6872 191.97 25.7644 191.97 10.8263C191.97 -4.11192 179.918 -9.03473 172.109 -10.6568C179.22 -14.2405 189.594 -22.1245 185.727 -36.5534C181.861 -50.9824 168.941 -52.6233 160.981 -52.1706C166.923 -57.4895 174.901 -67.7689 167.432 -80.7078C159.963 -93.6467 147.062 -91.8737 139.498 -89.384C143.874 -96.0609 148.91 -108.057 138.348 -118.619C127.785 -129.181 115.789 -124.145 109.113 -119.77C111.602 -127.352 113.356 -140.234 100.436 -147.703C87.4975 -155.172 77.2181 -147.194 71.8992 -141.253C72.3518 -149.212 70.7109 -162.132 56.282 -165.999C41.8531 -169.865 33.969 -159.51 30.3854 -152.381C28.7633 -160.189 23.8216 -172.242 8.90232 -172.242C-6.03586 -172.242 -10.9587 -160.189 -12.5808 -152.381C-16.1833 -159.492 -24.0485 -169.865 -38.4774 -165.999C-52.9063 -162.132 -54.5472 -149.212 -54.0946 -141.253C-59.4135 -147.194 -69.6929 -155.172 -82.6318 -147.703C-95.5706 -140.234 -93.7977 -127.333 -91.308 -119.77C-97.9849 -124.145 -109.981 -129.181 -120.543 -118.619C-131.105 -108.057 -126.069 -96.0609 -121.694 -89.384C-129.276 -91.8737 -142.177 -93.6278 -149.627 -80.7078C-157.096 -67.7689 -149.118 -57.4895 -143.177 -52.1706C-151.136 -52.6233 -164.056 -50.9824 -167.923 -36.5534C-171.789 -22.1245 -161.416 -14.2593 -154.305 -10.6568C-162.113 -9.03473 -174.166 -4.09306 -174.166 10.8263C-174.166 25.7644 -162.113 30.6872 -154.305 32.3093C-161.416 35.893 -171.789 43.777 -167.923 58.2059C-164.396 71.3711 -153.324 73.8797 -145.365 73.8797C-144.61 73.8797 -143.874 73.8608 -143.177 73.8231C-149.118 79.142 -157.096 89.4214 -149.627 102.36C-144.95 110.471 -138.122 112.809 -131.822 112.809C-128.069 112.809 -124.504 111.98 -121.675 111.055C-126.051 117.732 -131.087 129.728 -120.524 140.29C-115.884 144.93 -110.98 146.552 -106.359 146.552C-100.456 146.552 -95.0425 143.893 -91.2891 141.441C-93.7788 149.023 -95.5518 161.924 -82.6129 169.393C-78.8783 171.544 -75.3513 172.411 -72.1071 172.411C-64.1288 172.411 -57.848 167.168 -54.0757 162.943C-54.5284 170.902 -52.8874 183.822 -38.4585 187.689C-36.3083 188.274 -34.2901 188.519 -32.4229 188.519C-21.7851 188.519 -15.6174 180.126 -12.5619 174.071C-10.9398 181.88 -6.01701 193.932 8.92117 193.932C23.8593 193.932 28.7822 181.88 30.4042 174.071C33.4598 180.126 39.6086 188.519 50.2652 188.519C52.1325 188.519 54.1506 188.255 56.3008 187.689C70.7298 183.822 72.3707 170.921 71.918 162.943C75.6903 167.168 81.99 172.411 89.9494 172.411C93.1936 172.411 96.7018 171.544 100.455 169.393C113.394 161.924 111.621 149.023 109.131 141.441C112.866 143.893 118.279 146.552 124.202 146.552C128.823 146.552 133.745 144.93 138.367 140.29C148.891 129.728 143.855 117.732 139.479 111.055ZM164.546 100.719C156.681 114.356 141.686 108.792 136.726 106.453C137.197 105.812 137.669 105.171 138.14 104.511C140.969 105.529 143.874 106.019 146.703 106.019C153.154 106.019 159.001 103.473 161.585 99.003C165.3 92.5713 162.188 82.3673 154.682 75.9922C155.002 75.2566 155.323 74.521 155.643 73.7854C160.189 76.9541 172.392 87.1204 164.546 100.719ZM140.139 101.7C145.081 94.5706 149.476 87.026 153.229 79.1231C158.982 84.4609 161.49 92.5147 158.699 97.3432C155.908 102.172 147.646 104.02 140.139 101.7ZM182.502 57.3572C178.447 72.5217 162.622 71.0882 157.171 70.1074C157.473 69.353 157.756 68.6174 158.058 67.8629C158.737 67.9195 159.416 67.9761 160.076 67.9761C169.129 67.9761 177.409 63.1476 179.201 56.4895C181.125 49.3222 175.486 40.2877 166.602 36.0439C166.734 35.2517 166.847 34.4595 166.96 33.6673C172.166 35.5346 186.557 42.2115 182.502 57.3572ZM175.995 55.6219C174.561 60.9974 167.092 64.9206 159.265 64.6376C162.17 56.5273 164.452 48.1151 166.017 39.4577C172.92 43.1168 177.428 50.2464 175.995 55.6219ZM159.246 -42.9474C167.092 -43.2303 174.543 -39.3072 175.976 -33.9317C177.409 -28.5562 172.92 -21.4266 165.998 -17.7675C164.433 -26.4249 162.17 -34.8371 159.246 -42.9474ZM188.632 10.8451C188.632 26.5377 172.996 29.2538 167.47 29.7253C167.564 28.9331 167.658 28.141 167.752 27.3299C177.428 25.5381 185.218 18.2576 185.218 10.8451C185.218 3.4326 177.428 -3.84785 167.752 -5.63968C167.677 -6.43185 167.564 -7.2429 167.47 -8.03508C172.996 -7.56354 188.632 -4.84752 188.632 10.8451ZM168.054 -2.20693C175.693 -0.452827 181.88 5.26216 181.88 10.8263C181.88 16.3904 175.674 22.1053 168.054 23.8594C168.413 19.5591 168.582 15.2021 168.582 10.8263C168.582 6.45043 168.394 2.09345 168.054 -2.20693ZM182.502 -35.6858C186.557 -20.5401 172.166 -13.8632 166.941 -11.9771C166.828 -12.7693 166.715 -13.5615 166.583 -14.3536C175.467 -18.5786 181.106 -27.632 179.182 -34.7993C177.259 -41.9666 167.847 -46.9837 158.039 -46.1915C157.756 -46.946 157.454 -47.6816 157.171 -48.4361C162.641 -49.4168 178.447 -50.8503 182.502 -35.6858ZM164.546 -79.048C172.392 -65.449 160.189 -55.2827 155.643 -52.114C155.323 -52.8496 155.002 -53.5852 154.682 -54.3208C162.188 -60.7148 165.282 -70.9188 161.585 -77.3316C157.869 -83.7633 147.439 -86.1776 138.14 -82.8391C137.669 -83.4804 137.197 -84.1406 136.726 -84.7819C141.686 -87.1207 156.681 -92.6659 164.546 -79.048ZM153.229 -57.4518C149.476 -65.3547 145.1 -72.8992 140.139 -80.0288C147.646 -82.3676 155.908 -80.5003 158.699 -75.6718C161.49 -70.8433 158.982 -62.7895 153.229 -57.4518ZM135.99 -116.261C147.137 -105.133 137.876 -92.0812 134.33 -87.894C133.84 -88.5164 133.331 -89.1388 132.821 -89.7612C138.461 -97.8905 138.819 -108.585 133.557 -113.828C128.295 -119.091 117.6 -118.713 109.49 -113.074C108.867 -113.583 108.245 -114.074 107.623 -114.583C111.81 -118.148 124.843 -127.408 135.99 -116.261ZM130.596 -92.4207C124.956 -99.0599 118.77 -105.246 112.13 -110.886C118.77 -115.092 127.257 -115.432 131.199 -111.49C135.16 -107.547 134.802 -99.0787 130.596 -92.4207ZM98.7577 -144.836C112.394 -136.971 106.83 -121.976 104.492 -117.016C103.85 -117.487 103.209 -117.959 102.568 -118.43C105.906 -127.729 103.492 -138.159 97.0602 -141.875C90.6285 -145.591 80.4245 -142.479 74.0494 -134.972C73.3138 -135.293 72.5782 -135.613 71.8426 -135.934C74.9736 -140.479 85.121 -152.702 98.7577 -144.836ZM99.7385 -120.43C92.6089 -125.371 85.0644 -129.766 77.1615 -133.52C82.4992 -139.272 90.553 -141.781 95.3815 -138.989C100.21 -136.198 102.058 -127.937 99.7385 -120.43ZM55.3955 -162.792C70.56 -158.737 69.1265 -142.912 68.1457 -137.462C67.4102 -137.763 66.6557 -138.046 65.9012 -138.329C66.6934 -148.156 61.6763 -157.549 54.509 -159.473C47.3417 -161.397 38.3071 -155.757 34.0633 -146.873C33.2712 -147.005 32.479 -147.119 31.6868 -147.232C33.5729 -152.456 40.2498 -166.848 55.3955 -162.792ZM62.6571 -139.536C54.5467 -142.441 46.1346 -144.723 37.4772 -146.289C41.1552 -153.211 48.2848 -157.7 53.6414 -156.266C59.0169 -154.833 62.9589 -147.364 62.6571 -139.536ZM8.88344 -168.922C24.5761 -168.922 27.2921 -153.286 27.7637 -147.76C26.9715 -147.854 26.1793 -147.948 25.3683 -148.043C23.5764 -157.737 16.2959 -165.508 8.88344 -165.508C1.47093 -165.508 -5.80952 -157.719 -7.60135 -148.043C-8.39352 -147.967 -9.20457 -147.854 -9.99675 -147.76C-9.52521 -153.286 -6.80919 -168.922 8.88344 -168.922ZM21.9166 -148.326C17.6162 -148.684 13.2781 -148.854 8.88344 -148.854C4.48875 -148.854 0.150635 -148.665 -4.14975 -148.326C-2.39565 -155.965 3.31935 -162.151 8.88344 -162.151C14.4287 -162.17 20.1625 -155.965 21.9166 -148.326ZM-37.6475 -162.792C-22.483 -166.848 -15.8249 -152.456 -13.9388 -147.232C-14.7309 -147.119 -15.5231 -147.005 -16.3153 -146.873C-20.5402 -155.776 -29.5937 -161.397 -36.761 -159.473C-43.9283 -157.549 -48.9454 -148.137 -48.1532 -138.329C-48.9077 -138.046 -49.6433 -137.744 -50.3977 -137.462C-51.3974 -142.912 -52.8497 -158.718 -37.6475 -162.792ZM-19.7292 -146.289C-28.3866 -144.723 -36.7987 -142.441 -44.9091 -139.536C-45.192 -147.364 -41.2688 -154.833 -35.8933 -156.266C-30.5367 -157.719 -23.4072 -153.211 -19.7292 -146.289ZM-81.0097 -144.836C-67.4107 -152.683 -57.2444 -140.479 -54.0757 -135.934C-54.8113 -135.613 -55.5469 -135.293 -56.2825 -134.972C-62.6765 -142.479 -72.8804 -145.572 -79.2933 -141.875C-85.725 -138.159 -88.1393 -127.729 -84.8008 -118.43C-85.4421 -117.959 -86.1022 -117.487 -86.7247 -117.016C-89.0823 -121.976 -94.6276 -136.971 -81.0097 -144.836ZM-59.4134 -133.52C-67.3163 -129.766 -74.8609 -125.39 -81.9905 -120.43C-84.3293 -127.937 -82.462 -136.198 -77.6335 -138.989C-72.805 -141.781 -64.7512 -139.253 -59.4134 -133.52ZM-118.223 -116.261C-107.076 -127.39 -94.0429 -118.148 -89.8556 -114.602C-90.4781 -114.111 -91.1005 -113.602 -91.7229 -113.093C-99.8521 -118.732 -110.547 -119.091 -115.79 -113.847C-121.052 -108.585 -120.675 -97.8905 -115.036 -89.7801C-115.545 -89.1577 -116.035 -88.5353 -116.544 -87.9128C-120.128 -92.0812 -129.389 -105.096 -118.223 -116.261ZM-94.3824 -110.886C-101.022 -105.246 -107.208 -99.0599 -112.848 -92.4207C-117.054 -99.0599 -117.393 -107.547 -113.451 -111.49C-109.509 -115.45 -101.04 -115.092 -94.3824 -110.886ZM-146.798 -79.048C-138.933 -92.6848 -123.938 -87.1207 -118.978 -84.7819C-119.449 -84.1406 -119.921 -83.4993 -120.392 -82.858C-129.691 -86.1965 -140.121 -83.7822 -143.837 -77.3505C-147.552 -70.9188 -144.44 -60.7148 -136.934 -54.3397C-137.254 -53.6041 -137.575 -52.8685 -137.895 -52.1329C-142.441 -55.2639 -154.644 -65.449 -146.798 -79.048ZM-122.391 -80.0099C-127.333 -72.8804 -131.728 -65.3358 -135.481 -57.4329C-141.234 -62.7707 -143.742 -70.8245 -140.951 -75.653C-138.16 -80.5003 -129.898 -82.3487 -122.391 -80.0099ZM-164.754 -35.6858C-160.699 -50.8503 -144.874 -49.4168 -139.423 -48.4361C-139.725 -47.7005 -140.008 -46.946 -140.291 -46.1915C-150.118 -46.9837 -159.511 -41.9666 -161.434 -34.7993C-163.358 -27.632 -157.719 -18.5974 -148.835 -14.3536C-148.967 -13.5615 -149.08 -12.7693 -149.193 -11.9771C-154.418 -13.8444 -168.828 -20.5024 -164.754 -35.6858ZM-148.25 -17.7675C-155.172 -21.4455 -159.661 -28.5751 -158.228 -33.9317C-156.795 -39.3072 -149.307 -43.2303 -141.498 -42.9474C-144.403 -34.8371 -146.685 -26.4249 -148.25 -17.7675ZM-148.25 39.4389C-146.685 48.0963 -144.403 56.5084 -141.498 64.6188C-149.325 64.9017 -156.795 60.9785 -158.228 55.603C-159.68 50.2464 -155.172 43.1169 -148.25 39.4389ZM-170.884 10.8451C-170.884 -4.84752 -155.248 -7.56354 -149.722 -8.03508C-149.816 -7.2429 -149.91 -6.45072 -150.004 -5.63968C-159.68 -3.84785 -167.47 3.4326 -167.47 10.8451C-167.47 18.2576 -159.68 25.5381 -150.004 27.3299C-149.929 28.1221 -149.816 28.9331 -149.722 29.7253C-155.229 29.2538 -170.884 26.5566 -170.884 10.8451ZM-150.287 23.8783C-157.926 22.1242 -164.113 16.4092 -164.113 10.8451C-164.113 5.28102 -157.907 -0.433976 -150.287 -2.18808C-150.646 2.1123 -150.815 6.45042 -150.815 10.8451C-150.834 15.2209 -150.646 19.5779 -150.287 23.8783ZM-164.754 57.3572C-168.809 42.2115 -154.418 35.5346 -149.193 33.6485C-149.08 34.4406 -148.967 35.2328 -148.835 36.025C-157.738 40.2499 -163.358 49.3034 -161.434 56.4707C-159.643 63.1476 -151.381 67.9572 -142.309 67.9572C-141.63 67.9572 -140.951 67.9006 -140.291 67.8441C-140.008 68.5985 -139.706 69.353 -139.404 70.0886C-144.874 71.0882 -160.699 72.5217 -164.754 57.3572ZM-146.798 100.719C-154.644 87.1204 -142.441 76.9541 -137.895 73.7854C-137.575 74.521 -137.254 75.2566 -136.934 75.9922C-144.44 82.3862 -147.552 92.5901 -143.837 99.003C-141.253 103.492 -135.406 106.019 -128.955 106.019C-126.145 106.019 -123.221 105.51 -120.411 104.511C-119.939 105.152 -119.468 105.812 -118.996 106.453C-123.938 108.811 -138.895 114.394 -146.798 100.719ZM-135.481 79.1231C-131.728 87.026 -127.352 94.5706 -122.391 101.7C-129.898 104.039 -138.16 102.172 -140.951 97.3432C-143.724 92.5147 -141.215 84.4609 -135.481 79.1231ZM-118.223 137.952C-129.37 126.805 -120.109 113.771 -116.563 109.584C-116.073 110.207 -115.564 110.829 -115.054 111.451C-120.694 119.581 -121.052 130.275 -115.809 135.537C-113.319 138.027 -109.585 139.272 -105.492 139.272C-100.965 139.272 -96.0044 137.763 -91.7418 134.802C-91.1194 135.311 -90.4969 135.82 -89.8745 136.311C-94.0429 139.838 -107.057 149.099 -118.223 137.952ZM-112.848 114.111C-107.208 120.75 -101.022 126.937 -94.3824 132.576C-101.022 136.782 -109.509 137.122 -113.451 133.18C-117.393 129.219 -117.054 120.75 -112.848 114.111ZM-72.0883 169.073C-74.842 169.073 -77.8221 168.337 -80.9908 166.508C-94.6276 158.643 -89.0635 143.648 -86.7247 138.687C-86.0834 139.159 -85.4421 139.63 -84.8008 140.102C-88.1393 149.4 -85.725 159.831 -79.2933 163.546C-77.4449 164.622 -75.2947 165.112 -72.9936 165.112C-67.3164 165.112 -60.8281 161.981 -56.2825 156.643C-55.5469 156.964 -54.8113 157.285 -54.0757 157.605C-56.49 161.094 -63.0348 169.073 -72.0883 169.073ZM-81.9716 142.101C-74.842 147.043 -67.2975 151.437 -59.3946 155.191C-64.7323 160.944 -72.7861 163.452 -77.6146 160.661C-82.462 157.869 -84.3104 149.608 -81.9716 142.101ZM-32.5172 185.18C-34.1015 185.18 -35.8179 184.954 -37.6475 184.464C-52.812 180.408 -51.3785 164.584 -50.3977 159.133C-49.6621 159.435 -48.9077 159.718 -48.1532 160.001C-48.9454 169.827 -43.9283 179.22 -36.761 181.144C-35.8179 181.389 -34.8371 181.521 -33.8375 181.521C-27.2926 181.521 -19.9933 176.259 -16.3153 168.545C-15.5231 168.677 -14.7309 168.79 -13.9388 168.903C-15.5986 173.505 -20.9552 185.18 -32.5172 185.18ZM-44.9091 161.208C-36.7987 164.112 -28.3866 166.395 -19.7292 167.96C-23.3883 174.882 -30.5179 179.371 -35.8933 177.938C-41.2688 176.504 -45.192 169.035 -44.9091 161.208ZM8.88344 190.594C-6.80919 190.594 -9.52521 174.958 -9.99675 169.431C-9.20457 169.526 -8.41239 169.62 -7.60135 169.714C-5.80952 179.39 1.47093 187.18 8.88344 187.18C16.2959 187.18 23.5764 179.39 25.3683 169.714C26.1604 169.639 26.9715 169.526 27.7637 169.431C27.2921 174.958 24.5949 190.594 8.88344 190.594ZM-4.1686 170.016C0.131784 170.374 4.4699 170.544 8.86459 170.544C13.2593 170.544 17.5974 170.355 21.8978 170.016C20.1437 177.655 14.4287 183.841 8.86459 183.841C3.31936 183.841 -2.4145 177.636 -4.1686 170.016ZM8.88344 167.224C-77.3506 167.224 -147.496 97.0791 -147.496 10.8451C-147.496 -75.3889 -77.3506 -145.534 8.88344 -145.534C95.1175 -145.534 165.263 -75.3889 165.263 10.8451C165.263 97.0603 95.0986 167.224 8.88344 167.224ZM130.596 114.111C134.802 120.75 135.141 129.238 131.199 133.18C127.257 137.122 118.77 136.763 112.13 132.576C118.788 126.918 124.956 120.75 130.596 114.111ZM95.3815 160.661C90.5719 163.433 82.4992 160.925 77.1615 155.191C85.0644 151.437 92.6089 147.062 99.7385 142.101C102.058 149.608 100.21 157.869 95.3815 160.661ZM53.6603 177.938C48.3036 179.371 41.174 174.882 37.4961 167.96C46.1534 166.395 54.5656 164.112 62.676 161.208C62.9589 169.035 59.0169 176.504 53.6603 177.938ZM55.3955 184.464C40.2498 188.519 33.5729 174.128 31.6868 168.903C32.479 168.79 33.2712 168.677 34.0633 168.545C37.7413 176.259 45.0406 181.521 51.5855 181.521C52.5851 181.521 53.5659 181.408 54.509 181.144C61.6763 179.22 66.6934 169.808 65.9012 160.001C66.6557 159.718 67.3913 159.416 68.1457 159.133C69.1454 164.584 70.5977 180.39 55.3955 184.464ZM98.7577 166.508C85.1587 174.354 74.9924 162.151 71.8237 157.605C72.5593 157.285 73.2949 156.964 74.0305 156.643C78.5761 162 85.0644 165.112 90.7416 165.112C93.0239 165.112 95.1929 164.603 97.0413 163.546C103.473 159.831 105.887 149.4 102.549 140.102C103.19 139.63 103.85 139.159 104.473 138.687C106.83 143.648 112.394 158.643 98.7577 166.508ZM135.99 137.952C124.843 149.08 111.81 139.838 107.623 136.292C108.245 135.801 108.867 135.292 109.49 134.783C113.752 137.744 118.713 139.253 123.24 139.253C127.333 139.253 131.067 138.027 133.557 135.519C138.819 130.256 138.442 119.562 132.821 111.433C133.331 110.81 133.821 110.188 134.33 109.565C137.857 113.771 147.118 126.805 135.99 137.952ZM8.88344 -158.813C6.45033 -158.813 4.45104 -156.832 4.45104 -154.38C4.45104 -151.947 6.43147 -149.948 8.88344 -149.948C11.3166 -149.948 13.3159 -151.928 13.3159 -154.38C13.297 -156.813 11.3166 -158.813 8.88344 -158.813ZM8.88344 -153.286C8.27988 -153.286 7.78948 -153.777 7.78948 -154.38C7.78948 -154.984 8.27988 -155.474 8.88344 -155.474C9.487 -155.474 9.9774 -154.984 9.9774 -154.38C9.9774 -153.777 9.487 -153.286 8.88344 -153.286ZM-31.6684 -152.588C-32.6869 -153.173 -33.8752 -153.343 -35.0257 -153.022C-35.3275 -152.947 -35.5916 -152.834 -35.8556 -152.702C-37.44 -151.909 -38.4019 -150.25 -38.2887 -148.477C-38.2699 -148.175 -38.2322 -147.892 -38.1379 -147.59C-37.6097 -145.61 -35.8179 -144.308 -33.8564 -144.308C-33.4791 -144.308 -33.1019 -144.365 -32.7058 -144.459C-30.3481 -145.082 -28.9524 -147.515 -29.5748 -149.872C-29.9143 -151.042 -30.6499 -151.985 -31.6684 -152.588ZM-32.9321 -148.194C-33.083 -147.93 -33.3094 -147.76 -33.5923 -147.684C-33.7432 -147.647 -33.8941 -147.647 -34.0261 -147.666C-34.4599 -147.722 -34.8183 -148.024 -34.9314 -148.477C-35.0823 -149.061 -34.7428 -149.665 -34.1581 -149.835C-34.0638 -149.853 -33.9695 -149.872 -33.8752 -149.872C-33.6866 -149.872 -33.498 -149.816 -33.3282 -149.721C-33.0642 -149.571 -32.8944 -149.344 -32.819 -149.061C-32.7435 -148.759 -32.7812 -148.458 -32.9321 -148.194ZM-78.0107 -133.388C-78.0862 -133.105 -78.1427 -132.822 -78.1616 -132.52C-78.2182 -131.652 -78.0107 -130.785 -77.5769 -130.03C-77.1242 -129.257 -76.4829 -128.653 -75.7096 -128.276C-75.4456 -128.144 -75.1815 -128.05 -74.8986 -127.974C-74.5214 -127.88 -74.1253 -127.823 -73.7481 -127.823C-72.9747 -127.823 -72.2203 -128.031 -71.5413 -128.427C-70.5228 -129.012 -69.7872 -129.974 -69.4854 -131.105C-69.41 -131.388 -69.3534 -131.671 -69.3345 -131.973C-69.2779 -132.841 -69.4854 -133.708 -69.9192 -134.463C-70.3719 -135.236 -71.0132 -135.839 -71.7865 -136.217C-72.0506 -136.349 -72.3146 -136.443 -72.5975 -136.518C-73.7481 -136.82 -74.9363 -136.669 -75.9548 -136.085C-76.9733 -135.481 -77.7089 -134.538 -78.0107 -133.388ZM-74.8043 -132.539C-74.7288 -132.822 -74.5402 -133.067 -74.295 -133.199C-74.1253 -133.293 -73.9367 -133.35 -73.7481 -133.35C-73.6538 -133.35 -73.5595 -133.331 -73.4652 -133.312C-73.1822 -133.237 -72.937 -133.048 -72.805 -132.803C-72.6541 -132.558 -72.6164 -132.256 -72.6918 -131.973C-72.7673 -131.69 -72.9559 -131.445 -73.2011 -131.294C-73.4652 -131.143 -73.7481 -131.105 -74.031 -131.181C-74.3139 -131.256 -74.5591 -131.445 -74.6911 -131.69C-74.842 -131.954 -74.8797 -132.256 -74.8043 -132.539ZM-105.511 -109.66C-105.661 -109.754 -105.812 -109.811 -105.963 -109.886C-106.076 -109.943 -106.171 -109.999 -106.284 -110.037C-107.887 -110.66 -109.849 -110.358 -111.094 -109.094C-111.923 -108.264 -112.395 -107.151 -112.395 -105.963C-112.395 -104.775 -111.942 -103.662 -111.094 -102.832C-110.226 -101.965 -109.094 -101.531 -107.963 -101.531C-106.831 -101.531 -105.699 -101.965 -104.832 -102.832C-104.002 -103.662 -103.53 -104.775 -103.53 -105.963C-103.53 -106.265 -103.568 -106.548 -103.624 -106.831C-103.794 -107.68 -104.209 -108.472 -104.832 -109.094C-104.926 -109.188 -105.02 -109.245 -105.114 -109.32C-105.246 -109.452 -105.36 -109.585 -105.511 -109.66ZM-107.17 -105.209C-107.378 -105.001 -107.661 -104.888 -107.944 -104.888C-108.095 -104.888 -108.227 -104.907 -108.359 -104.963C-108.491 -105.02 -108.623 -105.096 -108.717 -105.19C-108.924 -105.397 -109.038 -105.68 -109.038 -105.963C-109.038 -106.265 -108.924 -106.529 -108.717 -106.736C-108.51 -106.944 -108.227 -107.057 -107.944 -107.057C-107.661 -107.057 -107.378 -106.944 -107.17 -106.736C-106.963 -106.529 -106.85 -106.246 -106.85 -105.963C-106.85 -105.699 -106.963 -105.416 -107.17 -105.209ZM-131.992 -75.5964C-133.01 -76.1811 -134.199 -76.3508 -135.349 -76.0302C-136.5 -75.7284 -137.443 -74.9928 -138.027 -73.9743C-138.612 -72.9558 -138.782 -71.7675 -138.461 -70.617C-138.16 -69.4665 -137.424 -68.5234 -136.405 -67.9387C-135.726 -67.5426 -134.972 -67.3351 -134.199 -67.3351C-133.821 -67.3351 -133.425 -67.3917 -133.048 -67.486C-131.898 -67.7878 -130.954 -68.5234 -130.37 -69.5419C-129.785 -70.5604 -129.615 -71.7487 -129.936 -72.8992C-130.238 -74.0497 -130.973 -75.0117 -131.992 -75.5964ZM-133.256 -71.2205C-133.406 -70.9565 -133.633 -70.7867 -133.916 -70.7113C-134.199 -70.6358 -134.5 -70.6736 -134.746 -70.8245C-135.01 -70.9754 -135.179 -71.2017 -135.255 -71.4846C-135.33 -71.7675 -135.293 -72.0693 -135.142 -72.3145C-134.991 -72.5786 -134.764 -72.7483 -134.482 -72.8238C-134.387 -72.8426 -134.293 -72.8615 -134.199 -72.8615C-134.01 -72.8615 -133.821 -72.8049 -133.652 -72.7106C-133.388 -72.5597 -133.218 -72.3334 -133.142 -72.0504C-133.067 -71.7675 -133.105 -71.4846 -133.256 -71.2205ZM-149.571 -36.1951C-149.872 -36.2705 -150.155 -36.3271 -150.457 -36.346C-151.928 -36.4403 -153.324 -35.7801 -154.211 -34.6484C-154.569 -34.1957 -154.833 -33.6676 -154.984 -33.0829C-155.286 -31.9512 -155.135 -30.7441 -154.55 -29.7256C-153.965 -28.7071 -153.003 -27.9715 -151.872 -27.6697C-151.494 -27.5754 -151.098 -27.5188 -150.721 -27.5188C-148.76 -27.5188 -146.968 -28.8203 -146.44 -30.8007C-146.194 -31.6872 -146.251 -32.5737 -146.534 -33.3847C-146.987 -34.705 -148.099 -35.799 -149.571 -36.1951ZM-149.646 -31.6306C-149.722 -31.3477 -149.91 -31.1025 -150.155 -30.9705C-150.419 -30.8196 -150.702 -30.7819 -150.985 -30.8573C-151.268 -30.9327 -151.513 -31.1214 -151.664 -31.3666C-151.815 -31.6306 -151.853 -31.9135 -151.777 -32.1964C-151.645 -32.6868 -151.193 -33.0075 -150.721 -33.0075C-150.627 -33.0075 -150.533 -32.9886 -150.438 -32.9698C-149.835 -32.8377 -149.495 -32.2342 -149.646 -31.6306ZM-156.342 6.41271C-158.775 6.41271 -160.774 8.39314 -160.774 10.8451C-160.774 13.2782 -158.794 15.2775 -156.342 15.2775C-153.909 15.2775 -151.909 13.2971 -151.909 10.8451C-151.909 8.39314 -153.909 6.41271 -156.342 6.41271ZM-156.342 11.9391C-156.945 11.9391 -157.436 11.4487 -157.436 10.8451C-157.436 10.2415 -156.945 9.75115 -156.342 9.75115C-155.738 9.75115 -155.248 10.2415 -155.248 10.8451C-155.248 11.4487 -155.738 11.9391 -156.342 11.9391ZM-154.984 54.7543C-154.456 56.7347 -152.664 58.0362 -150.702 58.0362C-150.325 58.0362 -149.948 57.9796 -149.552 57.8853C-149.344 57.8287 -149.156 57.7533 -148.967 57.6778C-148.892 57.6401 -148.797 57.6212 -148.722 57.5835C-148.646 57.5458 -148.571 57.4892 -148.496 57.4515C-148.326 57.3572 -148.137 57.2629 -147.986 57.1308C-147.534 56.7725 -147.138 56.3387 -146.855 55.8294C-146.27 54.8109 -146.1 53.6226 -146.421 52.4721C-146.968 50.4162 -148.892 49.077 -150.948 49.1902C-151.249 49.2091 -151.532 49.2468 -151.834 49.3411C-154.211 49.9635 -155.625 52.3966 -154.984 54.7543ZM-151.004 52.5287C-150.872 52.4909 -150.759 52.4909 -150.627 52.5098C-150.589 52.5098 -150.533 52.5287 -150.495 52.5287C-150.401 52.5475 -150.325 52.5853 -150.25 52.623C-150.212 52.6418 -150.174 52.6607 -150.136 52.6796C-150.061 52.7361 -149.986 52.7927 -149.929 52.8682C-149.91 52.9059 -149.872 52.9247 -149.854 52.9625C-149.778 53.0756 -149.703 53.1888 -149.665 53.3208C-149.589 53.6038 -149.627 53.9055 -149.778 54.1507C-149.929 54.3959 -150.155 54.5845 -150.457 54.66C-151.042 54.8109 -151.645 54.4714 -151.815 53.8867C-151.853 53.7358 -151.853 53.5849 -151.834 53.4529C-151.74 53.019 -151.438 52.6607 -151.004 52.5287ZM-134.199 97.8713C-133.444 97.8713 -132.69 97.6827 -131.992 97.2866C-130.973 96.7019 -130.238 95.74 -129.936 94.6083C-129.634 93.4766 -129.785 92.2695 -130.37 91.251C-131.596 89.1385 -134.293 88.4029 -136.405 89.6289C-137.424 90.2136 -138.16 91.1755 -138.461 92.3072C-138.763 93.4389 -138.612 94.646 -138.027 95.6645C-137.216 97.0791 -135.726 97.8713 -134.199 97.8713ZM-135.274 93.156C-135.198 92.8731 -135.01 92.6279 -134.764 92.4958C-134.595 92.4015 -134.406 92.3449 -134.217 92.3449C-133.84 92.3449 -133.463 92.5335 -133.256 92.8919C-133.105 93.156 -133.067 93.4389 -133.142 93.7218C-133.218 94.0047 -133.406 94.2499 -133.652 94.382C-134.18 94.6838 -134.859 94.514 -135.161 93.9859C-135.311 93.7407 -135.349 93.4389 -135.274 93.156ZM-107.944 132.086C-106.755 132.086 -105.643 131.633 -104.813 130.784C-103.096 129.068 -103.096 126.258 -104.813 124.522C-106.491 122.844 -109.396 122.844 -111.075 124.522C-112.791 126.239 -112.791 129.049 -111.075 130.784C-110.245 131.633 -109.132 132.086 -107.944 132.086ZM-108.736 126.88C-108.321 126.465 -107.585 126.465 -107.17 126.88C-106.737 127.314 -106.737 128.012 -107.17 128.446C-107.585 128.86 -108.321 128.86 -108.736 128.446C-109.17 128.012 -109.17 127.314 -108.736 126.88ZM-75.9548 157.756C-75.2758 158.152 -74.5214 158.36 -73.7481 158.36C-73.3708 158.36 -72.9747 158.303 -72.5975 158.209C-71.447 157.907 -70.5039 157.171 -69.9192 156.153C-69.3345 155.134 -69.1648 153.927 -69.4854 152.796C-69.7872 151.645 -70.5228 150.702 -71.5413 150.117C-72.5598 149.532 -73.7481 149.363 -74.8986 149.683C-76.0491 149.985 -76.9922 150.721 -77.5769 151.739C-78.1616 152.758 -78.3314 153.965 -78.0107 155.097C-77.7089 156.209 -76.9733 157.171 -75.9548 157.756ZM-74.6911 153.361C-74.5402 153.116 -74.3139 152.928 -74.031 152.852C-73.9367 152.833 -73.8424 152.814 -73.7481 152.814C-73.5594 152.814 -73.3708 152.871 -73.2011 152.965C-72.673 153.267 -72.5032 153.946 -72.805 154.474C-72.9559 154.719 -73.1822 154.908 -73.4652 154.983C-73.7481 155.059 -74.0498 155.021 -74.295 154.87C-74.5591 154.719 -74.7288 154.493 -74.8043 154.191C-74.8797 153.927 -74.842 153.625 -74.6911 153.361ZM-35.0257 174.694C-34.6485 174.788 -34.2524 174.844 -33.8752 174.844C-33.1019 174.844 -32.3474 174.637 -31.6684 174.241C-30.6499 173.656 -29.9143 172.694 -29.6126 171.563C-28.9901 169.205 -30.3858 166.772 -32.7435 166.149C-33.0453 166.074 -33.3282 166.017 -33.63 165.998C-35.6859 165.885 -37.6098 167.206 -38.1567 169.28C-38.4585 170.431 -38.3076 171.619 -37.7229 172.638C-37.1193 173.656 -36.1763 174.392 -35.0257 174.694ZM-34.9503 170.148C-34.8183 169.658 -34.3656 169.337 -33.8752 169.337C-33.7809 169.337 -33.6866 169.356 -33.5923 169.375C-33.0076 169.525 -32.6492 170.129 -32.819 170.733C-32.8944 171.016 -33.083 171.261 -33.3282 171.393C-33.5923 171.544 -33.8752 171.581 -34.1581 171.506C-34.441 171.43 -34.6862 171.242 -34.8183 170.997C-34.8937 170.865 -34.9314 170.733 -34.9503 170.582C-35.0069 170.431 -34.988 170.28 -34.9503 170.148ZM8.88344 180.484C11.3166 180.484 13.3159 178.504 13.3159 176.052C13.3159 173.618 11.3354 171.619 8.88344 171.619C6.45033 171.619 4.45104 173.6 4.45104 176.052C4.45104 178.504 6.43147 180.484 8.88344 180.484ZM8.88344 174.958C9.487 174.958 9.9774 175.448 9.9774 176.052C9.9774 176.655 9.487 177.146 8.88344 177.146C8.27988 177.146 7.78948 176.655 7.78948 176.052C7.78948 175.448 8.26102 174.958 8.88344 174.958ZM51.6421 174.844C52.0193 174.844 52.3965 174.788 52.7926 174.694C53.9432 174.392 54.8862 173.656 55.4709 172.638C55.6218 172.374 55.735 172.11 55.8293 171.845C56.0179 171.299 56.0934 170.714 56.0557 170.148C56.0368 169.865 55.9802 169.563 55.9048 169.28C55.2635 166.923 52.8492 165.527 50.4915 166.149C48.1339 166.772 46.7382 169.205 47.3606 171.563C47.8887 173.543 49.6805 174.844 51.6421 174.844ZM51.3592 169.356C51.4535 169.337 51.5478 169.318 51.6421 169.318C52.1325 169.318 52.5852 169.639 52.7172 170.129C52.8681 170.714 52.5286 171.317 51.9439 171.487C51.3592 171.638 50.7556 171.298 50.5859 170.714C50.4161 170.129 50.7745 169.526 51.3592 169.356ZM90.3455 158.19C90.7228 158.284 91.1189 158.341 91.4961 158.341C92.2694 158.341 93.0239 158.133 93.7029 157.737C94.7214 157.152 95.457 156.191 95.7587 155.059C95.8342 154.776 95.8908 154.493 95.9096 154.191C95.9662 153.324 95.7587 152.456 95.3249 151.702C95.2118 151.513 95.0797 151.324 94.9288 151.155C93.5897 149.476 91.1943 148.967 89.2704 150.079C88.2519 150.664 87.5163 151.626 87.2146 152.758C86.9128 153.889 87.0637 155.097 87.6484 156.115C88.252 157.152 89.195 157.888 90.3455 158.19ZM90.421 153.644C90.4964 153.361 90.685 153.116 90.9302 152.984C91.1 152.89 91.2886 152.833 91.4772 152.833C91.5715 152.833 91.6658 152.852 91.7601 152.871C92.0431 152.946 92.2883 153.135 92.4203 153.38C92.5712 153.625 92.6089 153.927 92.5335 154.21C92.458 154.493 92.2694 154.738 92.0242 154.889C91.4961 155.191 90.8171 155.021 90.5153 154.493C90.3833 154.21 90.3455 153.927 90.421 153.644ZM122.58 130.784C123.409 131.614 124.522 132.086 125.711 132.086C126.899 132.086 128.012 131.633 128.842 130.784C129.275 130.351 129.596 129.86 129.803 129.313C130.445 127.71 130.124 125.805 128.842 124.522C127.182 122.844 124.258 122.844 122.58 124.522C122.146 124.956 121.825 125.447 121.618 125.994C120.957 127.597 121.278 129.502 122.58 130.784ZM124.918 126.88C125.333 126.465 126.069 126.465 126.484 126.88C126.918 127.314 126.918 128.012 126.484 128.446C126.069 128.86 125.333 128.86 124.918 128.446C124.503 128.012 124.503 127.314 124.918 126.88ZM149.74 97.2866C150.438 97.6827 151.192 97.8713 151.947 97.8713C153.474 97.8713 154.964 97.0791 155.794 95.6645C156.096 95.1364 156.285 94.5706 156.36 94.0047C156.568 92.2883 155.776 90.5343 154.191 89.6289C152.079 88.4029 149.363 89.1385 148.156 91.251C148.005 91.515 147.873 91.7791 147.797 92.062C147.118 94.0047 147.891 96.2115 149.74 97.2866ZM151.004 92.8919C151.098 92.741 151.23 92.609 151.381 92.5335C151.419 92.5147 151.475 92.4958 151.513 92.4581C151.626 92.4015 151.739 92.3827 151.871 92.3638C151.928 92.3638 151.966 92.3449 152.022 92.3449C152.192 92.3449 152.362 92.3827 152.513 92.477C153.041 92.7787 153.229 93.4578 152.909 93.9859C152.607 94.514 151.928 94.6838 151.4 94.382C150.89 94.0991 150.702 93.42 151.004 92.8919ZM167.319 57.8664C167.696 57.9607 168.092 58.0173 168.469 58.0173C170.431 58.0173 172.223 56.7159 172.751 54.7354C172.826 54.4337 172.883 54.1507 172.902 53.849C173.015 51.7931 171.694 49.8692 169.639 49.3222C167.281 48.6998 164.848 50.0955 164.225 52.4532C163.924 53.6037 164.074 54.792 164.659 55.8105C165.225 56.829 166.187 57.5646 167.319 57.8664ZM167.394 53.3208C167.526 52.8304 167.979 52.5098 168.469 52.5098C168.564 52.5098 168.658 52.5287 168.752 52.5475C168.846 52.5664 168.941 52.623 169.016 52.6796C169.054 52.6984 169.092 52.7173 169.129 52.7361C169.148 52.755 169.167 52.7927 169.186 52.8116C169.375 52.9813 169.507 53.2077 169.544 53.4529C169.563 53.6037 169.563 53.7358 169.525 53.8867C169.375 54.4714 168.771 54.8109 168.205 54.66H168.186C167.903 54.5845 167.658 54.3959 167.526 54.1507C167.356 53.8867 167.319 53.6038 167.394 53.3208ZM174.09 15.2587C176.523 15.2587 178.522 13.2782 178.522 10.8263C178.522 8.39315 176.542 6.39383 174.09 6.39383C171.657 6.39383 169.657 8.37428 169.657 10.8263C169.676 13.2782 171.657 15.2587 174.09 15.2587ZM174.09 9.7323C174.693 9.7323 175.184 10.2227 175.184 10.8263C175.184 11.4298 174.693 11.9202 174.09 11.9202C173.486 11.9202 172.996 11.4298 172.996 10.8263C172.996 10.2227 173.486 9.7323 174.09 9.7323ZM172.732 -33.0641C172.185 -35.12 170.261 -36.4591 168.205 -36.346C168.054 -36.346 167.903 -36.2894 167.771 -36.2705C167.62 -36.2516 167.47 -36.2328 167.338 -36.1951C166.187 -35.8933 165.244 -35.1577 164.659 -34.1392C164.074 -33.1206 163.905 -31.9324 164.225 -30.7818C164.754 -28.8014 166.545 -27.5 168.507 -27.5C168.884 -27.5 169.261 -27.5566 169.639 -27.6509C171.959 -28.2733 173.373 -30.7064 172.732 -33.0641ZM168.752 -30.8573C168.714 -30.8384 168.677 -30.8573 168.62 -30.8573C168.507 -30.8384 168.413 -30.8196 168.299 -30.8384C167.866 -30.895 167.507 -31.1968 167.394 -31.6495C167.319 -31.9324 167.356 -32.2342 167.507 -32.4794C167.658 -32.7434 167.884 -32.9132 168.186 -32.9886C168.281 -33.0075 168.375 -33.0263 168.469 -33.0263C168.658 -33.0263 168.846 -32.9698 169.016 -32.8754C169.28 -32.7246 169.45 -32.4982 169.525 -32.2153C169.563 -32.0644 169.563 -31.9135 169.544 -31.7815C169.507 -31.3477 169.186 -30.9705 168.752 -30.8573ZM153.097 -76.049C152.814 -76.1245 152.531 -76.1811 152.23 -76.1999C151.362 -76.2565 150.494 -76.0491 149.74 -75.6152C147.627 -74.3893 146.911 -71.6921 148.118 -69.5796C148.703 -68.5611 149.664 -67.8255 150.796 -67.5237C151.173 -67.4294 151.569 -67.3728 151.947 -67.3728C152.72 -67.3728 153.474 -67.5803 154.153 -67.9764C156.266 -69.2024 156.983 -71.8995 155.776 -74.012C155.21 -75.0117 154.248 -75.7473 153.097 -76.049ZM152.513 -70.8245C152.248 -70.6736 151.966 -70.6358 151.683 -70.7113C151.4 -70.7867 151.154 -70.9753 151.022 -71.2205C150.721 -71.7487 150.89 -72.4277 151.419 -72.7295C151.569 -72.8238 151.739 -72.8615 151.909 -72.8615C152.022 -72.8615 152.135 -72.8615 152.248 -72.8426C152.531 -72.7672 152.777 -72.5786 152.909 -72.3334C152.984 -72.2013 153.022 -72.0693 153.041 -71.9184C153.097 -71.4846 152.909 -71.0508 152.513 -70.8245ZM122.58 -109.113C121.75 -108.283 121.278 -107.17 121.278 -105.982C121.278 -104.794 121.731 -103.681 122.58 -102.851C123.447 -101.983 124.579 -101.55 125.711 -101.55C126.842 -101.55 127.974 -101.983 128.842 -102.851C129.671 -103.681 130.143 -104.794 130.143 -105.982C130.143 -107.17 129.69 -108.283 128.842 -109.113C127.163 -110.792 124.239 -110.792 122.58 -109.113ZM126.484 -105.209C126.069 -104.794 125.333 -104.794 124.918 -105.209C124.805 -105.322 124.73 -105.435 124.673 -105.567C124.503 -105.963 124.598 -106.435 124.918 -106.755C125.126 -106.963 125.409 -107.076 125.692 -107.076C125.993 -107.076 126.258 -106.963 126.465 -106.755C126.918 -106.34 126.918 -105.642 126.484 -105.209ZM93.7029 -136.085C92.6843 -136.669 91.4961 -136.839 90.3455 -136.518C90.0626 -136.443 89.7797 -136.33 89.5345 -136.217C88.7612 -135.839 88.1011 -135.236 87.6672 -134.463C87.2146 -133.689 87.026 -132.841 87.0825 -131.973C87.1014 -131.69 87.158 -131.388 87.2334 -131.105C87.5352 -129.955 88.2708 -129.012 89.2893 -128.427C89.9683 -128.031 90.7228 -127.823 91.4961 -127.823C91.8733 -127.823 92.2694 -127.88 92.6466 -127.974C93.7972 -128.276 94.7402 -129.012 95.3249 -130.03C95.9096 -131.049 96.0794 -132.237 95.7587 -133.388C95.457 -134.538 94.7214 -135.481 93.7029 -136.085ZM92.4392 -131.69C92.1374 -131.162 91.4584 -130.973 90.9302 -131.294C90.685 -131.445 90.4964 -131.671 90.421 -131.973C90.3833 -132.124 90.3644 -132.256 90.3833 -132.407C90.4021 -132.558 90.4398 -132.69 90.5153 -132.822C90.6662 -133.086 90.8925 -133.255 91.1755 -133.331C91.2698 -133.35 91.3641 -133.369 91.4584 -133.369C91.647 -133.369 91.8356 -133.312 92.0054 -133.218C92.2506 -133.067 92.4391 -132.841 92.5146 -132.558C92.5523 -132.407 92.5712 -132.275 92.5523 -132.124C92.5523 -131.954 92.5146 -131.822 92.4392 -131.69ZM52.7738 -153.022C50.4161 -153.663 47.983 -152.249 47.3606 -149.891C47.0588 -148.741 47.2097 -147.552 47.7944 -146.534C48.3791 -145.515 49.341 -144.78 50.4915 -144.478C50.8688 -144.384 51.2649 -144.327 51.6421 -144.327C51.8873 -144.327 52.1325 -144.346 52.3588 -144.384C54.0186 -144.667 55.4521 -145.874 55.9048 -147.609C56.546 -149.967 55.1314 -152.4 52.7738 -153.022ZM52.6983 -148.458C52.5474 -147.873 51.9439 -147.515 51.3403 -147.684C51.0574 -147.76 50.8122 -147.948 50.6802 -148.194C50.5293 -148.458 50.4916 -148.741 50.567 -149.024C50.699 -149.514 51.1517 -149.835 51.6421 -149.835C51.7364 -149.835 51.8307 -149.816 51.925 -149.797C52.5097 -149.665 52.8681 -149.061 52.6983 -148.458ZM8.88344 -287.07C9.80764 -287.07 10.5432 -287.805 10.5432 -288.729V-321.925C10.5432 -322.85 9.80764 -323.585 8.88344 -323.585C7.95923 -323.585 7.22363 -322.85 7.22363 -321.925V-288.729C7.22363 -287.805 7.95923 -287.07 8.88344 -287.07ZM-17.2395 -285.938C-17.1829 -285.938 -17.1452 -285.938 -17.0886 -285.938C-16.1833 -286.013 -15.5043 -286.824 -15.5797 -287.73L-18.4655 -320.794C-18.5409 -321.699 -19.352 -322.378 -20.2573 -322.303C-21.1627 -322.227 -21.8417 -321.416 -21.7662 -320.511L-18.8804 -287.447C-18.805 -286.579 -18.0883 -285.938 -17.2395 -285.938ZM-43.155 -282.524C-43.0607 -282.524 -42.9664 -282.524 -42.8721 -282.543C-41.9667 -282.694 -41.3631 -283.561 -41.5329 -284.467L-47.3045 -317.153C-47.4554 -318.059 -48.323 -318.662 -49.2283 -318.493C-50.1337 -318.342 -50.7372 -317.474 -50.5675 -316.569L-44.7959 -283.882C-44.645 -283.09 -43.9283 -282.524 -43.155 -282.524ZM-70.2587 -278.092C-70.0512 -277.356 -69.3911 -276.866 -68.6555 -276.866C-68.5046 -276.866 -68.3726 -276.885 -68.2217 -276.922C-67.3352 -277.167 -66.8071 -278.073 -67.0523 -278.959L-75.6342 -311.024C-75.8794 -311.91 -76.7847 -312.438 -77.6712 -312.193C-78.5577 -311.948 -79.0858 -311.042 -78.8406 -310.156L-70.2587 -278.092ZM-95.1368 -270.094C-94.8916 -269.415 -94.2503 -269.001 -93.5713 -269.001C-93.3827 -269.001 -93.1941 -269.038 -93.0055 -269.095C-92.1379 -269.415 -91.7041 -270.359 -92.0058 -271.226L-103.36 -302.423C-103.681 -303.29 -104.624 -303.724 -105.492 -303.422C-106.359 -303.102 -106.793 -302.159 -106.491 -301.291L-95.1368 -270.094ZM-119.223 -259.966C-118.94 -259.362 -118.336 -259.004 -117.714 -259.004C-117.487 -259.004 -117.242 -259.061 -117.016 -259.155C-116.186 -259.551 -115.828 -260.532 -116.205 -261.362L-130.238 -291.445C-130.634 -292.275 -131.615 -292.634 -132.445 -292.257C-133.274 -291.86 -133.633 -290.88 -133.256 -290.05L-119.223 -259.966ZM-142.347 -247.763C-142.045 -247.235 -141.479 -246.933 -140.913 -246.933C-140.63 -246.933 -140.347 -247.008 -140.083 -247.159C-139.291 -247.612 -139.008 -248.63 -139.48 -249.422L-156.078 -278.167C-156.53 -278.959 -157.549 -279.223 -158.341 -278.771C-159.133 -278.318 -159.416 -277.299 -158.945 -276.507L-142.347 -247.763ZM-164.301 -233.598C-163.981 -233.145 -163.471 -232.881 -162.943 -232.881C-162.623 -232.881 -162.283 -232.975 -162 -233.183C-161.246 -233.711 -161.057 -234.748 -161.585 -235.503L-180.635 -262.701C-181.163 -263.455 -182.201 -263.644 -182.955 -263.116C-183.71 -262.588 -183.898 -261.55 -183.37 -260.796L-164.301 -233.598ZM-184.954 -217.585C-184.634 -217.188 -184.162 -217 -183.672 -217C-183.295 -217 -182.917 -217.132 -182.597 -217.396C-181.899 -217.981 -181.805 -219.037 -182.389 -219.735L-203.74 -245.141C-204.325 -245.839 -205.381 -245.933 -206.079 -245.348C-206.777 -244.764 -206.871 -243.707 -206.287 -243.01L-184.954 -217.585ZM-204.118 -199.817C-203.797 -199.496 -203.363 -199.327 -202.948 -199.327C-202.514 -199.327 -202.099 -199.496 -201.779 -199.817C-201.138 -200.458 -201.138 -201.515 -201.779 -202.175L-225.242 -225.638C-225.884 -226.28 -226.94 -226.28 -227.6 -225.638C-228.241 -224.997 -228.241 -223.941 -227.6 -223.281L-204.118 -199.817ZM-221.678 -180.447C-221.376 -180.182 -220.98 -180.05 -220.602 -180.05C-220.131 -180.05 -219.659 -180.258 -219.339 -180.635C-218.754 -181.333 -218.848 -182.389 -219.546 -182.974L-244.971 -204.325C-245.669 -204.91 -246.725 -204.815 -247.31 -204.118C-247.895 -203.42 -247.8 -202.363 -247.103 -201.779L-221.678 -180.447ZM-237.464 -159.624C-237.182 -159.416 -236.842 -159.322 -236.521 -159.322C-235.993 -159.322 -235.484 -159.567 -235.163 -160.039C-234.635 -160.793 -234.824 -161.83 -235.578 -162.359L-262.757 -181.39C-263.512 -181.918 -264.549 -181.729 -265.077 -180.975C-265.606 -180.22 -265.417 -179.183 -264.662 -178.655L-237.464 -159.624ZM-280.129 -154.097L-251.384 -137.499C-251.12 -137.348 -250.837 -137.273 -250.554 -137.273C-249.988 -137.273 -249.423 -137.575 -249.121 -138.103C-248.668 -138.895 -248.932 -139.914 -249.724 -140.366L-278.469 -156.964C-279.261 -157.417 -280.28 -157.153 -280.732 -156.361C-281.204 -155.587 -280.921 -154.569 -280.129 -154.097ZM-293.407 -128.295L-263.323 -114.262C-263.097 -114.149 -262.852 -114.111 -262.625 -114.111C-262.003 -114.111 -261.399 -114.47 -261.117 -115.073C-260.72 -115.903 -261.098 -116.903 -261.928 -117.28L-292.011 -131.313C-292.841 -131.709 -293.841 -131.332 -294.218 -130.502C-294.595 -129.672 -294.237 -128.672 -293.407 -128.295ZM-304.384 -101.418L-273.188 -90.063C-272.999 -89.9876 -272.811 -89.9687 -272.622 -89.9687C-271.943 -89.9687 -271.302 -90.3837 -271.056 -91.0627C-270.736 -91.9303 -271.189 -92.8734 -272.056 -93.194L-303.253 -104.549C-304.12 -104.85 -305.063 -104.416 -305.384 -103.549C-305.686 -102.681 -305.252 -101.719 -304.384 -101.418ZM-312.985 -73.6914L-280.921 -65.1095C-280.77 -65.0718 -280.638 -65.0529 -280.487 -65.0529C-279.752 -65.0529 -279.073 -65.5433 -278.884 -66.2789C-278.639 -67.1654 -279.167 -68.0707 -280.053 -68.3159L-312.118 -76.8978C-313.004 -77.1242 -313.909 -76.6149 -314.155 -75.7284C-314.381 -74.8231 -313.872 -73.9177 -312.985 -73.6914ZM-319.115 -45.3051L-286.428 -39.5335C-286.334 -39.5146 -286.24 -39.5146 -286.146 -39.5146C-285.353 -39.5146 -284.656 -40.0805 -284.505 -40.8915C-284.354 -41.7969 -284.957 -42.6645 -285.844 -42.8154L-318.549 -48.5869C-319.455 -48.7567 -320.322 -48.1343 -320.473 -47.2478C-320.624 -46.3236 -320.021 -45.4748 -319.115 -45.3051ZM-322.755 -16.5038L-289.691 -13.618C-289.635 -13.618 -289.597 -13.618 -289.541 -13.618C-288.692 -13.618 -287.956 -14.2782 -287.881 -15.127C-287.805 -16.0323 -288.484 -16.8433 -289.39 -16.9188L-322.454 -19.8046C-323.359 -19.88 -324.17 -19.201 -324.245 -18.2956C-324.359 -17.3903 -323.68 -16.5981 -322.755 -16.5038ZM-290.691 12.5049C-289.767 12.5049 -289.031 11.7693 -289.031 10.8451C-289.031 9.9209 -289.767 9.1853 -290.691 9.1853H-323.887C-324.811 9.1853 -325.547 9.9209 -325.547 10.8451C-325.547 11.7693 -324.811 12.5049 -323.887 12.5049H-290.691ZM-287.9 36.7983C-287.975 35.893 -288.786 35.214 -289.691 35.2894L-322.755 38.1752C-323.661 38.2506 -324.34 39.0617 -324.264 39.967C-324.189 40.8346 -323.472 41.4759 -322.605 41.4759C-322.548 41.4759 -322.51 41.4759 -322.454 41.4759L-289.39 38.5901C-288.484 38.5147 -287.824 37.7225 -287.9 36.7983ZM-284.505 62.5629C-284.656 61.6575 -285.523 61.054 -286.428 61.2237L-319.115 66.9953C-320.021 67.1462 -320.624 68.0138 -320.454 68.9192C-320.303 69.7302 -319.606 70.296 -318.813 70.296C-318.719 70.296 -318.625 70.2961 -318.53 70.2772L-285.844 64.5056C-284.957 64.3358 -284.354 63.4682 -284.505 62.5629ZM-278.884 87.9314C-279.129 87.0449 -280.034 86.5168 -280.921 86.762L-312.985 95.3439C-313.872 95.5891 -314.4 96.4944 -314.155 97.3809C-313.947 98.1165 -313.287 98.6069 -312.551 98.6069C-312.401 98.6069 -312.268 98.588 -312.118 98.5503L-280.053 89.9684C-279.167 89.7421 -278.639 88.8179 -278.884 87.9314ZM-271.056 112.734C-271.377 111.866 -272.32 111.433 -273.188 111.734L-304.384 123.089C-305.252 123.41 -305.686 124.353 -305.384 125.22C-305.139 125.899 -304.498 126.314 -303.819 126.314C-303.63 126.314 -303.441 126.276 -303.253 126.22L-272.056 114.865C-271.189 114.545 -270.755 113.583 -271.056 112.734ZM-261.117 136.745C-261.513 135.915 -262.493 135.556 -263.323 135.933L-293.407 149.966C-294.237 150.362 -294.595 151.343 -294.218 152.173C-293.935 152.777 -293.332 153.135 -292.709 153.135C-292.483 153.135 -292.238 153.078 -292.011 152.984L-261.928 138.951C-261.098 138.555 -260.739 137.574 -261.117 136.745ZM-249.121 159.793C-249.573 159.001 -250.592 158.718 -251.384 159.19L-280.129 175.788C-280.921 176.24 -281.204 177.259 -280.732 178.051C-280.431 178.579 -279.865 178.881 -279.299 178.881C-279.016 178.881 -278.733 178.805 -278.469 178.654L-249.724 162.056C-248.932 161.604 -248.668 160.585 -249.121 159.793ZM-235.163 181.71C-235.691 180.955 -236.729 180.786 -237.483 181.295L-264.681 200.326C-265.436 200.854 -265.624 201.892 -265.096 202.646C-264.776 203.099 -264.266 203.363 -263.738 203.363C-263.418 203.363 -263.078 203.268 -262.795 203.061L-235.597 184.03C-234.805 183.502 -234.635 182.464 -235.163 181.71ZM-219.339 202.325C-219.923 201.627 -220.98 201.533 -221.678 202.118L-247.103 223.45C-247.8 224.035 -247.895 225.091 -247.31 225.789C-246.989 226.185 -246.518 226.374 -246.046 226.374C-245.669 226.374 -245.292 226.242 -244.971 225.977L-219.546 204.645C-218.829 204.079 -218.735 203.023 -219.339 202.325ZM-201.779 221.488C-202.42 220.828 -203.476 220.828 -204.136 221.488L-227.6 244.952C-228.241 245.593 -228.241 246.65 -227.6 247.291C-227.279 247.611 -226.846 247.781 -226.431 247.781C-225.997 247.781 -225.582 247.611 -225.261 247.291L-201.798 223.827C-201.119 223.186 -201.119 222.13 -201.779 221.488ZM-182.616 239.048C-183.314 238.464 -184.37 238.558 -184.954 239.256L-206.287 264.681C-206.871 265.379 -206.777 266.435 -206.079 267.02C-205.777 267.284 -205.381 267.416 -205.004 267.416C-204.533 267.416 -204.061 267.208 -203.74 266.831L-182.408 241.406C-181.824 240.689 -181.918 239.633 -182.616 239.048ZM-164.301 255.269L-183.332 282.467C-183.861 283.222 -183.672 284.259 -182.917 284.787C-182.635 284.995 -182.295 285.089 -181.974 285.089C-181.446 285.089 -180.937 284.844 -180.616 284.372L-161.585 257.174C-161.057 256.42 -161.246 255.382 -162 254.854C-162.755 254.345 -163.792 254.534 -164.301 255.269ZM-140.083 268.83C-140.876 268.378 -141.894 268.642 -142.347 269.434L-158.945 298.179C-159.397 298.971 -159.133 299.989 -158.341 300.442C-158.077 300.593 -157.794 300.668 -157.511 300.668C-156.945 300.668 -156.38 300.367 -156.078 299.838L-139.48 271.094C-139.008 270.302 -139.291 269.283 -140.083 268.83ZM-117.016 280.826C-117.846 280.43 -118.846 280.807 -119.223 281.637L-133.256 311.721C-133.652 312.551 -133.274 313.532 -132.445 313.928C-132.218 314.041 -131.973 314.079 -131.747 314.079C-131.124 314.079 -130.521 313.72 -130.238 313.117L-116.205 283.033C-115.828 282.203 -116.186 281.222 -117.016 280.826ZM-93.0055 290.785C-93.8731 290.464 -94.8162 290.917 -95.1368 291.785L-106.491 322.981C-106.812 323.849 -106.359 324.792 -105.492 325.113C-105.303 325.188 -105.114 325.207 -104.926 325.207C-104.247 325.207 -103.606 324.792 -103.36 324.113L-92.0058 292.916C-91.7041 292.049 -92.1567 291.087 -93.0055 290.785ZM-68.2217 298.594C-69.1082 298.348 -70.0135 298.877 -70.2587 299.763L-78.8406 331.827C-79.0858 332.714 -78.5577 333.619 -77.6712 333.864C-77.5203 333.902 -77.3883 333.921 -77.2374 333.921C-76.5018 333.921 -75.8228 333.431 -75.6342 332.695L-67.0523 300.631C-66.8071 299.744 -67.3352 298.839 -68.2217 298.594ZM-42.8532 304.214C-43.7585 304.063 -44.6262 304.667 -44.7771 305.572L-50.5486 338.259C-50.6995 339.164 -50.096 340.032 -49.2095 340.183C-49.1152 340.202 -49.0208 340.202 -48.9265 340.202C-48.1344 340.202 -47.4365 339.636 -47.2856 338.825L-41.514 306.138C-41.3443 305.233 -41.9478 304.384 -42.8532 304.214ZM-17.0886 307.609C-17.994 307.534 -18.805 308.213 -18.8804 309.118L-21.7662 342.182C-21.8417 343.088 -21.1627 343.899 -20.2573 343.974C-20.2007 343.974 -20.163 343.974 -20.1064 343.974C-19.2577 343.974 -18.5221 343.314 -18.4466 342.465L-15.5608 309.401C-15.5042 308.496 -16.1833 307.685 -17.0886 307.609ZM8.88344 308.741C7.95923 308.741 7.22363 309.495 7.22363 310.401V343.597C7.22363 344.521 7.95923 345.257 8.88344 345.257C9.80764 345.257 10.5432 344.521 10.5432 343.597V310.401C10.5432 309.495 9.78878 308.741 8.88344 308.741ZM34.8367 307.609C33.9313 307.685 33.2523 308.496 33.3277 309.401L36.2135 342.465C36.289 343.333 37.0057 343.974 37.8733 343.974C37.9299 343.974 37.9676 343.974 38.0242 343.974C38.9295 343.899 39.6086 343.088 39.5331 342.182L36.6473 309.118C36.553 308.213 35.7986 307.534 34.8367 307.609ZM60.6012 304.214C59.6959 304.365 59.0923 305.233 59.2432 306.138L65.0148 338.825C65.1657 339.636 65.8635 340.202 66.6557 340.202C66.75 340.202 66.8443 340.202 66.9386 340.183C67.844 340.032 68.4475 339.164 68.2778 338.259L62.5062 305.572C62.3742 304.667 61.5066 304.063 60.6012 304.214ZM88.0067 299.763C87.7615 298.877 86.8562 298.348 85.9697 298.594C85.0832 298.839 84.5551 299.744 84.8003 300.631L93.3822 332.695C93.5897 333.431 94.2499 333.921 94.9854 333.921C95.1363 333.921 95.2684 333.902 95.4193 333.864C96.3057 333.619 96.8338 332.714 96.5886 331.827L88.0067 299.763ZM112.904 291.766C112.583 290.898 111.64 290.464 110.772 290.766C109.905 291.087 109.471 292.03 109.773 292.898L121.127 324.094C121.372 324.773 122.014 325.188 122.693 325.188C122.881 325.188 123.07 325.15 123.259 325.094C124.126 324.773 124.56 323.83 124.258 322.962L112.904 291.766ZM136.99 281.637C136.612 280.807 135.613 280.449 134.783 280.826C133.953 281.222 133.595 282.203 133.972 283.033L148.005 313.117C148.288 313.72 148.891 314.079 149.514 314.079C149.74 314.079 149.985 314.022 150.211 313.928C151.041 313.532 151.4 312.551 151.022 311.721L136.99 281.637ZM160.095 269.434C159.642 268.642 158.624 268.378 157.831 268.83C157.039 269.283 156.756 270.302 157.228 271.094L173.826 299.838C174.128 300.367 174.693 300.668 175.259 300.668C175.542 300.668 175.825 300.593 176.089 300.442C176.881 299.989 177.164 298.971 176.693 298.179L160.095 269.434ZM182.068 255.269C181.54 254.515 180.503 254.345 179.748 254.854C178.994 255.382 178.824 256.42 179.333 257.174L198.364 284.372C198.685 284.825 199.194 285.089 199.722 285.089C200.043 285.089 200.383 284.995 200.665 284.787C201.42 284.259 201.59 283.222 201.08 282.467L182.068 255.269ZM202.703 239.256C202.118 238.558 201.062 238.464 200.364 239.048C199.666 239.633 199.572 240.689 200.156 241.387L221.488 266.812C221.809 267.208 222.281 267.397 222.771 267.397C223.148 267.397 223.525 267.265 223.846 267.001C224.544 266.416 224.638 265.36 224.054 264.662L202.703 239.256ZM221.884 221.488C221.243 220.828 220.187 220.828 219.546 221.488C218.904 222.13 218.904 223.186 219.546 223.827L243.009 247.291C243.33 247.611 243.764 247.781 244.179 247.781C244.612 247.781 245.027 247.611 245.348 247.291C245.989 246.65 245.989 245.593 245.348 244.952L221.884 221.488ZM239.426 202.118C238.728 201.533 237.671 201.627 237.087 202.325C236.502 203.023 236.596 204.079 237.294 204.664L262.719 225.996C263.04 226.26 263.417 226.392 263.794 226.392C264.266 226.392 264.737 226.185 265.077 225.808C265.662 225.11 265.567 224.054 264.869 223.469L239.426 202.118ZM255.212 181.295C254.458 180.767 253.421 180.955 252.893 181.71C252.364 182.464 252.553 183.502 253.307 184.03L280.506 203.061C280.788 203.268 281.128 203.363 281.449 203.363C281.977 203.363 282.486 203.118 282.807 202.646C283.335 201.892 283.146 200.854 282.392 200.326L255.212 181.295ZM297.896 175.788L269.151 159.19C268.359 158.737 267.34 159.001 266.888 159.793C266.435 160.585 266.699 161.604 267.491 162.056L296.236 178.654C296.5 178.805 296.783 178.881 297.066 178.881C297.632 178.881 298.197 178.579 298.499 178.051C298.952 177.259 298.688 176.24 297.896 175.788ZM311.155 149.966L281.071 135.933C280.241 135.537 279.261 135.915 278.865 136.745C278.469 137.574 278.846 138.555 279.676 138.951L309.759 152.984C309.986 153.097 310.231 153.135 310.457 153.135C311.08 153.135 311.683 152.777 311.966 152.173C312.362 151.343 311.985 150.344 311.155 149.966ZM322.133 123.089L290.936 111.734C290.068 111.414 289.125 111.866 288.805 112.734C288.484 113.602 288.937 114.545 289.804 114.865L321.001 126.22C321.189 126.295 321.378 126.314 321.567 126.314C322.246 126.314 322.887 125.899 323.132 125.22C323.453 124.353 323 123.41 322.133 123.089ZM330.733 95.3627L298.669 86.7809C297.783 86.5357 296.877 87.0638 296.632 87.9503C296.387 88.8367 296.915 89.7421 297.801 89.9873L329.866 98.5692C330.017 98.6069 330.149 98.6258 330.299 98.6258C331.035 98.6258 331.695 98.1354 331.903 97.3998C332.148 96.5133 331.62 95.5891 330.733 95.3627ZM336.863 66.9765L304.176 61.2049C303.271 61.054 302.404 61.6576 302.253 62.544C302.102 63.4494 302.705 64.317 303.611 64.4679L336.297 70.2395C336.392 70.2583 336.486 70.2583 336.58 70.2583C337.372 70.2583 338.07 69.6925 338.221 68.8814C338.372 68.0138 337.769 67.1462 336.863 66.9765ZM340.522 38.194L307.458 35.3083C306.515 35.2328 305.742 35.9118 305.667 36.8172C305.591 37.7225 306.27 38.5336 307.175 38.609L340.239 41.4948C340.296 41.4948 340.334 41.4948 340.39 41.4948C341.239 41.4948 341.975 40.8346 342.05 39.9859C342.107 39.0617 341.428 38.2695 340.522 38.194ZM341.635 9.16645H308.439C307.515 9.16645 306.779 9.90205 306.779 10.8263C306.779 11.7505 307.515 12.486 308.439 12.486H341.635C342.559 12.486 343.295 11.7505 343.295 10.8263C343.295 9.92091 342.559 9.16645 341.635 9.16645ZM305.648 -15.127C305.723 -14.2593 306.44 -13.618 307.307 -13.618C307.364 -13.618 307.402 -13.618 307.458 -13.618L340.522 -16.5038C341.428 -16.5793 342.107 -17.3903 342.031 -18.2956C341.956 -19.201 341.182 -19.88 340.239 -19.8046L307.175 -16.9188C306.251 -16.8433 305.572 -16.0323 305.648 -15.127ZM302.253 -40.8915C302.404 -40.0805 303.101 -39.5146 303.894 -39.5146C303.988 -39.5146 304.082 -39.5146 304.176 -39.5335L336.863 -45.3051C337.769 -45.456 338.372 -46.3236 338.221 -47.2289C338.07 -48.1343 337.184 -48.7378 336.297 -48.5681L303.611 -42.7965C302.705 -42.6645 302.102 -41.7969 302.253 -40.8915ZM296.632 -66.26C296.839 -65.5244 297.5 -65.034 298.235 -65.034C298.386 -65.034 298.518 -65.0529 298.669 -65.0906L330.733 -73.6725C331.62 -73.9177 332.148 -74.8231 331.903 -75.7096C331.657 -76.596 330.752 -77.1241 329.866 -76.8789L297.801 -68.297C296.915 -68.0707 296.387 -67.1465 296.632 -66.26ZM288.823 -91.0438C289.069 -90.3648 289.71 -89.9499 290.389 -89.9499C290.577 -89.9499 290.766 -89.9876 290.955 -90.0442L322.151 -101.399C323.019 -101.719 323.453 -102.662 323.151 -103.53C322.83 -104.398 321.887 -104.831 321.02 -104.53L289.823 -93.1751C288.955 -92.8734 288.503 -91.9114 288.823 -91.0438ZM278.865 -115.054C279.148 -114.451 279.751 -114.092 280.373 -114.092C280.6 -114.092 280.845 -114.149 281.071 -114.243L311.155 -128.276C311.985 -128.672 312.343 -129.653 311.966 -130.483C311.589 -131.313 310.589 -131.671 309.759 -131.294L279.676 -117.261C278.846 -116.884 278.487 -115.903 278.865 -115.054ZM266.869 -138.122C267.171 -137.594 267.736 -137.292 268.302 -137.292C268.585 -137.292 268.868 -137.367 269.132 -137.518L297.877 -154.116C298.669 -154.569 298.952 -155.587 298.48 -156.379C298.028 -157.172 297.009 -157.455 296.217 -156.983L267.472 -140.385C266.68 -139.932 266.416 -138.914 266.869 -138.122ZM252.911 -160.039C253.232 -159.567 253.741 -159.322 254.269 -159.322C254.59 -159.322 254.93 -159.416 255.212 -159.624L282.41 -178.655C283.165 -179.183 283.335 -180.22 282.825 -180.975C282.297 -181.729 281.26 -181.918 280.506 -181.39L253.307 -162.34C252.572 -161.83 252.383 -160.793 252.911 -160.039ZM237.087 -180.654C237.407 -180.258 237.879 -180.069 238.369 -180.069C238.747 -180.069 239.124 -180.201 239.444 -180.465L264.869 -201.798C265.567 -202.382 265.662 -203.439 265.077 -204.136C264.492 -204.834 263.436 -204.929 262.738 -204.344L237.313 -183.012C236.596 -182.408 236.502 -181.352 237.087 -180.654ZM219.527 -199.817C219.847 -199.496 220.281 -199.327 220.696 -199.327C221.13 -199.327 221.545 -199.496 221.866 -199.817L245.329 -223.281C245.97 -223.922 245.97 -224.978 245.329 -225.638C244.688 -226.28 243.632 -226.28 242.99 -225.638L219.527 -202.175C218.886 -201.515 218.886 -200.458 219.527 -199.817ZM200.364 -217.377C200.684 -217.113 201.062 -216.981 201.439 -216.981C201.91 -216.981 202.382 -217.188 202.721 -217.566L224.054 -242.991C224.638 -243.689 224.544 -244.745 223.846 -245.33C223.148 -245.914 222.092 -245.82 221.507 -245.122L200.175 -219.697C199.572 -219.018 199.666 -217.962 200.364 -217.377ZM180.691 -232.9C181.219 -232.9 181.729 -233.145 182.049 -233.617L201.08 -260.815C201.609 -261.569 201.42 -262.607 200.665 -263.135C199.911 -263.663 198.874 -263.474 198.346 -262.72L179.333 -235.503C178.805 -234.748 178.994 -233.711 179.748 -233.183C180.031 -232.994 180.371 -232.9 180.691 -232.9ZM157.831 -247.159C158.095 -247.008 158.378 -246.933 158.661 -246.933C159.227 -246.933 159.793 -247.235 160.095 -247.763L176.693 -276.507C177.145 -277.299 176.881 -278.318 176.089 -278.771C175.297 -279.223 174.279 -278.959 173.826 -278.167L157.228 -249.422C156.756 -248.63 157.039 -247.612 157.831 -247.159ZM134.783 -259.155C135.009 -259.042 135.254 -259.004 135.481 -259.004C136.103 -259.004 136.707 -259.362 136.99 -259.966L151.022 -290.05C151.419 -290.88 151.041 -291.879 150.211 -292.257C149.382 -292.653 148.401 -292.275 148.005 -291.445L133.972 -261.362C133.595 -260.532 133.953 -259.551 134.783 -259.155ZM110.772 -269.095C110.961 -269.019 111.15 -269.001 111.338 -269.001C112.017 -269.001 112.659 -269.415 112.904 -270.094L124.258 -301.291C124.579 -302.159 124.126 -303.102 123.259 -303.422C122.391 -303.743 121.448 -303.29 121.127 -302.423L109.773 -271.226C109.452 -270.377 109.905 -269.415 110.772 -269.095ZM85.9886 -276.922C86.1395 -276.885 86.2715 -276.866 86.4224 -276.866C87.158 -276.866 87.8181 -277.356 88.0256 -278.092L96.6075 -310.156C96.8527 -311.042 96.3246 -311.948 95.4381 -312.193C94.5516 -312.419 93.6463 -311.91 93.4011 -311.024L84.8192 -278.959C84.574 -278.073 85.1021 -277.149 85.9886 -276.922ZM60.6012 -282.543C60.6955 -282.524 60.7898 -282.524 60.8842 -282.524C61.6763 -282.524 62.3742 -283.09 62.5251 -283.901L68.2966 -316.588C68.4475 -317.493 67.844 -318.361 66.9575 -318.512C66.0522 -318.681 65.1845 -318.059 65.0336 -317.172L59.2621 -284.486C59.0923 -283.561 59.6959 -282.694 60.6012 -282.543ZM34.8367 -285.938C34.8932 -285.938 34.9309 -285.938 34.9875 -285.938C35.8363 -285.938 36.5719 -286.598 36.6473 -287.447L39.5331 -320.511C39.6086 -321.416 38.9295 -322.227 38.0242 -322.303C37.0811 -322.378 36.3078 -321.699 36.2324 -320.794L33.3466 -287.73C33.2523 -286.824 33.9313 -286.013 34.8367 -285.938ZM-124.617 -203.061C-124.617 -197.554 -120.128 -193.065 -114.621 -193.065C-109.113 -193.065 -104.624 -197.554 -104.624 -203.061C-104.624 -208.569 -109.113 -213.058 -114.621 -213.058C-120.128 -213.058 -124.617 -208.569 -124.617 -203.061ZM-114.621 -209.738C-110.943 -209.738 -107.944 -206.739 -107.944 -203.061C-107.944 -199.383 -110.943 -196.384 -114.621 -196.384C-118.299 -196.384 -121.297 -199.383 -121.297 -203.061C-121.297 -206.739 -118.299 -209.738 -114.621 -209.738ZM-126.371 -217.83C-123.146 -217.83 -120.543 -220.451 -120.543 -223.658C-120.543 -226.883 -123.165 -229.486 -126.371 -229.486C-129.596 -229.486 -132.199 -226.864 -132.199 -223.658C-132.199 -220.433 -129.596 -217.83 -126.371 -217.83ZM-126.371 -226.166C-124.994 -226.166 -123.863 -225.035 -123.863 -223.658C-123.863 -222.281 -124.994 -221.149 -126.371 -221.149C-127.748 -221.149 -128.88 -222.281 -128.88 -223.658C-128.88 -225.035 -127.767 -226.166 -126.371 -226.166ZM-18.937 -209.191C-20.8609 -209.304 -23.6712 -208.701 -26.1043 -205.136C-28.5375 -201.571 -28.0848 -198.742 -27.2549 -196.988C-23.3883 -188.708 -3.30098 -186.482 -1.01876 -186.256C-0.962177 -186.256 -0.9056 -186.256 -0.849016 -186.256C-0.302037 -186.256 0.207239 -186.52 0.527882 -186.973C0.867386 -187.482 0.905104 -188.123 0.641045 -188.67C-0.415189 -190.707 -9.80814 -208.607 -18.937 -209.191ZM-24.2371 -198.403C-24.8972 -199.817 -24.6143 -201.42 -23.3506 -203.269C-22.1623 -205.023 -20.8609 -205.89 -19.3897 -205.89C-19.3142 -205.89 -19.22 -205.89 -19.1445 -205.89C-13.9388 -205.57 -7.35618 -196.007 -3.88569 -189.99C-10.7324 -191.028 -22.0303 -193.687 -24.2371 -198.403ZM17.8615 -219.452C16.1262 -222.356 13.1084 -223.846 8.88344 -223.846C4.6585 -223.846 1.6407 -222.375 -0.0945455 -219.452C-5.88497 -209.7 6.05423 -187.237 7.43111 -184.709C7.71403 -184.181 8.27988 -183.842 8.88344 -183.842C9.487 -183.842 10.0529 -184.181 10.3358 -184.709C11.7126 -187.255 23.6519 -209.7 17.8615 -219.452ZM8.88344 -189.142C5.03573 -196.988 -0.830148 -211.7 2.75351 -217.773C3.86632 -219.64 5.86563 -220.546 8.88344 -220.546C11.9013 -220.546 13.9006 -219.64 15.0134 -217.773C18.597 -211.719 12.7312 -196.988 8.88344 -189.142ZM36.6851 -209.191C27.575 -208.607 18.1632 -190.707 17.1258 -188.67C16.8429 -188.123 16.8807 -187.482 17.239 -186.973C17.5597 -186.52 18.0689 -186.256 18.6159 -186.256C18.6725 -186.256 18.7291 -186.256 18.7856 -186.256C21.0679 -186.482 41.1552 -188.708 45.0218 -196.988C45.8328 -198.742 46.3043 -201.571 43.8712 -205.136C41.4192 -208.701 38.6089 -209.323 36.6851 -209.191ZM41.9851 -198.403C39.7783 -193.687 28.4804 -191.028 21.6148 -189.972C25.0853 -195.969 31.6868 -205.532 36.8737 -205.872C36.9491 -205.872 37.0434 -205.872 37.1189 -205.872C38.59 -205.872 39.8915 -205.023 41.0798 -203.25C42.3623 -201.42 42.6452 -199.817 41.9851 -198.403ZM-229.448 15.8434C-226.695 11.0715 -228.336 4.94153 -233.107 2.16891C-235.427 0.829758 -238.125 0.471366 -240.709 1.16924C-243.293 1.8671 -245.443 3.50804 -246.782 5.82799C-249.536 10.5999 -247.895 16.7298 -243.123 19.5025C-241.557 20.4078 -239.841 20.8416 -238.143 20.8416C-234.673 20.8416 -231.297 19.0498 -229.448 15.8434ZM-232.315 14.1836C-234.164 17.3711 -238.257 18.4651 -241.444 16.6356C-244.632 14.7871 -245.726 10.6942 -243.896 7.50664C-243.01 5.96002 -241.557 4.84721 -239.841 4.39454C-239.256 4.24365 -238.672 4.16821 -238.106 4.16821C-236.955 4.16821 -235.805 4.46998 -234.767 5.07355C-231.58 6.88423 -230.486 10.996 -232.315 14.1836ZM-258.91 5.67712C-260.268 4.90381 -261.833 4.69631 -263.342 5.0924C-264.851 5.48848 -266.115 6.46928 -266.888 7.80843C-267.661 9.16645 -267.869 10.732 -267.473 12.2409C-267.077 13.7498 -266.096 14.9946 -264.757 15.7868C-263.851 16.3149 -262.852 16.579 -261.852 16.579C-261.343 16.579 -260.834 16.5035 -260.343 16.3715C-258.834 15.9754 -257.571 14.9946 -256.797 13.6555C-255.156 10.8451 -256.118 7.28034 -258.91 5.67712ZM-259.645 11.9768C-259.985 12.5615 -260.513 12.9764 -261.173 13.1462C-261.814 13.3159 -262.493 13.2405 -263.078 12.901C-263.663 12.5615 -264.078 12.0145 -264.248 11.3732C-264.417 10.7319 -264.323 10.0529 -264.002 9.46824C-263.663 8.88354 -263.116 8.4686 -262.475 8.29885C-262.267 8.24226 -262.041 8.20453 -261.814 8.20453C-261.381 8.20453 -260.947 8.31769 -260.57 8.54402C-259.985 8.88353 -259.57 9.4305 -259.4 10.0718C-259.23 10.7131 -259.306 11.3921 -259.645 11.9768ZM-168.036 -81.7829C-170.318 -81.8961 -190.519 -82.7071 -195.573 -75.106C-196.649 -73.5028 -197.516 -70.7679 -195.649 -66.8824C-193.782 -62.997 -191.103 -61.9785 -189.179 -61.8088C-188.953 -61.7899 -188.746 -61.771 -188.519 -61.771C-179.504 -61.771 -168.055 -77.3316 -166.753 -79.1612C-166.395 -79.6516 -166.338 -80.3117 -166.602 -80.8587C-166.885 -81.3868 -167.413 -81.7452 -168.036 -81.7829ZM-188.897 -65.1095C-190.462 -65.2415 -191.688 -66.2978 -192.669 -68.3159C-193.631 -70.3341 -193.687 -71.9561 -192.82 -73.2576C-189.934 -77.5957 -178.353 -78.5199 -171.431 -78.5388C-175.75 -73.1256 -183.691 -64.638 -188.897 -65.1095ZM-185.973 -112.093H-186.086C-189.481 -112.055 -192.273 -110.169 -194.385 -106.51C-196.498 -102.851 -196.724 -99.4937 -195.064 -96.5325C-189.5 -86.6303 -164.094 -85.7438 -161.227 -85.6683C-161.208 -85.6683 -161.208 -85.6683 -161.189 -85.6683C-160.605 -85.6683 -160.039 -85.989 -159.756 -86.4982C-159.454 -87.0264 -159.454 -87.6676 -159.775 -88.1957C-161.246 -90.6477 -174.656 -112.093 -185.973 -112.093ZM-192.16 -98.1545C-193.216 -100.041 -193.008 -102.229 -191.499 -104.831C-189.99 -107.434 -188.199 -108.717 -186.048 -108.755H-185.973C-178.938 -108.755 -169.168 -96.3627 -164.32 -89.1388C-173.034 -89.7424 -188.708 -92.0246 -192.16 -98.1545ZM-160.68 -127.427C-164.98 -127.107 -166.904 -124.975 -167.772 -123.259C-171.827 -115.073 -161.038 -97.9848 -159.793 -96.0609C-159.492 -95.5894 -158.964 -95.3065 -158.398 -95.3065C-158.36 -95.3065 -158.322 -95.3065 -158.266 -95.3065C-157.662 -95.3442 -157.134 -95.7214 -156.87 -96.2873C-155.927 -98.3809 -147.817 -116.884 -153.041 -124.372C-154.154 -125.937 -156.361 -127.767 -160.68 -127.427ZM-158.662 -100.607C-162.113 -106.604 -167.112 -117.11 -164.792 -121.769C-164.094 -123.184 -162.66 -123.938 -160.435 -124.108C-158.209 -124.277 -156.681 -123.731 -155.776 -122.448C-152.777 -118.185 -156.134 -107.076 -158.662 -100.607ZM-119.619 216.075C-124.391 218.829 -126.032 224.959 -123.278 229.75C-121.939 232.07 -119.789 233.729 -117.205 234.409C-116.337 234.635 -115.469 234.748 -114.602 234.748C-112.866 234.748 -111.15 234.295 -109.622 233.409C-107.302 232.07 -105.643 229.92 -104.964 227.336C-104.266 224.751 -104.624 222.054 -105.963 219.753C-108.717 214.944 -114.847 213.303 -119.619 216.075ZM-108.17 226.468C-108.642 228.184 -109.735 229.637 -111.282 230.523C-112.829 231.41 -114.621 231.655 -116.356 231.183C-118.072 230.712 -119.525 229.618 -120.411 228.071C-122.259 224.884 -121.165 220.791 -117.959 218.942C-114.771 217.094 -110.679 218.207 -108.83 221.394C-107.944 222.941 -107.698 224.733 -108.17 226.468ZM-129.483 240.161C-130.841 240.935 -131.803 242.198 -132.199 243.707C-132.595 245.216 -132.388 246.782 -131.615 248.14C-130.841 249.498 -129.578 250.46 -128.069 250.856C-127.559 250.988 -127.05 251.063 -126.541 251.063C-125.522 251.063 -124.523 250.799 -123.636 250.271C-122.278 249.498 -121.316 248.234 -120.92 246.725C-120.524 245.216 -120.732 243.651 -121.505 242.293C-123.127 239.52 -126.711 238.558 -129.483 240.161ZM-124.146 245.857C-124.315 246.499 -124.73 247.046 -125.315 247.385C-125.9 247.725 -126.579 247.819 -127.22 247.63C-127.861 247.461 -128.408 247.046 -128.748 246.461C-129.087 245.876 -129.182 245.197 -128.993 244.556C-128.823 243.915 -128.408 243.368 -127.824 243.028C-126.616 242.349 -125.089 242.745 -124.391 243.952C-124.07 244.537 -123.976 245.216 -124.146 245.857ZM-167.772 144.93C-166.923 146.666 -164.999 148.778 -160.68 149.099C-160.34 149.118 -160.001 149.136 -159.699 149.136C-156.04 149.136 -154.078 147.477 -153.06 146.024C-147.817 138.536 -155.946 120.033 -156.889 117.94C-157.134 117.393 -157.681 117.016 -158.285 116.959C-158.888 116.921 -159.473 117.204 -159.812 117.713C-161.019 119.656 -171.827 136.745 -167.772 144.93ZM-158.662 122.297C-156.134 128.747 -152.777 139.875 -155.776 144.138C-156.681 145.421 -158.209 145.968 -160.435 145.798C-162.66 145.628 -164.094 144.874 -164.792 143.459C-167.112 138.782 -162.132 128.295 -158.662 122.297ZM-195.064 118.204C-196.724 121.165 -196.498 124.522 -194.385 128.181C-192.273 131.841 -189.481 133.727 -186.086 133.764H-185.973C-174.656 133.764 -161.246 112.338 -159.756 109.886C-159.435 109.377 -159.435 108.717 -159.737 108.188C-160.039 107.66 -160.605 107.359 -161.208 107.359C-164.094 107.415 -189.5 108.32 -195.064 118.204ZM-192.16 119.845C-188.708 113.715 -173.034 111.414 -164.301 110.829C-169.149 118.053 -178.919 130.445 -185.954 130.445H-186.03C-188.199 130.426 -189.972 129.143 -191.481 126.522C-193.008 123.9 -193.216 121.731 -192.16 119.845ZM-171.582 103.53C-169.809 103.53 -168.507 103.473 -168.017 103.454C-167.413 103.417 -166.866 103.058 -166.602 102.511C-166.338 101.964 -166.395 101.323 -166.753 100.814C-168.092 98.9464 -180.051 82.7068 -189.161 83.4612C-191.084 83.631 -193.763 84.6495 -195.63 88.5349C-197.497 92.4204 -196.63 95.1553 -195.555 96.7585C-191.594 102.756 -178.202 103.53 -171.582 103.53ZM-192.65 89.9873C-191.688 87.9691 -190.443 86.9129 -188.878 86.7809C-188.746 86.762 -188.614 86.762 -188.463 86.762C-183.276 86.762 -175.618 94.9289 -171.393 100.21C-178.315 100.21 -189.896 99.267 -192.782 94.9289C-193.687 93.6275 -193.631 92.0054 -192.65 89.9873ZM142.365 224.733C142.365 219.225 137.876 214.736 132.369 214.736C126.842 214.736 122.353 219.225 122.353 224.733C122.353 230.24 126.842 234.729 132.369 234.729C137.876 234.729 142.365 230.24 142.365 224.733ZM132.369 231.41C128.691 231.41 125.692 228.411 125.692 224.733C125.692 221.055 128.691 218.056 132.369 218.056C136.047 218.056 139.046 221.055 139.046 224.733C139.046 228.411 136.047 231.41 132.369 231.41ZM144.119 239.501C140.894 239.501 138.291 242.123 138.291 245.329C138.291 248.555 140.913 251.157 144.119 251.157C147.344 251.157 149.947 248.536 149.947 245.329C149.966 242.104 147.344 239.501 144.119 239.501ZM144.119 247.838C142.742 247.838 141.611 246.706 141.611 245.329C141.611 243.952 142.742 242.821 144.119 242.821C145.496 242.821 146.628 243.952 146.628 245.329C146.628 246.706 145.515 247.838 144.119 247.838ZM36.6851 230.863C36.8359 230.881 36.9868 230.881 37.1377 230.881C39.0238 230.881 41.6079 230.108 43.8524 226.826C46.2855 223.261 45.8328 220.432 45.0029 218.678C41.1363 210.398 21.049 208.172 18.7668 207.946C18.1444 207.889 17.5785 208.154 17.2201 208.663C16.8806 209.172 16.8429 209.813 17.107 210.36C18.1632 212.378 27.575 230.278 36.6851 230.863ZM41.9851 220.074C42.6452 221.488 42.3623 223.092 41.0986 224.94C39.8349 226.789 38.4392 227.637 36.8925 227.543C31.6868 227.222 25.1042 217.641 21.6148 211.643C28.4804 212.699 39.7783 215.34 41.9851 220.074ZM-0.113425 241.142C1.62182 244.047 4.63965 245.537 8.86459 245.537C13.0895 245.537 16.1073 244.066 17.8426 241.142C23.633 231.391 11.6938 208.927 10.3169 206.399C10.034 205.871 9.46815 205.532 8.86459 205.532C8.26103 205.532 7.69518 205.871 7.41226 206.399C6.03538 208.927 -5.90385 231.372 -0.113425 241.142ZM8.88344 210.813C12.7312 218.659 18.597 233.39 15.0134 239.445C13.9006 241.312 11.9013 242.217 8.88344 242.217C5.86563 242.217 3.86632 241.312 2.75351 239.445C-0.849009 233.39 5.01687 218.659 8.88344 210.813ZM-19.3708 230.881C-19.2199 230.881 -19.069 230.881 -18.9181 230.863C-9.80812 230.278 -0.396328 212.378 0.641045 210.341C0.923965 209.794 0.867386 209.153 0.527882 208.644C0.188378 208.135 -0.396337 207.871 -1.01876 207.927C-3.30098 208.154 -23.3883 210.379 -27.2549 218.659C-28.0659 220.413 -28.5375 223.243 -26.1043 226.807C-23.841 230.108 -21.2758 230.881 -19.3708 230.881ZM-24.2371 220.074C-22.0303 215.359 -10.7323 212.699 -3.86681 211.643C-7.3373 217.641 -13.9199 227.204 -19.1445 227.543C-20.71 227.637 -22.0869 226.789 -23.3506 224.94C-24.6143 223.092 -24.8972 221.507 -24.2371 220.074ZM247.196 5.82799C244.443 10.5999 246.084 16.7298 250.856 19.5025C252.402 20.3889 254.1 20.8416 255.835 20.8416C256.702 20.8416 257.57 20.7284 258.438 20.5021C261.022 19.8042 263.172 18.1633 264.511 15.8434C265.85 13.5234 266.209 10.8262 265.511 8.24224C264.813 5.65823 263.172 3.50807 260.852 2.16891C256.08 -0.584842 249.95 1.05607 247.196 5.82799ZM250.063 7.48779C251.912 4.30023 256.005 3.1874 259.192 5.03581C260.739 5.9223 261.852 7.37464 262.304 9.09102C262.757 10.8074 262.531 12.6181 261.644 14.1647C260.758 15.7114 259.305 16.8242 257.589 17.2768C255.854 17.7484 254.062 17.5032 252.515 16.6167C249.328 14.7871 248.234 10.6942 250.063 7.48779ZM276.658 16.0131C277.582 16.5412 278.582 16.7864 279.562 16.7864C281.581 16.7864 283.542 15.7491 284.617 13.8629C285.391 12.5049 285.598 10.9394 285.202 9.43051C284.806 7.9216 283.825 6.67675 282.486 5.88457C281.147 5.11125 279.562 4.90378 278.054 5.29987C276.545 5.69596 275.3 6.67675 274.508 8.01591C273.734 9.37393 273.527 10.9394 273.923 12.4483C274.338 13.9761 275.319 15.2209 276.658 16.0131ZM277.393 9.69457C277.733 9.10987 278.28 8.69493 278.921 8.52517C279.562 8.35542 280.241 8.43088 280.826 8.77038C281.411 9.10988 281.826 9.638 281.996 10.2981C282.165 10.9394 282.09 11.6184 281.75 12.2031C281.053 13.4103 279.525 13.8064 278.318 13.1273C277.733 12.7878 277.318 12.2409 277.148 11.5996C276.978 10.9583 277.073 10.2793 277.393 9.69457ZM206.927 83.4612C197.817 82.6879 185.859 98.9464 184.52 100.814C184.162 101.304 184.105 101.945 184.369 102.511C184.633 103.058 185.18 103.417 185.784 103.454C186.274 103.473 187.557 103.53 189.349 103.53C195.969 103.53 209.342 102.756 213.34 96.7585C214.415 95.1553 215.283 92.4204 213.416 88.5349C211.53 84.6495 208.851 83.631 206.927 83.4612ZM210.568 94.9289C207.682 99.267 196.101 100.191 189.179 100.21C193.404 94.9478 201.043 86.762 206.248 86.762C206.38 86.762 206.531 86.762 206.663 86.7809C208.229 86.9129 209.455 87.9691 210.436 89.9873C211.379 92.0054 211.435 93.6275 210.568 94.9289ZM178.956 107.359C178.296 107.359 177.787 107.66 177.485 108.188C177.183 108.717 177.183 109.358 177.504 109.886C178.994 112.338 192.404 133.764 203.721 133.764H203.834C207.229 133.727 210.021 131.841 212.133 128.181C214.246 124.522 214.472 121.165 212.812 118.204C207.248 108.32 181.842 107.415 178.956 107.359ZM209.247 126.522C207.739 129.125 205.947 130.407 203.796 130.445H203.721C196.686 130.445 186.916 118.053 182.068 110.829C190.782 111.414 206.475 113.696 209.926 119.845C210.964 121.731 210.756 123.9 209.247 126.522ZM176.014 116.978C175.41 117.016 174.882 117.393 174.618 117.959C173.675 120.052 165.565 138.555 170.789 146.043C171.808 147.495 173.769 149.155 177.428 149.155C177.749 149.155 178.07 149.136 178.409 149.118C182.71 148.797 184.633 146.666 185.501 144.949C189.556 136.763 178.767 119.675 177.523 117.751C177.202 117.223 176.636 116.94 176.014 116.978ZM182.54 143.459C181.842 144.874 180.408 145.628 178.183 145.798C175.938 145.968 174.429 145.421 173.524 144.138C170.544 139.875 173.901 128.747 176.41 122.297C179.88 128.295 184.86 138.782 182.54 143.459ZM132.387 -193.046C134.085 -193.046 135.801 -193.48 137.367 -194.385C139.687 -195.724 141.347 -197.874 142.026 -200.458C142.723 -203.042 142.365 -205.74 141.026 -208.06C139.687 -210.379 137.537 -212.039 134.953 -212.718C132.369 -213.416 129.671 -213.058 127.37 -211.719C122.598 -208.965 120.957 -202.835 123.711 -198.044C125.56 -194.857 128.917 -193.046 132.387 -193.046ZM129.03 -208.852C130.068 -209.436 131.199 -209.757 132.369 -209.757C132.953 -209.757 133.538 -209.682 134.104 -209.531C135.82 -209.078 137.273 -207.965 138.159 -206.419C139.046 -204.872 139.291 -203.08 138.819 -201.345C138.348 -199.629 137.254 -198.176 135.707 -197.29C132.519 -195.441 128.427 -196.554 126.578 -199.742C124.73 -202.91 125.843 -207.003 129.03 -208.852ZM144.346 -217.698C145.326 -217.698 146.345 -217.943 147.25 -218.471C150.042 -220.074 151.004 -223.658 149.382 -226.43C148.608 -227.788 147.344 -228.75 145.836 -229.147C144.327 -229.543 142.761 -229.335 141.403 -228.562C138.612 -226.959 137.65 -223.375 139.272 -220.583C140.347 -218.754 142.327 -217.698 144.346 -217.698ZM143.063 -225.714C143.459 -225.94 143.874 -226.053 144.308 -226.053C144.534 -226.053 144.742 -226.016 144.968 -225.959C145.609 -225.789 146.156 -225.374 146.496 -224.79C147.194 -223.582 146.779 -222.055 145.572 -221.357C144.364 -220.659 142.837 -221.074 142.139 -222.281C141.46 -223.488 141.875 -225.016 143.063 -225.714ZM177.542 -96.0609C178.786 -97.9848 189.594 -115.073 185.52 -123.259C184.671 -124.994 182.747 -127.107 178.428 -127.427C174.146 -127.748 171.902 -125.937 170.789 -124.353C165.546 -116.865 173.675 -98.362 174.618 -96.2684C174.863 -95.7214 175.391 -95.3442 176.014 -95.2876C176.051 -95.2876 176.089 -95.2876 176.146 -95.2876C176.693 -95.3065 177.221 -95.5894 177.542 -96.0609ZM173.524 -122.467C174.316 -123.598 175.599 -124.164 177.428 -124.164C177.674 -124.164 177.919 -124.145 178.183 -124.127C180.408 -123.957 181.842 -123.184 182.54 -121.788C184.86 -117.11 179.861 -106.623 176.41 -100.625C173.901 -107.076 170.544 -118.185 173.524 -122.467ZM106.378 -158.039C107.396 -170.544 107.641 -210.134 72.6159 -225.978C30.4797 -245.028 15.5981 -254.213 10.4678 -271.151C10.2603 -271.849 9.61903 -272.339 8.88344 -272.339C8.14785 -272.339 7.50657 -271.867 7.29909 -271.151C2.16881 -254.213 -12.7128 -245.028 -54.849 -225.978C-89.8745 -210.134 -89.6293 -170.544 -88.6108 -158.039C-98.9279 -165.169 -133.105 -185.181 -164.339 -162.773C-201.892 -135.802 -217.302 -127.522 -234.522 -131.539C-235.239 -131.709 -235.974 -131.388 -236.333 -130.747C-236.691 -130.106 -236.616 -129.313 -236.106 -128.785C-224.016 -115.884 -223.488 -98.3997 -228.053 -52.3781C-231.863 -14.1273 -197.441 5.46964 -186.105 10.8263C-197.441 16.2017 -231.863 35.7798 -228.053 74.0306C-223.488 120.033 -223.997 137.537 -236.106 150.438C-236.616 150.966 -236.691 151.777 -236.333 152.399C-235.974 153.041 -235.22 153.361 -234.522 153.192C-217.302 149.174 -201.892 157.454 -164.339 184.426C-153.739 192.027 -142.818 194.743 -132.595 194.743C-112.678 194.743 -95.4386 184.407 -88.6108 179.692C-89.6293 192.197 -89.8745 231.787 -54.849 247.63C-12.7128 266.68 2.16881 275.866 7.29909 292.803C7.50657 293.501 8.14785 293.991 8.88344 293.991C9.61903 293.991 10.2603 293.52 10.4678 292.803C15.5981 275.866 30.4797 266.68 72.6159 247.63C107.66 231.787 107.396 192.197 106.378 179.692C113.205 184.407 130.426 194.743 150.362 194.743C160.585 194.743 171.506 192.027 182.106 184.407C219.659 157.435 235.069 149.155 252.289 153.173C253.006 153.343 253.741 153.022 254.1 152.381C254.458 151.739 254.383 150.947 253.873 150.419C241.783 137.518 241.255 120.033 245.82 74.0117C249.63 35.7421 215.189 16.164 203.872 10.8074C215.208 5.4319 249.63 -14.1462 245.82 -52.3969C241.255 -98.3997 241.764 -115.903 253.873 -128.804C254.383 -129.332 254.458 -130.143 254.1 -130.766C253.741 -131.407 253.006 -131.728 252.289 -131.558C235.069 -127.522 219.659 -135.821 182.106 -162.792C150.872 -185.181 116.695 -165.169 106.378 -158.039ZM-53.491 -222.941C-16.6171 -239.615 1.67842 -249.347 8.86459 -265.851C16.0508 -249.366 34.3462 -239.615 71.2202 -222.941C105.642 -207.381 103.945 -167.149 102.945 -157.04C97.9278 -159.869 92.7598 -162.472 87.4786 -164.848C87.1957 -170.846 84.574 -200.968 61.5254 -210.53C41.9851 -218.622 15.4472 -230.976 10.4301 -244.632C10.1849 -245.292 9.56246 -245.726 8.86459 -245.726C8.16672 -245.726 7.54429 -245.292 7.29909 -244.632C2.28198 -230.976 -24.2559 -218.641 -43.7963 -210.53C-66.8448 -200.987 -69.4477 -170.846 -69.7495 -164.848C-75.0306 -162.472 -80.1986 -159.85 -85.2158 -157.04C-86.2154 -167.149 -87.9506 -207.362 -53.491 -222.941ZM84.027 -166.376C60.9219 -176.203 35.5157 -181.654 8.86459 -181.654C-17.7865 -181.654 -43.1927 -176.203 -66.2978 -166.376C-65.5811 -174.486 -61.8466 -199.478 -42.5137 -207.475C-22.3509 -215.83 1.16916 -226.94 8.86459 -240.199C16.56 -226.94 40.0801 -215.83 60.2428 -207.475C79.5757 -199.478 83.3291 -174.486 84.027 -166.376ZM-224.771 -52.0386C-220.772 -92.3075 -220.055 -113.036 -230.75 -127.503C-212.888 -125.503 -195.291 -136.462 -162.415 -160.057C-131.728 -182.087 -97.7208 -160.491 -89.4784 -154.569C-94.4389 -151.608 -99.2486 -148.42 -103.926 -145.044C-109.094 -147.703 -136.651 -160.699 -156.53 -145.44C-173.317 -132.576 -197.271 -115.733 -211.606 -118.242C-212.285 -118.355 -212.982 -118.034 -213.322 -117.431C-213.661 -116.827 -213.605 -116.073 -213.152 -115.526C-203.835 -104.36 -206.419 -75.2003 -209.172 -54.2265C-212.417 -29.5181 -187.708 -12.2034 -182.616 -8.92156C-183.2 -3.22544 -183.521 2.54613 -183.596 8.37428C-192.895 4.1682 -228.505 -14.4479 -224.771 -52.0386ZM-205.891 75.5018C-208.625 54.7732 -188.878 39.0428 -182.201 34.3652C-175.712 87.3844 -147.59 133.802 -106.963 164.508C-114.262 167.922 -137.877 177.278 -154.531 164.508C-171.846 151.23 -193.235 136.405 -208.569 136.367C-200.911 123.07 -203.043 97.1357 -205.891 75.5018ZM-205.891 -53.8304C-203.043 -75.4832 -200.911 -101.399 -208.55 -114.696C-193.216 -114.734 -171.827 -129.54 -154.512 -142.837C-137.858 -155.606 -114.243 -146.251 -106.944 -142.837C-147.571 -112.131 -175.694 -65.713 -182.182 -12.6938C-188.859 -17.3714 -208.607 -33.1018 -205.891 -53.8304ZM-162.415 181.729C-195.291 158.133 -212.869 147.156 -230.75 149.174C-220.074 134.707 -220.772 113.998 -224.771 73.7099C-228.505 36.157 -192.895 17.522 -183.596 13.3159C-183.521 19.1441 -183.2 24.9157 -182.616 30.6118C-187.708 33.8937 -212.435 51.2084 -209.172 75.9167C-206.419 96.8905 -203.835 126.05 -213.152 137.216C-213.605 137.744 -213.661 138.517 -213.322 139.102C-212.964 139.706 -212.285 140.026 -211.606 139.913C-197.271 137.424 -173.317 154.248 -156.53 167.111C-149.439 172.562 -141.347 174.411 -133.652 174.411C-119.807 174.411 -107.246 168.432 -103.926 166.715C-99.2674 170.091 -94.4389 173.279 -89.4784 176.24C-97.7019 182.181 -131.671 203.797 -162.415 181.729ZM71.239 244.612C34.3651 261.286 16.0696 271.018 8.88344 287.522C1.69727 271.037 -16.5982 261.286 -53.4721 244.612C-87.8941 229.052 -86.1965 188.821 -85.178 178.73C-80.1609 181.559 -74.9929 184.162 -69.7117 186.538C-69.4288 192.536 -66.8071 222.658 -43.7586 232.221C-24.2182 240.312 2.31971 252.666 7.33682 266.322C7.58202 266.982 8.20445 267.416 8.90232 267.416C9.60019 267.416 10.2226 266.982 10.4678 266.322C15.4849 252.666 42.0228 240.312 61.5632 232.221C84.6117 222.677 87.2334 192.536 87.5163 186.538C92.7975 184.162 97.9655 181.54 102.983 178.73C103.963 188.821 105.661 229.071 71.239 244.612ZM-66.279 188.047C-43.1738 197.874 -17.7676 203.325 8.88344 203.325C35.5345 203.325 60.9407 197.874 84.0459 188.047C83.348 196.158 79.6135 221.13 60.2617 229.146C40.099 237.502 16.5789 248.611 8.88344 261.871C1.18802 248.611 -22.3321 237.502 -42.4948 229.146C-61.8277 221.149 -65.5811 196.177 -66.279 188.047ZM8.88344 200.024C-95.4386 200.024 -180.296 115.167 -180.296 10.8451C-180.296 -93.4769 -95.4386 -178.334 8.88344 -178.334C113.205 -178.334 198.063 -93.4769 198.063 10.8451C198.063 115.148 113.187 200.024 8.88344 200.024ZM223.639 -53.8304C226.355 -33.1018 206.626 -17.3714 199.949 -12.6938C193.46 -65.713 165.338 -112.131 124.711 -142.837C132.01 -146.251 155.625 -155.606 172.279 -142.837C189.594 -129.559 210.983 -114.734 226.317 -114.696C218.659 -101.38 220.791 -75.4643 223.639 -53.8304ZM226.298 136.367C210.964 136.405 189.575 151.211 172.26 164.508C155.606 177.278 131.991 167.922 124.692 164.508C165.319 133.802 193.442 87.3844 199.93 34.3652C206.607 39.0428 226.355 54.7732 223.639 75.5018C220.791 97.1357 218.659 123.07 226.298 136.367ZM242.519 73.7288C238.52 113.998 237.803 134.726 248.498 149.193C230.617 147.175 213.039 158.152 180.163 181.748C149.476 203.797 115.469 182.181 107.226 176.259C112.187 173.298 116.997 170.129 121.674 166.734C124.994 168.45 137.555 174.429 151.4 174.429C159.095 174.429 167.168 172.581 174.278 167.13C191.065 154.267 215.038 137.424 229.354 139.932C230.051 140.045 230.73 139.725 231.07 139.121C231.428 138.517 231.353 137.763 230.9 137.235C221.583 126.069 224.167 96.9094 226.92 75.9356C230.165 51.2272 205.456 33.9125 200.364 30.6307C200.948 24.9345 201.269 19.163 201.345 13.3348C210.643 17.522 246.253 36.1759 242.519 73.7288ZM248.498 -127.503C237.822 -113.036 238.52 -92.3264 242.519 -52.0386C246.253 -14.4857 210.643 4.14935 201.345 8.35543C201.269 2.52728 200.948 -3.24429 200.364 -8.94041C205.456 -12.2223 230.183 -29.537 226.92 -54.2453C224.167 -75.2191 221.583 -104.379 230.9 -115.545C231.353 -116.073 231.409 -116.827 231.07 -117.45C230.73 -118.053 230.051 -118.374 229.354 -118.261C215.038 -115.771 191.065 -132.595 174.278 -145.459C154.399 -160.718 126.842 -147.722 121.674 -145.063C117.015 -148.439 112.187 -151.626 107.226 -154.588C115.45 -160.51 149.457 -182.106 180.163 -160.076C213.039 -136.462 230.617 -125.485 248.498 -127.503ZM212.812 -96.5325C214.472 -99.4937 214.246 -102.851 212.133 -106.51C210.021 -110.169 207.229 -112.055 203.834 -112.093H203.721C192.404 -112.093 178.994 -90.6666 177.504 -88.2146C177.183 -87.6865 177.183 -87.0452 177.485 -86.5171C177.787 -86.0078 178.334 -85.6872 178.918 -85.6872C178.937 -85.6872 178.937 -85.6872 178.956 -85.6872C181.842 -85.7438 207.248 -86.6491 212.812 -96.5325ZM209.908 -98.1545C206.456 -92.0246 190.782 -89.7235 182.049 -89.1388C186.897 -96.3627 196.667 -108.755 203.702 -108.755H203.778C205.947 -108.736 207.72 -107.453 209.229 -104.831C210.756 -102.229 210.964 -100.041 209.908 -98.1545ZM185.784 -81.7829C185.18 -81.7452 184.633 -81.3868 184.369 -80.8398C184.105 -80.2929 184.162 -79.6516 184.52 -79.1423C185.822 -77.3316 197.27 -61.7521 206.286 -61.7521C206.513 -61.7521 206.72 -61.771 206.946 -61.7899C208.87 -61.9596 211.548 -62.9781 213.416 -66.8636C215.283 -70.749 214.415 -73.4839 213.34 -75.0871C208.267 -82.7071 188.066 -81.8961 185.784 -81.7829ZM210.417 -68.3159C209.436 -66.2978 208.21 -65.2415 206.645 -65.1095C201.42 -64.6568 193.498 -73.1256 189.16 -78.5388C196.082 -78.5388 207.663 -77.6145 210.549 -73.2576C211.435 -71.9373 211.379 -70.3341 210.417 -68.3159Z" fill="#144C80"/>
</g>
<mask id="mask1_19_1739" style="mask-type:luminance" maskUnits="userSpaceOnUse" x="0" y="0" width="160" height="166">
<path d="M160 0H0V165.159H160V0Z" fill="white"/>
</mask>
<g mask="url(#mask1_19_1739)">
<path d="M100.826 139.449C95.6957 141.652 90.2609 138.898 85.8261 135.84C72.029 126.377 60.8986 113.116 53.9565 97.8985C56.116 102.652 55.8551 108.435 53.2899 112.971C52.8551 113.739 52.3334 114.507 51.5218 114.855C49.5363 115.681 47.6087 113.536 46.7247 111.58C45.9275 109.826 45.3478 107.971 44.971 106.072C44.942 106.652 44.8696 107.217 44.7247 107.783C43.971 110.985 40.971 113.971 37.1594 112.188C36.1305 111.696 35.2609 110.884 34.6522 109.927C32.7826 106.971 33.087 103.507 33.3913 100.203C32.971 101.696 32.4493 103.159 31.7681 104.565C30.9275 106.362 28.4348 106.536 27.4493 104.826C25.6087 101.623 25.6087 97.1159 26.058 93.2318C26.9131 85.4492 28.2899 77.7101 30.1594 70.1158C26.9131 79.6811 23.6667 89.2463 20.4348 98.826C19.6667 101.087 18.8841 103.362 17.4638 105.275C12.7102 111.667 3.00002 111.362 -4.57969 108.927C-6.26085 108.391 -7.971 107.739 -9.20288 106.449C-11.3188 104.261 -11.3768 100.826 -11.2319 97.768C-10.2898 78.1448 -6.30433 58.6521 0.565232 40.2173C-3.31883 48.3332 -5.28984 57.2463 -8.84056 65.5072C-12.4203 73.7535 -18.1014 81.7535 -26.5507 84.8985C-29.6087 86.0289 -33.1159 86.4637 -36.0869 85.1158C-39.4348 83.6086 -41.5217 80.1159 -42.4203 76.5651C-43.8261 71.1159 -42.942 65.3622 -41.8261 59.855C-40.1159 51.3912 -37.971 43.0289 -35.3478 34.8115C-32.2319 25.1158 -28.6377 15.2753 -22.5362 7.04338C-17.1304 -0.246474 -9.49274 -6.26097 -0.60868 -8.17401C-0.318825 -8.23198 -0.0289713 -8.28995 0.289869 -8.34792L-4.27535 -8.75372C2.26088 -9.36242 8.75364 -10.3624 15.2319 -11.4929C25.6377 -13.3189 36.0145 -15.5218 46.4783 -17.0001C63.4493 -19.4204 81.1594 -19.8986 97.3189 -14.174C103.986 -11.8117 110.522 -8.21749 114.261 -2.08705C115.058 -0.811692 115.58 0.637584 115.609 2.14483C115.725 7.33324 110.855 9.24628 106.609 10.2318C93.7247 13.2463 80.1884 13.4202 67.2319 10.7535C77.1739 14.4637 88.0145 14.9564 98.2319 17.826C108.884 20.826 119.696 27.5216 122.087 38.4927C122.377 39.826 122.507 41.2028 122.29 42.5361C121.029 50.4637 111.638 51.5216 104.391 50.6521C95.2754 49.5651 86.3044 47.4782 77.4058 45.1738C80.5652 46.1158 83.6377 47.2753 86.5218 48.8405C88.7681 50.0724 91.0145 51.7245 90.7826 54.8405C90.6087 56.9564 89.1739 58.7825 87.2609 59.7245C85.116 60.7535 83.0435 60.768 81.0145 60.3477C84.4928 62.2608 87.6812 64.7101 90.3768 67.6231C91.4058 68.7245 92.4058 70.4782 91.4348 71.6376C90.9276 72.2318 90.116 72.3767 89.3478 72.4782C86.1739 72.8695 82.8841 72.5941 79.7971 71.6521C88.145 74.7825 94.7392 81.7245 98.9276 89.6376C103.362 97.9854 105.464 107.348 107.159 116.638C108.174 122.116 109.058 127.797 106.812 133.13C105.957 135.188 104.594 137.043 102.768 138.319C102.145 138.826 101.478 139.188 100.826 139.449Z" fill="#88A51E"/>
<path d="M-0.11581 -2.62323C27.9422 23.8261 52.5654 53.8695 72.9567 86.6087C78.7248 95.8695 84.1451 105.362 89.232 115.014C89.7827 116.043 91.348 115.13 90.7972 114.101C72.7827 79.8405 50.348 47.9275 24.174 19.3913C16.7972 11.3478 9.11607 3.57967 1.17404 -3.91308C0.318972 -4.71018 -0.956389 -3.43482 -0.11581 -2.62323Z" fill="#327D3A"/>
<path d="M26.7968 24.1448C50.7098 27.1448 74.3185 32.2753 97.333 39.4347C98.4489 39.7825 98.9272 38.0289 97.8113 37.681C74.6373 30.4782 50.8692 25.3477 26.7968 22.3187C25.6373 22.1883 25.6518 23.9999 26.7968 24.1448Z" fill="#327D3A"/>
<path d="M4.9419 1.55067C29.0578 -0.405851 53.2607 -1.01455 77.4491 -0.260923C78.6231 -0.217445 78.6231 -2.04353 77.4491 -2.07252C53.2607 -2.82614 29.0578 -2.21744 4.9419 -0.260923C3.78248 -0.173966 3.76799 1.65212 4.9419 1.55067Z" fill="#327D3A"/>
<path d="M31.507 30.4492C20.8548 55.0289 11.8258 80.3043 4.52148 106.087C4.20264 107.217 5.95626 107.696 6.2751 106.565C13.536 80.942 22.4925 55.8115 33.0867 31.3623C33.536 30.3043 31.9707 29.3768 31.507 30.4492Z" fill="#327D3A"/>
<path d="M1.21719 -0.275339C-12.2031 20.9421 -22.4205 44.1015 -29.0582 68.3044C-29.3625 69.4348 -27.6089 69.9131 -27.3046 68.7826C-20.7103 44.7102 -10.5654 21.7247 2.78241 0.623212C3.40559 -0.347803 1.84038 -1.26085 1.21719 -0.275339Z" fill="#327D3A"/>
<path d="M52.3186 57.3624C47.5794 72.29 42.8403 87.2175 38.0867 102.131C37.7388 103.247 39.4925 103.725 39.8403 102.609C44.5794 87.6813 49.3186 72.7538 54.0722 57.8407C54.4345 56.7248 52.6809 56.2465 52.3186 57.3624Z" fill="#327D3A"/>
<path d="M46.7102 47.7391C58.087 46.9854 69.4928 48.9565 79.9276 53.5652C80.9856 54.0289 81.9131 52.4637 80.8407 51.9999C70.116 47.2608 58.4204 45.1449 46.7102 45.9275C45.5508 45.9999 45.5363 47.8115 46.7102 47.7391Z" fill="#327D3A"/>
<path d="M71.8548 83.8696C78.6084 87.3333 85.362 90.8116 92.1301 94.2754C93.1736 94.8116 94.0867 93.2464 93.0432 92.7102C86.2896 89.2464 79.536 85.7681 72.7678 82.3044C71.7389 81.7681 70.8258 83.3333 71.8548 83.8696Z" fill="#327D3A"/>
<path d="M78.4201 95.8405C79.3477 105.522 80.2752 115.203 81.2027 124.884C81.3187 126.043 83.1303 126.043 83.0143 124.884C82.0868 115.203 81.1593 105.522 80.2317 95.8405C80.1158 94.6955 78.3042 94.681 78.4201 95.8405Z" fill="#327D3A"/>
<path d="M65.6232 75.7684C65.3333 88.3626 65.029 100.957 64.7391 113.536C64.7101 114.71 66.5362 114.71 66.5507 113.536C66.8406 100.942 67.1449 88.3481 67.4348 75.7684C67.4782 74.5945 65.6522 74.5945 65.6232 75.7684Z" fill="#327D3A"/>
<path opacity="0.28" d="M100.826 139.449C95.6957 141.652 90.2609 138.899 85.8261 135.841C72.029 126.377 60.8986 113.116 53.9566 97.8986C56.116 102.652 55.8551 108.435 53.2899 112.971C52.8551 113.739 52.3334 114.507 51.5218 114.855C49.5363 115.681 47.6087 113.536 46.7247 111.58C45.9276 109.826 45.3478 107.971 44.971 106.073C44.9421 106.652 44.8696 107.217 44.7247 107.783C43.971 110.986 40.971 113.971 37.1594 112.188C36.1305 111.696 35.2609 110.884 34.6522 109.928C32.7826 106.971 33.087 103.507 33.3913 100.203C32.971 101.696 32.4493 103.16 31.7681 104.565C30.9276 106.362 28.4348 106.536 27.4493 104.826C25.6087 101.623 25.6087 97.116 26.058 93.232C26.9131 85.4494 28.2899 77.7102 30.1594 70.116C26.9131 79.6812 23.6667 89.2465 20.4348 98.8262C19.6667 101.087 18.8841 103.362 17.4638 105.275C12.7102 111.667 3.00002 111.362 -4.57969 108.928C-6.26085 108.391 -7.971 107.739 -9.20288 106.449C-11.3188 104.261 -11.3768 100.826 -11.2319 97.7682C-10.2898 78.145 -6.30433 58.6523 0.565236 40.2175C-3.31882 48.3334 -5.28984 57.2465 -8.84056 65.5073C-12.4203 73.7537 -18.1014 81.7537 -26.5507 84.8986C-29.6087 86.0291 -33.1159 86.4638 -36.0869 85.116C-39.4348 83.6088 -41.5217 80.116 -42.4203 76.5653C-43.8261 71.116 -42.942 65.3624 -41.8261 59.8552C-40.1159 51.3914 -37.971 43.0291 -35.3478 34.8117C-32.2319 25.116 -28.6377 15.2754 -22.5362 7.04356C-17.1304 -0.246297 -9.49274 -6.26079 -0.608676 -8.17383C-0.318821 -8.23181 -0.0289678 -8.28978 0.289873 -8.34775L-4.27534 -8.75354C2.26089 -9.36224 8.75364 -10.3622 15.2319 -11.4927C18.1015 -7.18833 19.5652 -2.15934 18.4203 2.84066C17.8986 5.08703 16.8986 7.21747 16.7826 9.52182C16.5073 14.4204 21.0435 19.0146 25.9565 18.8117C27.7826 18.7392 29.5507 18.1015 31.3913 18.0291C34.9565 17.8986 38.2029 19.9131 41.2174 21.8552C44.1884 23.7682 47.3768 25.9856 48.3189 29.3914C49.2464 32.7972 46.1305 37.2175 42.8116 36.0146C41.9276 40.5363 47.2029 44.0146 51.8261 44.1595C56.4348 44.3189 61.0435 42.6233 65.5797 43.3914C70.1305 44.1595 74.4638 49.3479 71.8551 53.1595C69.5508 56.5653 63.4493 56.3334 62.1739 60.232C61.4493 62.4349 62.7537 64.7247 64.116 66.5798C70.971 76.0291 80.3044 83.4349 87.2319 92.8117C95.5363 104.058 103.13 123.971 100.826 139.449Z" fill="#88A51E"/>
</g>
</svg>
